<?xml version="1.0" encoding="utf-8" standalone="no"?><!DOCTYPE svg PUBLIC "-//W3C//DTD SVG 1.1//EN" "http://www.w3.org/Graphics/SVG/1.1/DTD/svg11.dtd">
<svg preserveAspectRatio="xMinYMin meet" width="100%" height="100%" viewBox="0 0 1080.000 540.000"  version="1.1" xmlns="http://www.w3.org/2000/svg" xmlns:xlink="http://www.w3.org/1999/xlink">
  <desc>Matlab Figure Converted by PLOT2SVG written by Juerg Schwizer</desc>
  <g id="topgroup">
  <rect x="0" y="0" width="1080.000" height="540.000" fill="#ffffff" stroke="none" />
  <g id ="ID000000">
  <clipPath id="ID000001">
    <rect x="140.400" y="40.500" width="837.000" height="440.100"/>
  </clipPath>
      <polygon fill="#ffffff" fill-opacity="1.00" stroke="none" stroke-width="0.5pt" stroke-opacity="1.00" stroke-dasharray="none" points="140.400,480.600 977.400,480.600 977.400,40.500 140.400,40.500 "/>
      <polygon fill="#ffffff" fill-opacity="1.00" stroke="none" stroke-width="0.5pt" stroke-opacity="1.00" stroke-dasharray="none" points="140.400,40.500 977.400,40.500 977.400,40.500 140.400,40.500 "/>
      <polygon fill="#ffffff" fill-opacity="1.00" stroke="none" stroke-width="0.5pt" stroke-opacity="1.00" stroke-dasharray="none" points="140.400,480.600 140.400,480.600 140.400,40.500 140.400,40.500 "/>
    <g>
<g id="ID000002" clip-path="url(#ID000001)" >
      <polyline fill="none" stroke="#ff0000" stroke-width="0.5pt" stroke-dasharray="none" points="140.400,466.558 419.400,434.947 698.400,348.573 837.900,225.211 977.400,70.830 "/>
<g>
<circle cx="140.400" cy="466.558" r="3.000" fill="none" stroke="#ff0000" stroke-width="0.5pt" />
<circle cx="419.400" cy="434.947" r="3.000" fill="none" stroke="#ff0000" stroke-width="0.5pt" />
<circle cx="698.400" cy="348.573" r="3.000" fill="none" stroke="#ff0000" stroke-width="0.5pt" />
<circle cx="837.900" cy="225.211" r="3.000" fill="none" stroke="#ff0000" stroke-width="0.5pt" />
<circle cx="977.400" cy="70.830" r="3.000" fill="none" stroke="#ff0000" stroke-width="0.5pt" />
</g>
</g>
<g id="ID000003" clip-path="url(#ID000001)" >
      <polyline fill="none" stroke="#0000ff" stroke-width="0.5pt" stroke-dasharray="none" points="140.400,475.159 419.400,442.892 698.400,356.992 837.900,233.426 977.400,80.146 "/>
<g>
<circle cx="140.400" cy="475.159" r="3.000" fill="none" stroke="#0000ff" stroke-width="0.5pt" />
<circle cx="419.400" cy="442.892" r="3.000" fill="none" stroke="#0000ff" stroke-width="0.5pt" />
<circle cx="698.400" cy="356.992" r="3.000" fill="none" stroke="#0000ff" stroke-width="0.5pt" />
<circle cx="837.900" cy="233.426" r="3.000" fill="none" stroke="#0000ff" stroke-width="0.5pt" />
<circle cx="977.400" cy="80.146" r="3.000" fill="none" stroke="#0000ff" stroke-width="0.5pt" />
</g>
</g>
<g id="ID000004" clip-path="url(#ID000001)" >
      <polyline fill="none" stroke="#00ff00" stroke-width="0.5pt" stroke-dasharray="none" points="279.900,476.899 558.900,442.399 837.900,355.664 977.400,234.648 977.400,111.390 "/>
<g>
<circle cx="279.900" cy="476.899" r="3.000" fill="none" stroke="#00ff00" stroke-width="0.5pt" />
<circle cx="558.900" cy="442.399" r="3.000" fill="none" stroke="#00ff00" stroke-width="0.5pt" />
<circle cx="837.900" cy="355.664" r="3.000" fill="none" stroke="#00ff00" stroke-width="0.5pt" />
<circle cx="977.400" cy="234.648" r="3.000" fill="none" stroke="#00ff00" stroke-width="0.5pt" />
<circle cx="977.400" cy="111.390" r="3.000" fill="none" stroke="#00ff00" stroke-width="0.5pt" />
</g>
</g>
<g id="ID000005" clip-path="url(#ID000001)" >
      <polyline fill="none" stroke="#000000" stroke-width="0.5pt" stroke-dasharray="none" points="419.400,477.494 698.400,446.089 837.900,379.465 698.400,293.035 837.900,196.742 "/>
<g>
<circle cx="419.400" cy="477.494" r="3.000" fill="none" stroke="#000000" stroke-width="0.5pt" />
<circle cx="698.400" cy="446.089" r="3.000" fill="none" stroke="#000000" stroke-width="0.5pt" />
<circle cx="837.900" cy="379.465" r="3.000" fill="none" stroke="#000000" stroke-width="0.5pt" />
<circle cx="698.400" cy="293.035" r="3.000" fill="none" stroke="#000000" stroke-width="0.5pt" />
<circle cx="837.900" cy="196.742" r="3.000" fill="none" stroke="#000000" stroke-width="0.5pt" />
</g>
</g>
<g id="ID000006" >
  <g transform="translate(557.900,512.605)">
    <g transform="rotate(-0.0)">
      <text x="0.000" y="0.000" font-family="Helvetica" text-anchor="middle" font-size="10pt" fill="#000000" >A matrix (m x 0.4m)</text>
    </g>
  </g>
</g>
<g id="ID000007" >
  <g transform="translate(112.400,262.050)">
    <g transform="rotate(-90.0)">
      <text x="0.000" y="0.000" font-family="Helvetica" text-anchor="middle" font-size="10pt" fill="#000000" >time (s)</text>
    </g>
  </g>
</g>
<g id="ID000008" >
  <g transform="translate(558.900,32.499)">
    <g transform="rotate(-0.0)">
      <text x="0.000" y="0.000" font-family="Helvetica" text-anchor="middle" font-size="10pt" fill="#000000" >Ratio: 4</text>
    </g>
  </g>
</g>
<g id="ID000009" >
</g>
<g id="ID000010" >
</g>
    </g>
    <g>
      <polyline fill="none" stroke="#000000" stroke-width="0.5pt" stroke-dasharray="none" points="419.400,480.600 419.400,472.230 "/>
      <polyline fill="none" stroke="#000000" stroke-width="0.5pt" stroke-dasharray="none" points="698.400,480.600 698.400,472.230 "/>
      <polyline fill="none" stroke="#000000" stroke-width="0.5pt" stroke-dasharray="none" points="140.400,480.600 977.400,480.600 "/>
  <g transform="translate(140.400,501.202)">
    <g transform="rotate(-0.0)">
      <text x="0.000" y="0.000" font-family="Helvetica" text-anchor="middle" font-size="10pt" fill="#000000" >3500</text>
    </g>
  </g>
  <g transform="translate(419.400,501.202)">
    <g transform="rotate(-0.0)">
      <text x="0.000" y="0.000" font-family="Helvetica" text-anchor="middle" font-size="10pt" fill="#000000" >4000</text>
    </g>
  </g>
  <g transform="translate(698.400,501.202)">
    <g transform="rotate(-0.0)">
      <text x="0.000" y="0.000" font-family="Helvetica" text-anchor="middle" font-size="10pt" fill="#000000" >4500</text>
    </g>
  </g>
  <g transform="translate(977.400,501.202)">
    <g transform="rotate(-0.0)">
      <text x="0.000" y="0.000" font-family="Helvetica" text-anchor="middle" font-size="10pt" fill="#000000" >5000</text>
    </g>
  </g>
      <polyline fill="none" stroke="#000000" stroke-width="0.5pt" stroke-dasharray="none" points="140.400,436.590 148.770,436.590 "/>
      <polyline fill="none" stroke="#000000" stroke-width="0.5pt" stroke-dasharray="none" points="140.400,392.580 148.770,392.580 "/>
      <polyline fill="none" stroke="#000000" stroke-width="0.5pt" stroke-dasharray="none" points="140.400,348.570 148.770,348.570 "/>
      <polyline fill="none" stroke="#000000" stroke-width="0.5pt" stroke-dasharray="none" points="140.400,304.560 148.770,304.560 "/>
      <polyline fill="none" stroke="#000000" stroke-width="0.5pt" stroke-dasharray="none" points="140.400,260.550 148.770,260.550 "/>
      <polyline fill="none" stroke="#000000" stroke-width="0.5pt" stroke-dasharray="none" points="140.400,216.540 148.770,216.540 "/>
      <polyline fill="none" stroke="#000000" stroke-width="0.5pt" stroke-dasharray="none" points="140.400,172.530 148.770,172.530 "/>
      <polyline fill="none" stroke="#000000" stroke-width="0.5pt" stroke-dasharray="none" points="140.400,128.520 148.770,128.520 "/>
      <polyline fill="none" stroke="#000000" stroke-width="0.5pt" stroke-dasharray="none" points="140.400,84.510 148.770,84.510 "/>
      <polyline fill="none" stroke="#000000" stroke-width="0.5pt" stroke-dasharray="none" points="140.400,480.600 140.400,40.500 "/>
  <g transform="translate(123.660,485.100)">
    <g transform="rotate(-0.0)">
      <text x="0.000" y="0.000" font-family="Helvetica" text-anchor="end" font-size="10pt" fill="#000000" >1</text>
    </g>
  </g>
  <g transform="translate(123.660,441.090)">
    <g transform="rotate(-0.0)">
      <text x="0.000" y="0.000" font-family="Helvetica" text-anchor="end" font-size="10pt" fill="#000000" >2</text>
    </g>
  </g>
  <g transform="translate(123.660,397.080)">
    <g transform="rotate(-0.0)">
      <text x="0.000" y="0.000" font-family="Helvetica" text-anchor="end" font-size="10pt" fill="#000000" >3</text>
    </g>
  </g>
  <g transform="translate(123.660,353.070)">
    <g transform="rotate(-0.0)">
      <text x="0.000" y="0.000" font-family="Helvetica" text-anchor="end" font-size="10pt" fill="#000000" >4</text>
    </g>
  </g>
  <g transform="translate(123.660,309.060)">
    <g transform="rotate(-0.0)">
      <text x="0.000" y="0.000" font-family="Helvetica" text-anchor="end" font-size="10pt" fill="#000000" >5</text>
    </g>
  </g>
  <g transform="translate(123.660,265.050)">
    <g transform="rotate(-0.0)">
      <text x="0.000" y="0.000" font-family="Helvetica" text-anchor="end" font-size="10pt" fill="#000000" >6</text>
    </g>
  </g>
  <g transform="translate(123.660,221.040)">
    <g transform="rotate(-0.0)">
      <text x="0.000" y="0.000" font-family="Helvetica" text-anchor="end" font-size="10pt" fill="#000000" >7</text>
    </g>
  </g>
  <g transform="translate(123.660,177.030)">
    <g transform="rotate(-0.0)">
      <text x="0.000" y="0.000" font-family="Helvetica" text-anchor="end" font-size="10pt" fill="#000000" >8</text>
    </g>
  </g>
  <g transform="translate(123.660,133.020)">
    <g transform="rotate(-0.0)">
      <text x="0.000" y="0.000" font-family="Helvetica" text-anchor="end" font-size="10pt" fill="#000000" >9</text>
    </g>
  </g>
  <g transform="translate(123.660,89.010)">
    <g transform="rotate(-0.0)">
      <text x="0.000" y="0.000" font-family="Helvetica" text-anchor="end" font-size="10pt" fill="#000000" >10</text>
    </g>
  </g>
  <g transform="translate(123.660,45.000)">
    <g transform="rotate(-0.0)">
      <text x="0.000" y="0.000" font-family="Helvetica" text-anchor="end" font-size="10pt" fill="#000000" >11</text>
    </g>
  </g>
      <polyline fill="none" stroke="#000000" stroke-width="0.5pt" stroke-dasharray="none" points="140.400,480.600 140.400,476.199 "/>
      <polyline fill="none" stroke="#000000" stroke-width="0.5pt" stroke-dasharray="none" points="140.400,480.600 140.400,480.600 "/>
    </g>
  </g>
  <g id ="ID000011">
  <clipPath id="ID000012">
    <rect x="146.750" y="47.750" width="113.500" height="70.875"/>
  </clipPath>
      <polygon fill="#ffffff" fill-opacity="1.00" stroke="none" stroke-width="0.5pt" stroke-opacity="1.00" stroke-dasharray="none" points="146.750,118.625 260.250,118.625 260.250,47.750 146.750,47.750 "/>
      <polygon fill="#ffffff" fill-opacity="1.00" stroke="none" stroke-width="0.5pt" stroke-opacity="1.00" stroke-dasharray="none" points="146.750,47.750 260.250,47.750 260.250,47.750 146.750,47.750 "/>
      <polygon fill="#ffffff" fill-opacity="1.00" stroke="none" stroke-width="0.5pt" stroke-opacity="1.00" stroke-dasharray="none" points="146.750,118.625 146.750,118.625 146.750,47.750 146.750,47.750 "/>
    <g>
<g id="ID000013" >
  <g transform="translate(196.469,63.730)">
    <g transform="rotate(-0.0)">
      <text x="0.000" y="0.000" font-family="Helvetica" text-anchor="start" font-size="10pt" fill="#000000" >Tol:0.0001</text>
    </g>
  </g>
</g>
<g id="ID000014" clip-path="url(#ID000012)" >
      <polyline fill="none" stroke="#ff0000" stroke-width="0.5pt" stroke-dasharray="none" points="154.250,58.250 191.750,58.250 "/>
<g>
</g>
</g>
<g id="ID000015" clip-path="url(#ID000012)" >
<g>
<circle cx="173.000" cy="58.250" r="3.000" fill="none" stroke="#ff0000" stroke-width="0.5pt" />
</g>
</g>
<g id="ID000016" >
  <g transform="translate(196.469,80.700)">
    <g transform="rotate(-0.0)">
      <text x="0.000" y="0.000" font-family="Helvetica" text-anchor="start" font-size="10pt" fill="#000000" >Tol:0.001</text>
    </g>
  </g>
</g>
<g id="ID000017" clip-path="url(#ID000012)" >
      <polyline fill="none" stroke="#0000ff" stroke-width="0.5pt" stroke-dasharray="none" points="154.250,74.875 191.750,74.875 "/>
<g>
</g>
</g>
<g id="ID000018" clip-path="url(#ID000012)" >
<g>
<circle cx="173.000" cy="74.875" r="3.000" fill="none" stroke="#0000ff" stroke-width="0.5pt" />
</g>
</g>
<g id="ID000019" >
  <g transform="translate(196.469,96.672)">
    <g transform="rotate(-0.0)">
      <text x="0.000" y="0.000" font-family="Helvetica" text-anchor="start" font-size="10pt" fill="#000000" >Tol:0.01</text>
    </g>
  </g>
</g>
<g id="ID000020" clip-path="url(#ID000012)" >
      <polyline fill="none" stroke="#00ff00" stroke-width="0.5pt" stroke-dasharray="none" points="154.250,91.500 191.750,91.500 "/>
<g>
</g>
</g>
<g id="ID000021" clip-path="url(#ID000012)" >
<g>
<circle cx="173.000" cy="91.500" r="3.000" fill="none" stroke="#00ff00" stroke-width="0.5pt" />
</g>
</g>
<g id="ID000022" >
  <g transform="translate(196.469,113.642)">
    <g transform="rotate(-0.0)">
      <text x="0.000" y="0.000" font-family="Helvetica" text-anchor="start" font-size="10pt" fill="#000000" >Tol:0.1</text>
    </g>
  </g>
</g>
<g id="ID000023" clip-path="url(#ID000012)" >
      <polyline fill="none" stroke="#000000" stroke-width="0.5pt" stroke-dasharray="none" points="154.250,108.125 191.750,108.125 "/>
<g>
</g>
</g>
<g id="ID000024" clip-path="url(#ID000012)" >
<g>
<circle cx="173.000" cy="108.125" r="3.000" fill="none" stroke="#000000" stroke-width="0.5pt" />
</g>
</g>
<g id="ID000025" >
</g>
<g id="ID000026" >
</g>
<g id="ID000027" >
</g>
    </g>
    <g>
      <polyline fill="none" stroke="#000000" stroke-width="0.5pt" stroke-dasharray="none" points="146.750,118.625 260.250,118.625 "/>
      <polyline fill="none" stroke="#000000" stroke-width="0.5pt" stroke-dasharray="none" points="146.750,47.750 260.250,47.750 "/>
      <polyline fill="none" stroke="#000000" stroke-width="0.5pt" stroke-dasharray="none" points="146.750,118.625 146.750,47.750 "/>
      <polyline fill="none" stroke="#000000" stroke-width="0.5pt" stroke-dasharray="none" points="260.250,118.625 260.250,47.750 "/>
      <polyline fill="none" stroke="#000000" stroke-width="0.5pt" stroke-dasharray="none" points="146.750,118.625 146.750,117.916 "/>
      <polyline fill="none" stroke="#000000" stroke-width="0.5pt" stroke-dasharray="none" points="146.750,118.625 146.750,118.625 "/>
    </g>
  </g>
  </g>
</svg>
