<?xml version="1.0" encoding="utf-8" standalone="no"?><!DOCTYPE svg PUBLIC "-//W3C//DTD SVG 1.1//EN" "http://www.w3.org/Graphics/SVG/1.1/DTD/svg11.dtd">
<svg preserveAspectRatio="xMinYMin meet" width="100%" height="100%" viewBox="0 0 1080.000 540.000"  version="1.1" xmlns="http://www.w3.org/2000/svg" xmlns:xlink="http://www.w3.org/1999/xlink">
  <desc>Matlab Figure Converted by PLOT2SVG written by Juerg Schwizer</desc>
  <g id="topgroup">
  <rect x="0" y="0" width="1080.000" height="540.000" fill="#ffffff" stroke="none" />
  <g id ="ID000000">
  <clipPath id="ID000001">
    <rect x="140.400" y="40.500" width="837.000" height="440.100"/>
  </clipPath>
      <polygon fill="#ffffff" fill-opacity="1.00" stroke="none" stroke-width="0.5pt" stroke-opacity="1.00" stroke-dasharray="none" points="140.400,480.600 977.400,480.600 977.400,40.500 140.400,40.500 "/>
      <polygon fill="#ffffff" fill-opacity="1.00" stroke="none" stroke-width="0.5pt" stroke-opacity="1.00" stroke-dasharray="none" points="140.400,40.500 977.400,40.500 977.400,40.500 140.400,40.500 "/>
      <polygon fill="#ffffff" fill-opacity="1.00" stroke="none" stroke-width="0.5pt" stroke-opacity="1.00" stroke-dasharray="none" points="140.400,480.600 140.400,480.600 140.400,40.500 140.400,40.500 "/>
    <g>
<g id="ID000002" clip-path="url(#ID000001)" >
      <polyline fill="none" stroke="#0000ff" stroke-width="0.5pt" stroke-dasharray="none" points="140.400,413.388 175.275,401.940 210.150,396.033 245.025,389.974 279.900,386.312 314.775,383.487 349.650,324.708 384.525,320.374 419.400,319.474 454.275,310.102 489.150,304.782 524.025,292.729 558.900,293.546 593.775,283.244 628.650,279.017 663.525,273.680 698.400,265.372 733.275,256.977 768.150,249.542 803.025,245.144 837.900,240.835 872.775,228.377 907.650,228.578 942.525,223.587 977.400,218.403 "/>
<g>
      <polyline fill="#0000ff" fill-opacity="1.00" stroke="#0000ff" stroke-width="0.5pt" stroke-opacity="1.00" stroke-dasharray="none" points="137.600,416.188 143.200,410.588 "/>
      <polyline fill="#0000ff" fill-opacity="1.00" stroke="#0000ff" stroke-width="0.5pt" stroke-opacity="1.00" stroke-dasharray="none" points="137.600,410.588 143.200,416.188 "/>
      <polyline fill="#0000ff" fill-opacity="1.00" stroke="#0000ff" stroke-width="0.5pt" stroke-opacity="1.00" stroke-dasharray="none" points="172.475,404.740 178.075,399.140 "/>
      <polyline fill="#0000ff" fill-opacity="1.00" stroke="#0000ff" stroke-width="0.5pt" stroke-opacity="1.00" stroke-dasharray="none" points="172.475,399.140 178.075,404.740 "/>
      <polyline fill="#0000ff" fill-opacity="1.00" stroke="#0000ff" stroke-width="0.5pt" stroke-opacity="1.00" stroke-dasharray="none" points="207.350,398.833 212.950,393.233 "/>
      <polyline fill="#0000ff" fill-opacity="1.00" stroke="#0000ff" stroke-width="0.5pt" stroke-opacity="1.00" stroke-dasharray="none" points="207.350,393.233 212.950,398.833 "/>
      <polyline fill="#0000ff" fill-opacity="1.00" stroke="#0000ff" stroke-width="0.5pt" stroke-opacity="1.00" stroke-dasharray="none" points="242.225,392.774 247.825,387.174 "/>
      <polyline fill="#0000ff" fill-opacity="1.00" stroke="#0000ff" stroke-width="0.5pt" stroke-opacity="1.00" stroke-dasharray="none" points="242.225,387.174 247.825,392.774 "/>
      <polyline fill="#0000ff" fill-opacity="1.00" stroke="#0000ff" stroke-width="0.5pt" stroke-opacity="1.00" stroke-dasharray="none" points="277.100,389.112 282.700,383.512 "/>
      <polyline fill="#0000ff" fill-opacity="1.00" stroke="#0000ff" stroke-width="0.5pt" stroke-opacity="1.00" stroke-dasharray="none" points="277.100,383.512 282.700,389.112 "/>
      <polyline fill="#0000ff" fill-opacity="1.00" stroke="#0000ff" stroke-width="0.5pt" stroke-opacity="1.00" stroke-dasharray="none" points="311.975,386.287 317.575,380.687 "/>
      <polyline fill="#0000ff" fill-opacity="1.00" stroke="#0000ff" stroke-width="0.5pt" stroke-opacity="1.00" stroke-dasharray="none" points="311.975,380.687 317.575,386.287 "/>
      <polyline fill="#0000ff" fill-opacity="1.00" stroke="#0000ff" stroke-width="0.5pt" stroke-opacity="1.00" stroke-dasharray="none" points="346.850,327.508 352.450,321.908 "/>
      <polyline fill="#0000ff" fill-opacity="1.00" stroke="#0000ff" stroke-width="0.5pt" stroke-opacity="1.00" stroke-dasharray="none" points="346.850,321.908 352.450,327.508 "/>
      <polyline fill="#0000ff" fill-opacity="1.00" stroke="#0000ff" stroke-width="0.5pt" stroke-opacity="1.00" stroke-dasharray="none" points="381.725,323.174 387.325,317.574 "/>
      <polyline fill="#0000ff" fill-opacity="1.00" stroke="#0000ff" stroke-width="0.5pt" stroke-opacity="1.00" stroke-dasharray="none" points="381.725,317.574 387.325,323.174 "/>
      <polyline fill="#0000ff" fill-opacity="1.00" stroke="#0000ff" stroke-width="0.5pt" stroke-opacity="1.00" stroke-dasharray="none" points="416.600,322.274 422.200,316.674 "/>
      <polyline fill="#0000ff" fill-opacity="1.00" stroke="#0000ff" stroke-width="0.5pt" stroke-opacity="1.00" stroke-dasharray="none" points="416.600,316.674 422.200,322.274 "/>
      <polyline fill="#0000ff" fill-opacity="1.00" stroke="#0000ff" stroke-width="0.5pt" stroke-opacity="1.00" stroke-dasharray="none" points="451.475,312.902 457.075,307.302 "/>
      <polyline fill="#0000ff" fill-opacity="1.00" stroke="#0000ff" stroke-width="0.5pt" stroke-opacity="1.00" stroke-dasharray="none" points="451.475,307.302 457.075,312.902 "/>
      <polyline fill="#0000ff" fill-opacity="1.00" stroke="#0000ff" stroke-width="0.5pt" stroke-opacity="1.00" stroke-dasharray="none" points="486.350,307.582 491.950,301.982 "/>
      <polyline fill="#0000ff" fill-opacity="1.00" stroke="#0000ff" stroke-width="0.5pt" stroke-opacity="1.00" stroke-dasharray="none" points="486.350,301.982 491.950,307.582 "/>
      <polyline fill="#0000ff" fill-opacity="1.00" stroke="#0000ff" stroke-width="0.5pt" stroke-opacity="1.00" stroke-dasharray="none" points="521.225,295.529 526.825,289.929 "/>
      <polyline fill="#0000ff" fill-opacity="1.00" stroke="#0000ff" stroke-width="0.5pt" stroke-opacity="1.00" stroke-dasharray="none" points="521.225,289.929 526.825,295.529 "/>
      <polyline fill="#0000ff" fill-opacity="1.00" stroke="#0000ff" stroke-width="0.5pt" stroke-opacity="1.00" stroke-dasharray="none" points="556.100,296.346 561.700,290.746 "/>
      <polyline fill="#0000ff" fill-opacity="1.00" stroke="#0000ff" stroke-width="0.5pt" stroke-opacity="1.00" stroke-dasharray="none" points="556.100,290.746 561.700,296.346 "/>
      <polyline fill="#0000ff" fill-opacity="1.00" stroke="#0000ff" stroke-width="0.5pt" stroke-opacity="1.00" stroke-dasharray="none" points="590.975,286.044 596.575,280.444 "/>
      <polyline fill="#0000ff" fill-opacity="1.00" stroke="#0000ff" stroke-width="0.5pt" stroke-opacity="1.00" stroke-dasharray="none" points="590.975,280.444 596.575,286.044 "/>
      <polyline fill="#0000ff" fill-opacity="1.00" stroke="#0000ff" stroke-width="0.5pt" stroke-opacity="1.00" stroke-dasharray="none" points="625.850,281.817 631.450,276.217 "/>
      <polyline fill="#0000ff" fill-opacity="1.00" stroke="#0000ff" stroke-width="0.5pt" stroke-opacity="1.00" stroke-dasharray="none" points="625.850,276.217 631.450,281.817 "/>
      <polyline fill="#0000ff" fill-opacity="1.00" stroke="#0000ff" stroke-width="0.5pt" stroke-opacity="1.00" stroke-dasharray="none" points="660.725,276.480 666.325,270.880 "/>
      <polyline fill="#0000ff" fill-opacity="1.00" stroke="#0000ff" stroke-width="0.5pt" stroke-opacity="1.00" stroke-dasharray="none" points="660.725,270.880 666.325,276.480 "/>
      <polyline fill="#0000ff" fill-opacity="1.00" stroke="#0000ff" stroke-width="0.5pt" stroke-opacity="1.00" stroke-dasharray="none" points="695.600,268.172 701.200,262.572 "/>
      <polyline fill="#0000ff" fill-opacity="1.00" stroke="#0000ff" stroke-width="0.5pt" stroke-opacity="1.00" stroke-dasharray="none" points="695.600,262.572 701.200,268.172 "/>
      <polyline fill="#0000ff" fill-opacity="1.00" stroke="#0000ff" stroke-width="0.5pt" stroke-opacity="1.00" stroke-dasharray="none" points="730.475,259.777 736.075,254.177 "/>
      <polyline fill="#0000ff" fill-opacity="1.00" stroke="#0000ff" stroke-width="0.5pt" stroke-opacity="1.00" stroke-dasharray="none" points="730.475,254.177 736.075,259.777 "/>
      <polyline fill="#0000ff" fill-opacity="1.00" stroke="#0000ff" stroke-width="0.5pt" stroke-opacity="1.00" stroke-dasharray="none" points="765.350,252.342 770.950,246.742 "/>
      <polyline fill="#0000ff" fill-opacity="1.00" stroke="#0000ff" stroke-width="0.5pt" stroke-opacity="1.00" stroke-dasharray="none" points="765.350,246.742 770.950,252.342 "/>
      <polyline fill="#0000ff" fill-opacity="1.00" stroke="#0000ff" stroke-width="0.5pt" stroke-opacity="1.00" stroke-dasharray="none" points="800.225,247.944 805.825,242.344 "/>
      <polyline fill="#0000ff" fill-opacity="1.00" stroke="#0000ff" stroke-width="0.5pt" stroke-opacity="1.00" stroke-dasharray="none" points="800.225,242.344 805.825,247.944 "/>
      <polyline fill="#0000ff" fill-opacity="1.00" stroke="#0000ff" stroke-width="0.5pt" stroke-opacity="1.00" stroke-dasharray="none" points="835.100,243.635 840.700,238.035 "/>
      <polyline fill="#0000ff" fill-opacity="1.00" stroke="#0000ff" stroke-width="0.5pt" stroke-opacity="1.00" stroke-dasharray="none" points="835.100,238.035 840.700,243.635 "/>
      <polyline fill="#0000ff" fill-opacity="1.00" stroke="#0000ff" stroke-width="0.5pt" stroke-opacity="1.00" stroke-dasharray="none" points="869.975,231.177 875.575,225.577 "/>
      <polyline fill="#0000ff" fill-opacity="1.00" stroke="#0000ff" stroke-width="0.5pt" stroke-opacity="1.00" stroke-dasharray="none" points="869.975,225.577 875.575,231.177 "/>
      <polyline fill="#0000ff" fill-opacity="1.00" stroke="#0000ff" stroke-width="0.5pt" stroke-opacity="1.00" stroke-dasharray="none" points="904.850,231.378 910.450,225.778 "/>
      <polyline fill="#0000ff" fill-opacity="1.00" stroke="#0000ff" stroke-width="0.5pt" stroke-opacity="1.00" stroke-dasharray="none" points="904.850,225.778 910.450,231.378 "/>
      <polyline fill="#0000ff" fill-opacity="1.00" stroke="#0000ff" stroke-width="0.5pt" stroke-opacity="1.00" stroke-dasharray="none" points="939.725,226.387 945.325,220.787 "/>
      <polyline fill="#0000ff" fill-opacity="1.00" stroke="#0000ff" stroke-width="0.5pt" stroke-opacity="1.00" stroke-dasharray="none" points="939.725,220.787 945.325,226.387 "/>
      <polyline fill="#0000ff" fill-opacity="1.00" stroke="#0000ff" stroke-width="0.5pt" stroke-opacity="1.00" stroke-dasharray="none" points="974.600,221.203 980.200,215.603 "/>
      <polyline fill="#0000ff" fill-opacity="1.00" stroke="#0000ff" stroke-width="0.5pt" stroke-opacity="1.00" stroke-dasharray="none" points="974.600,215.603 980.200,221.203 "/>
</g>
</g>
<g id="ID000003" clip-path="url(#ID000001)" >
      <polyline fill="none" stroke="#00ff00" stroke-width="0.5pt" stroke-dasharray="none" points="140.400,464.831 175.275,456.616 210.150,455.488 245.025,446.744 279.900,445.622 314.775,439.787 349.650,430.399 384.525,426.988 419.400,420.750 454.275,414.174 489.150,407.306 524.025,391.564 558.900,386.368 593.775,360.367 628.650,342.394 663.525,323.364 698.400,299.186 733.275,261.111 768.150,225.608 803.025,199.341 837.900,178.349 872.775,123.028 907.650,102.372 942.525,65.466 977.400,43.860 "/>
<g>
      <polyline fill="#00ff00" fill-opacity="1.00" stroke="#00ff00" stroke-width="0.5pt" stroke-opacity="1.00" stroke-dasharray="none" points="136.400,464.831 144.400,464.831 "/>
      <polyline fill="#00ff00" fill-opacity="1.00" stroke="#00ff00" stroke-width="0.5pt" stroke-opacity="1.00" stroke-dasharray="none" points="140.400,460.831 140.400,468.831 "/>
      <polyline fill="#00ff00" fill-opacity="1.00" stroke="#00ff00" stroke-width="0.5pt" stroke-opacity="1.00" stroke-dasharray="none" points="171.275,456.616 179.275,456.616 "/>
      <polyline fill="#00ff00" fill-opacity="1.00" stroke="#00ff00" stroke-width="0.5pt" stroke-opacity="1.00" stroke-dasharray="none" points="175.275,452.616 175.275,460.616 "/>
      <polyline fill="#00ff00" fill-opacity="1.00" stroke="#00ff00" stroke-width="0.5pt" stroke-opacity="1.00" stroke-dasharray="none" points="206.150,455.488 214.150,455.488 "/>
      <polyline fill="#00ff00" fill-opacity="1.00" stroke="#00ff00" stroke-width="0.5pt" stroke-opacity="1.00" stroke-dasharray="none" points="210.150,451.488 210.150,459.488 "/>
      <polyline fill="#00ff00" fill-opacity="1.00" stroke="#00ff00" stroke-width="0.5pt" stroke-opacity="1.00" stroke-dasharray="none" points="241.025,446.744 249.025,446.744 "/>
      <polyline fill="#00ff00" fill-opacity="1.00" stroke="#00ff00" stroke-width="0.5pt" stroke-opacity="1.00" stroke-dasharray="none" points="245.025,442.744 245.025,450.744 "/>
      <polyline fill="#00ff00" fill-opacity="1.00" stroke="#00ff00" stroke-width="0.5pt" stroke-opacity="1.00" stroke-dasharray="none" points="275.900,445.622 283.900,445.622 "/>
      <polyline fill="#00ff00" fill-opacity="1.00" stroke="#00ff00" stroke-width="0.5pt" stroke-opacity="1.00" stroke-dasharray="none" points="279.900,441.622 279.900,449.622 "/>
      <polyline fill="#00ff00" fill-opacity="1.00" stroke="#00ff00" stroke-width="0.5pt" stroke-opacity="1.00" stroke-dasharray="none" points="310.775,439.787 318.775,439.787 "/>
      <polyline fill="#00ff00" fill-opacity="1.00" stroke="#00ff00" stroke-width="0.5pt" stroke-opacity="1.00" stroke-dasharray="none" points="314.775,435.787 314.775,443.787 "/>
      <polyline fill="#00ff00" fill-opacity="1.00" stroke="#00ff00" stroke-width="0.5pt" stroke-opacity="1.00" stroke-dasharray="none" points="345.650,430.399 353.650,430.399 "/>
      <polyline fill="#00ff00" fill-opacity="1.00" stroke="#00ff00" stroke-width="0.5pt" stroke-opacity="1.00" stroke-dasharray="none" points="349.650,426.399 349.650,434.399 "/>
      <polyline fill="#00ff00" fill-opacity="1.00" stroke="#00ff00" stroke-width="0.5pt" stroke-opacity="1.00" stroke-dasharray="none" points="380.525,426.988 388.525,426.988 "/>
      <polyline fill="#00ff00" fill-opacity="1.00" stroke="#00ff00" stroke-width="0.5pt" stroke-opacity="1.00" stroke-dasharray="none" points="384.525,422.988 384.525,430.988 "/>
      <polyline fill="#00ff00" fill-opacity="1.00" stroke="#00ff00" stroke-width="0.5pt" stroke-opacity="1.00" stroke-dasharray="none" points="415.400,420.750 423.400,420.750 "/>
      <polyline fill="#00ff00" fill-opacity="1.00" stroke="#00ff00" stroke-width="0.5pt" stroke-opacity="1.00" stroke-dasharray="none" points="419.400,416.750 419.400,424.750 "/>
      <polyline fill="#00ff00" fill-opacity="1.00" stroke="#00ff00" stroke-width="0.5pt" stroke-opacity="1.00" stroke-dasharray="none" points="450.275,414.174 458.275,414.174 "/>
      <polyline fill="#00ff00" fill-opacity="1.00" stroke="#00ff00" stroke-width="0.5pt" stroke-opacity="1.00" stroke-dasharray="none" points="454.275,410.174 454.275,418.174 "/>
      <polyline fill="#00ff00" fill-opacity="1.00" stroke="#00ff00" stroke-width="0.5pt" stroke-opacity="1.00" stroke-dasharray="none" points="485.150,407.306 493.150,407.306 "/>
      <polyline fill="#00ff00" fill-opacity="1.00" stroke="#00ff00" stroke-width="0.5pt" stroke-opacity="1.00" stroke-dasharray="none" points="489.150,403.306 489.150,411.306 "/>
      <polyline fill="#00ff00" fill-opacity="1.00" stroke="#00ff00" stroke-width="0.5pt" stroke-opacity="1.00" stroke-dasharray="none" points="520.025,391.564 528.025,391.564 "/>
      <polyline fill="#00ff00" fill-opacity="1.00" stroke="#00ff00" stroke-width="0.5pt" stroke-opacity="1.00" stroke-dasharray="none" points="524.025,387.564 524.025,395.564 "/>
      <polyline fill="#00ff00" fill-opacity="1.00" stroke="#00ff00" stroke-width="0.5pt" stroke-opacity="1.00" stroke-dasharray="none" points="554.900,386.368 562.900,386.368 "/>
      <polyline fill="#00ff00" fill-opacity="1.00" stroke="#00ff00" stroke-width="0.5pt" stroke-opacity="1.00" stroke-dasharray="none" points="558.900,382.368 558.900,390.368 "/>
      <polyline fill="#00ff00" fill-opacity="1.00" stroke="#00ff00" stroke-width="0.5pt" stroke-opacity="1.00" stroke-dasharray="none" points="589.775,360.367 597.775,360.367 "/>
      <polyline fill="#00ff00" fill-opacity="1.00" stroke="#00ff00" stroke-width="0.5pt" stroke-opacity="1.00" stroke-dasharray="none" points="593.775,356.367 593.775,364.367 "/>
      <polyline fill="#00ff00" fill-opacity="1.00" stroke="#00ff00" stroke-width="0.5pt" stroke-opacity="1.00" stroke-dasharray="none" points="624.650,342.394 632.650,342.394 "/>
      <polyline fill="#00ff00" fill-opacity="1.00" stroke="#00ff00" stroke-width="0.5pt" stroke-opacity="1.00" stroke-dasharray="none" points="628.650,338.394 628.650,346.394 "/>
      <polyline fill="#00ff00" fill-opacity="1.00" stroke="#00ff00" stroke-width="0.5pt" stroke-opacity="1.00" stroke-dasharray="none" points="659.525,323.364 667.525,323.364 "/>
      <polyline fill="#00ff00" fill-opacity="1.00" stroke="#00ff00" stroke-width="0.5pt" stroke-opacity="1.00" stroke-dasharray="none" points="663.525,319.364 663.525,327.364 "/>
      <polyline fill="#00ff00" fill-opacity="1.00" stroke="#00ff00" stroke-width="0.5pt" stroke-opacity="1.00" stroke-dasharray="none" points="694.400,299.186 702.400,299.186 "/>
      <polyline fill="#00ff00" fill-opacity="1.00" stroke="#00ff00" stroke-width="0.5pt" stroke-opacity="1.00" stroke-dasharray="none" points="698.400,295.186 698.400,303.186 "/>
      <polyline fill="#00ff00" fill-opacity="1.00" stroke="#00ff00" stroke-width="0.5pt" stroke-opacity="1.00" stroke-dasharray="none" points="729.275,261.111 737.275,261.111 "/>
      <polyline fill="#00ff00" fill-opacity="1.00" stroke="#00ff00" stroke-width="0.5pt" stroke-opacity="1.00" stroke-dasharray="none" points="733.275,257.111 733.275,265.111 "/>
      <polyline fill="#00ff00" fill-opacity="1.00" stroke="#00ff00" stroke-width="0.5pt" stroke-opacity="1.00" stroke-dasharray="none" points="764.150,225.608 772.150,225.608 "/>
      <polyline fill="#00ff00" fill-opacity="1.00" stroke="#00ff00" stroke-width="0.5pt" stroke-opacity="1.00" stroke-dasharray="none" points="768.150,221.608 768.150,229.608 "/>
      <polyline fill="#00ff00" fill-opacity="1.00" stroke="#00ff00" stroke-width="0.5pt" stroke-opacity="1.00" stroke-dasharray="none" points="799.025,199.341 807.025,199.341 "/>
      <polyline fill="#00ff00" fill-opacity="1.00" stroke="#00ff00" stroke-width="0.5pt" stroke-opacity="1.00" stroke-dasharray="none" points="803.025,195.341 803.025,203.341 "/>
      <polyline fill="#00ff00" fill-opacity="1.00" stroke="#00ff00" stroke-width="0.5pt" stroke-opacity="1.00" stroke-dasharray="none" points="833.900,178.349 841.900,178.349 "/>
      <polyline fill="#00ff00" fill-opacity="1.00" stroke="#00ff00" stroke-width="0.5pt" stroke-opacity="1.00" stroke-dasharray="none" points="837.900,174.349 837.900,182.349 "/>
      <polyline fill="#00ff00" fill-opacity="1.00" stroke="#00ff00" stroke-width="0.5pt" stroke-opacity="1.00" stroke-dasharray="none" points="868.775,123.028 876.775,123.028 "/>
      <polyline fill="#00ff00" fill-opacity="1.00" stroke="#00ff00" stroke-width="0.5pt" stroke-opacity="1.00" stroke-dasharray="none" points="872.775,119.028 872.775,127.028 "/>
      <polyline fill="#00ff00" fill-opacity="1.00" stroke="#00ff00" stroke-width="0.5pt" stroke-opacity="1.00" stroke-dasharray="none" points="903.650,102.372 911.650,102.372 "/>
      <polyline fill="#00ff00" fill-opacity="1.00" stroke="#00ff00" stroke-width="0.5pt" stroke-opacity="1.00" stroke-dasharray="none" points="907.650,98.372 907.650,106.372 "/>
      <polyline fill="#00ff00" fill-opacity="1.00" stroke="#00ff00" stroke-width="0.5pt" stroke-opacity="1.00" stroke-dasharray="none" points="938.525,65.466 946.525,65.466 "/>
      <polyline fill="#00ff00" fill-opacity="1.00" stroke="#00ff00" stroke-width="0.5pt" stroke-opacity="1.00" stroke-dasharray="none" points="942.525,61.466 942.525,69.466 "/>
      <polyline fill="#00ff00" fill-opacity="1.00" stroke="#00ff00" stroke-width="0.5pt" stroke-opacity="1.00" stroke-dasharray="none" points="973.400,43.860 981.400,43.860 "/>
      <polyline fill="#00ff00" fill-opacity="1.00" stroke="#00ff00" stroke-width="0.5pt" stroke-opacity="1.00" stroke-dasharray="none" points="977.400,39.860 977.400,47.860 "/>
</g>
</g>
<g id="ID000004" >
  <g transform="translate(112.400,262.050)">
    <g transform="rotate(-90.0)">
      <text x="0.000" y="0.000" font-family="Helvetica" text-anchor="middle" font-size="10pt" fill="#000000" >Elapsed time (s)</text>
    </g>
  </g>
</g>
<g id="ID000005" >
  <g transform="translate(557.900,512.605)">
    <g transform="rotate(-0.0)">
      <text x="0.000" y="0.000" font-family="Helvetica" text-anchor="middle" font-size="10pt" fill="#000000" >A matrix (m x 0.3m)</text>
    </g>
  </g>
</g>
<g id="ID000006" >
</g>
<g id="ID000007" >
</g>
<g id="ID000008" >
</g>
    </g>
    <g>
      <polyline fill="none" stroke="#000000" stroke-width="0.5pt" stroke-dasharray="none" points="279.900,480.600 279.900,472.230 "/>
      <polyline fill="none" stroke="#000000" stroke-width="0.5pt" stroke-dasharray="none" points="419.400,480.600 419.400,472.230 "/>
      <polyline fill="none" stroke="#000000" stroke-width="0.5pt" stroke-dasharray="none" points="558.900,480.600 558.900,472.230 "/>
      <polyline fill="none" stroke="#000000" stroke-width="0.5pt" stroke-dasharray="none" points="698.400,480.600 698.400,472.230 "/>
      <polyline fill="none" stroke="#000000" stroke-width="0.5pt" stroke-dasharray="none" points="837.900,480.600 837.900,472.230 "/>
      <polyline fill="none" stroke="#000000" stroke-width="0.5pt" stroke-dasharray="none" points="140.400,480.600 977.400,480.600 "/>
      <polyline fill="none" stroke="#000000" stroke-width="0.5pt" stroke-dasharray="none" points="279.900,40.500 279.900,48.870 "/>
      <polyline fill="none" stroke="#000000" stroke-width="0.5pt" stroke-dasharray="none" points="419.400,40.500 419.400,48.870 "/>
      <polyline fill="none" stroke="#000000" stroke-width="0.5pt" stroke-dasharray="none" points="558.900,40.500 558.900,48.870 "/>
      <polyline fill="none" stroke="#000000" stroke-width="0.5pt" stroke-dasharray="none" points="698.400,40.500 698.400,48.870 "/>
      <polyline fill="none" stroke="#000000" stroke-width="0.5pt" stroke-dasharray="none" points="837.900,40.500 837.900,48.870 "/>
      <polyline fill="none" stroke="#000000" stroke-width="0.5pt" stroke-dasharray="none" points="140.400,40.500 977.400,40.500 "/>
  <g transform="translate(140.400,501.202)">
    <g transform="rotate(-0.0)">
      <text x="0.000" y="0.000" font-family="Helvetica" text-anchor="middle" font-size="10pt" fill="#000000" >2000</text>
    </g>
  </g>
  <g transform="translate(279.900,501.202)">
    <g transform="rotate(-0.0)">
      <text x="0.000" y="0.000" font-family="Helvetica" text-anchor="middle" font-size="10pt" fill="#000000" >3000</text>
    </g>
  </g>
  <g transform="translate(419.400,501.202)">
    <g transform="rotate(-0.0)">
      <text x="0.000" y="0.000" font-family="Helvetica" text-anchor="middle" font-size="10pt" fill="#000000" >4000</text>
    </g>
  </g>
  <g transform="translate(558.900,501.202)">
    <g transform="rotate(-0.0)">
      <text x="0.000" y="0.000" font-family="Helvetica" text-anchor="middle" font-size="10pt" fill="#000000" >5000</text>
    </g>
  </g>
  <g transform="translate(698.400,501.202)">
    <g transform="rotate(-0.0)">
      <text x="0.000" y="0.000" font-family="Helvetica" text-anchor="middle" font-size="10pt" fill="#000000" >6000</text>
    </g>
  </g>
  <g transform="translate(837.900,501.202)">
    <g transform="rotate(-0.0)">
      <text x="0.000" y="0.000" font-family="Helvetica" text-anchor="middle" font-size="10pt" fill="#000000" >7000</text>
    </g>
  </g>
  <g transform="translate(977.400,501.202)">
    <g transform="rotate(-0.0)">
      <text x="0.000" y="0.000" font-family="Helvetica" text-anchor="middle" font-size="10pt" fill="#000000" >8000</text>
    </g>
  </g>
      <polyline fill="none" stroke="#000000" stroke-width="0.5pt" stroke-dasharray="none" points="140.400,407.250 148.770,407.250 "/>
      <polyline fill="none" stroke="#000000" stroke-width="0.5pt" stroke-dasharray="none" points="140.400,333.900 148.770,333.900 "/>
      <polyline fill="none" stroke="#000000" stroke-width="0.5pt" stroke-dasharray="none" points="140.400,260.550 148.770,260.550 "/>
      <polyline fill="none" stroke="#000000" stroke-width="0.5pt" stroke-dasharray="none" points="140.400,187.200 148.770,187.200 "/>
      <polyline fill="none" stroke="#000000" stroke-width="0.5pt" stroke-dasharray="none" points="140.400,113.850 148.770,113.850 "/>
      <polyline fill="none" stroke="#000000" stroke-width="0.5pt" stroke-dasharray="none" points="140.400,480.600 140.400,40.500 "/>
      <polyline fill="none" stroke="#000000" stroke-width="0.5pt" stroke-dasharray="none" points="977.400,407.250 969.030,407.250 "/>
      <polyline fill="none" stroke="#000000" stroke-width="0.5pt" stroke-dasharray="none" points="977.400,333.900 969.030,333.900 "/>
      <polyline fill="none" stroke="#000000" stroke-width="0.5pt" stroke-dasharray="none" points="977.400,260.550 969.030,260.550 "/>
      <polyline fill="none" stroke="#000000" stroke-width="0.5pt" stroke-dasharray="none" points="977.400,187.200 969.030,187.200 "/>
      <polyline fill="none" stroke="#000000" stroke-width="0.5pt" stroke-dasharray="none" points="977.400,113.850 969.030,113.850 "/>
      <polyline fill="none" stroke="#000000" stroke-width="0.5pt" stroke-dasharray="none" points="977.400,480.600 977.400,40.500 "/>
  <g transform="translate(123.660,485.100)">
    <g transform="rotate(-0.0)">
      <text x="0.000" y="0.000" font-family="Helvetica" text-anchor="end" font-size="10pt" fill="#000000" >0</text>
    </g>
  </g>
  <g transform="translate(123.660,411.750)">
    <g transform="rotate(-0.0)">
      <text x="0.000" y="0.000" font-family="Helvetica" text-anchor="end" font-size="10pt" fill="#000000" >2</text>
    </g>
  </g>
  <g transform="translate(123.660,338.400)">
    <g transform="rotate(-0.0)">
      <text x="0.000" y="0.000" font-family="Helvetica" text-anchor="end" font-size="10pt" fill="#000000" >4</text>
    </g>
  </g>
  <g transform="translate(123.660,265.050)">
    <g transform="rotate(-0.0)">
      <text x="0.000" y="0.000" font-family="Helvetica" text-anchor="end" font-size="10pt" fill="#000000" >6</text>
    </g>
  </g>
  <g transform="translate(123.660,191.700)">
    <g transform="rotate(-0.0)">
      <text x="0.000" y="0.000" font-family="Helvetica" text-anchor="end" font-size="10pt" fill="#000000" >8</text>
    </g>
  </g>
  <g transform="translate(123.660,118.350)">
    <g transform="rotate(-0.0)">
      <text x="0.000" y="0.000" font-family="Helvetica" text-anchor="end" font-size="10pt" fill="#000000" >10</text>
    </g>
  </g>
  <g transform="translate(123.660,45.000)">
    <g transform="rotate(-0.0)">
      <text x="0.000" y="0.000" font-family="Helvetica" text-anchor="end" font-size="10pt" fill="#000000" >12</text>
    </g>
  </g>
      <polyline fill="none" stroke="#000000" stroke-width="0.5pt" stroke-dasharray="none" points="140.400,480.600 140.400,476.199 "/>
      <polyline fill="none" stroke="#000000" stroke-width="0.5pt" stroke-dasharray="none" points="140.400,480.600 140.400,480.600 "/>
    </g>
  </g>
  <g id ="ID000009">
  <clipPath id="ID000010">
    <rect x="146.750" y="47.750" width="76.500" height="37.625"/>
  </clipPath>
      <polygon fill="#ffffff" fill-opacity="1.00" stroke="none" stroke-width="0.5pt" stroke-opacity="1.00" stroke-dasharray="none" points="146.750,85.375 223.250,85.375 223.250,47.750 146.750,47.750 "/>
      <polygon fill="#ffffff" fill-opacity="1.00" stroke="none" stroke-width="0.5pt" stroke-opacity="1.00" stroke-dasharray="none" points="146.750,47.750 223.250,47.750 223.250,47.750 146.750,47.750 "/>
      <polygon fill="#ffffff" fill-opacity="1.00" stroke="none" stroke-width="0.5pt" stroke-opacity="1.00" stroke-dasharray="none" points="146.750,85.375 146.750,85.375 146.750,47.750 146.750,47.750 "/>
    <g>
<g id="ID000011" >
  <g transform="translate(196.576,63.944)">
    <g transform="rotate(-0.0)">
      <text x="0.000" y="0.000" font-family="Helvetica" text-anchor="start" font-size="10pt" fill="#000000" >gpu</text>
    </g>
  </g>
</g>
<g id="ID000012" clip-path="url(#ID000010)" >
      <polyline fill="none" stroke="#0000ff" stroke-width="0.5pt" stroke-dasharray="none" points="154.250,58.250 191.750,58.250 "/>
<g>
</g>
</g>
<g id="ID000013" clip-path="url(#ID000010)" >
<g>
      <polyline fill="#0000ff" fill-opacity="1.00" stroke="#0000ff" stroke-width="0.5pt" stroke-opacity="1.00" stroke-dasharray="none" points="170.200,61.050 175.800,55.450 "/>
      <polyline fill="#0000ff" fill-opacity="1.00" stroke="#0000ff" stroke-width="0.5pt" stroke-opacity="1.00" stroke-dasharray="none" points="170.200,55.450 175.800,61.050 "/>
</g>
</g>
<g id="ID000014" >
  <g transform="translate(196.576,80.215)">
    <g transform="rotate(-0.0)">
      <text x="0.000" y="0.000" font-family="Helvetica" text-anchor="start" font-size="10pt" fill="#000000" >cpu</text>
    </g>
  </g>
</g>
<g id="ID000015" clip-path="url(#ID000010)" >
      <polyline fill="none" stroke="#00ff00" stroke-width="0.5pt" stroke-dasharray="none" points="154.250,74.875 191.750,74.875 "/>
<g>
</g>
</g>
<g id="ID000016" clip-path="url(#ID000010)" >
<g>
      <polyline fill="#00ff00" fill-opacity="1.00" stroke="#00ff00" stroke-width="0.5pt" stroke-opacity="1.00" stroke-dasharray="none" points="169.000,74.875 177.000,74.875 "/>
      <polyline fill="#00ff00" fill-opacity="1.00" stroke="#00ff00" stroke-width="0.5pt" stroke-opacity="1.00" stroke-dasharray="none" points="173.000,70.875 173.000,78.875 "/>
</g>
</g>
<g id="ID000017" >
</g>
<g id="ID000018" >
</g>
<g id="ID000019" >
</g>
    </g>
    <g>
      <polyline fill="none" stroke="#000000" stroke-width="0.5pt" stroke-dasharray="none" points="146.750,85.375 223.250,85.375 "/>
      <polyline fill="none" stroke="#000000" stroke-width="0.5pt" stroke-dasharray="none" points="146.750,47.750 223.250,47.750 "/>
      <polyline fill="none" stroke="#000000" stroke-width="0.5pt" stroke-dasharray="none" points="146.750,85.375 146.750,47.750 "/>
      <polyline fill="none" stroke="#000000" stroke-width="0.5pt" stroke-dasharray="none" points="223.250,85.375 223.250,47.750 "/>
      <polyline fill="none" stroke="#000000" stroke-width="0.5pt" stroke-dasharray="none" points="146.750,85.375 146.750,84.999 "/>
      <polyline fill="none" stroke="#000000" stroke-width="0.5pt" stroke-dasharray="none" points="146.750,85.375 146.750,85.375 "/>
    </g>
  </g>
  </g>
</svg>
