<?xml version="1.0" encoding="utf-8" standalone="no"?><!DOCTYPE svg PUBLIC "-//W3C//DTD SVG 1.1//EN" "http://www.w3.org/Graphics/SVG/1.1/DTD/svg11.dtd">
<svg preserveAspectRatio="xMinYMin meet" width="100%" height="100%" viewBox="0 0 1080.000 741.000"  version="1.1" xmlns="http://www.w3.org/2000/svg" xmlns:xlink="http://www.w3.org/1999/xlink">
  <desc>Matlab Figure Converted by PLOT2SVG written by Juerg Schwizer</desc>
  <g id="topgroup">
  <rect x="0" y="0" width="1080.000" height="741.000" fill="#ffffff" stroke="none" />
  <g id ="ID000000">
  <clipPath id="ID000001">
    <rect x="140.400" y="55.575" width="837.000" height="603.915"/>
  </clipPath>
      <polygon fill="#ffffff" fill-opacity="1.00" stroke="none" stroke-width="0.5pt" stroke-opacity="1.00" stroke-dasharray="none" points="140.400,659.490 977.400,659.490 977.400,55.575 140.400,55.575 "/>
      <polygon fill="#ffffff" fill-opacity="1.00" stroke="none" stroke-width="0.5pt" stroke-opacity="1.00" stroke-dasharray="none" points="140.400,659.490 977.400,659.490 977.400,659.490 140.400,659.490 "/>
      <polygon fill="#ffffff" fill-opacity="1.00" stroke="none" stroke-width="0.5pt" stroke-opacity="1.00" stroke-dasharray="none" points="140.400,659.490 140.400,659.490 140.400,55.575 140.400,55.575 "/>
    <g>
<g id="ID000002" clip-path="url(#ID000001)" >
      <polyline fill="none" stroke="#0000ff" stroke-width="0.5pt" stroke-dasharray="none" points="147.900,586.989 156.203,501.235 164.506,416.781 172.809,386.897 181.112,341.421 189.415,312.837 197.718,285.551 206.021,269.960 214.324,255.667 222.627,249.171 230.930,232.280 239.233,228.382 247.536,227.083 255.839,221.885 264.142,219.287 272.445,215.389 280.748,211.491 289.051,210.192 297.354,199.797 305.657,197.199 313.960,188.104 322.263,185.505 330.566,180.308 338.869,175.111 347.172,171.213 355.476,171.213 363.779,167.315 372.082,162.118 380.385,158.220 388.688,150.424 396.991,145.227 405.294,145.227 413.597,141.329 421.900,138.730 430.203,138.730 438.506,133.533 446.809,130.934 455.112,129.635 463.415,129.635 471.718,127.037 480.021,127.037 488.324,124.438 496.627,120.540 504.930,117.941 513.233,116.642 521.536,114.044 529.839,114.044 538.142,112.744 546.445,112.744 554.748,110.146 563.052,108.846 571.355,107.547 579.658,104.948 587.961,104.948 596.264,103.649 604.567,103.649 612.870,102.350 621.173,102.350 629.476,101.051 637.779,99.751 646.082,98.452 654.385,98.452 662.688,98.452 670.991,98.452 679.294,98.452 687.597,95.853 695.900,95.853 704.203,95.853 712.506,95.853 720.809,95.853 729.112,94.554 737.415,94.554 745.718,93.255 754.021,93.255 762.324,93.255 770.628,90.656 778.931,90.656 787.234,89.357 795.537,88.058 803.840,85.459 812.143,82.860 820.446,82.860 828.749,80.262 837.052,77.663 845.355,76.364 853.658,75.065 861.961,75.065 870.264,72.466 878.567,72.466 886.870,69.867 895.173,69.867 903.476,67.269 911.779,65.969 920.082,65.969 928.385,64.670 936.688,63.371 944.991,60.772 953.294,60.772 961.597,59.473 969.900,55.575 "/>
<g>
</g>
</g>
<g id="ID000003" >
  <g transform="translate(557.900,691.524)">
    <g transform="rotate(-0.0)">
      <text x="0.000" y="0.000" font-family="Helvetica" text-anchor="middle" font-size="10pt" fill="#000000" >Number of users with lower residual that test user</text>
    </g>
  </g>
</g>
<g id="ID000004" >
  <g transform="translate(102.400,358.534)">
    <g transform="rotate(-90.0)">
      <text x="0.000" y="0.000" font-family="Helvetica" text-anchor="middle" font-size="10pt" fill="#000000" >Percentage that user lies in training set</text>
    </g>
  </g>
</g>
<g id="ID000005" >
  <g transform="translate(558.900,46.565)">
    <g transform="rotate(-0.0)">
      <text x="0.000" y="0.000" font-family="Helvetica" text-anchor="middle" font-size="10pt" fill="#000000" >Percentage that usre lies in training set based on alignment residuals</text>
    </g>
  </g>
</g>
    </g>
    <g>
      <polyline fill="none" stroke="#000000" stroke-width="0.5pt" stroke-dasharray="none" points="307.800,659.490 307.800,651.120 "/>
      <polyline fill="none" stroke="#000000" stroke-width="0.5pt" stroke-dasharray="none" points="475.200,659.490 475.200,651.120 "/>
      <polyline fill="none" stroke="#000000" stroke-width="0.5pt" stroke-dasharray="none" points="642.600,659.490 642.600,651.120 "/>
      <polyline fill="none" stroke="#000000" stroke-width="0.5pt" stroke-dasharray="none" points="810.000,659.490 810.000,651.120 "/>
      <polyline fill="none" stroke="#000000" stroke-width="0.5pt" stroke-dasharray="none" points="140.400,659.490 977.400,659.490 "/>
      <polyline fill="none" stroke="#000000" stroke-width="0.5pt" stroke-dasharray="none" points="307.800,55.575 307.800,63.945 "/>
      <polyline fill="none" stroke="#000000" stroke-width="0.5pt" stroke-dasharray="none" points="475.200,55.575 475.200,63.945 "/>
      <polyline fill="none" stroke="#000000" stroke-width="0.5pt" stroke-dasharray="none" points="642.600,55.575 642.600,63.945 "/>
      <polyline fill="none" stroke="#000000" stroke-width="0.5pt" stroke-dasharray="none" points="810.000,55.575 810.000,63.945 "/>
      <polyline fill="none" stroke="#000000" stroke-width="0.5pt" stroke-dasharray="none" points="140.400,55.575 977.400,55.575 "/>
  <g transform="translate(140.400,683.368)">
    <g transform="rotate(-0.0)">
      <text x="0.000" y="0.000" font-family="Helvetica" text-anchor="middle" font-size="10pt" fill="#000000" >0</text>
    </g>
  </g>
  <g transform="translate(307.800,683.368)">
    <g transform="rotate(-0.0)">
      <text x="0.000" y="0.000" font-family="Helvetica" text-anchor="middle" font-size="10pt" fill="#000000" >50</text>
    </g>
  </g>
  <g transform="translate(475.200,683.368)">
    <g transform="rotate(-0.0)">
      <text x="0.000" y="0.000" font-family="Helvetica" text-anchor="middle" font-size="10pt" fill="#000000" >100</text>
    </g>
  </g>
  <g transform="translate(642.600,683.368)">
    <g transform="rotate(-0.0)">
      <text x="0.000" y="0.000" font-family="Helvetica" text-anchor="middle" font-size="10pt" fill="#000000" >150</text>
    </g>
  </g>
  <g transform="translate(810.000,683.368)">
    <g transform="rotate(-0.0)">
      <text x="0.000" y="0.000" font-family="Helvetica" text-anchor="middle" font-size="10pt" fill="#000000" >200</text>
    </g>
  </g>
  <g transform="translate(977.400,683.368)">
    <g transform="rotate(-0.0)">
      <text x="0.000" y="0.000" font-family="Helvetica" text-anchor="middle" font-size="10pt" fill="#000000" >250</text>
    </g>
  </g>
      <polyline fill="none" stroke="#000000" stroke-width="0.5pt" stroke-dasharray="none" points="140.400,573.216 148.770,573.216 "/>
      <polyline fill="none" stroke="#000000" stroke-width="0.5pt" stroke-dasharray="none" points="140.400,486.943 148.770,486.943 "/>
      <polyline fill="none" stroke="#000000" stroke-width="0.5pt" stroke-dasharray="none" points="140.400,400.669 148.770,400.669 "/>
      <polyline fill="none" stroke="#000000" stroke-width="0.5pt" stroke-dasharray="none" points="140.400,314.396 148.770,314.396 "/>
      <polyline fill="none" stroke="#000000" stroke-width="0.5pt" stroke-dasharray="none" points="140.400,228.122 148.770,228.122 "/>
      <polyline fill="none" stroke="#000000" stroke-width="0.5pt" stroke-dasharray="none" points="140.400,141.849 148.770,141.849 "/>
      <polyline fill="none" stroke="#000000" stroke-width="0.5pt" stroke-dasharray="none" points="140.400,659.490 140.400,55.575 "/>
      <polyline fill="none" stroke="#000000" stroke-width="0.5pt" stroke-dasharray="none" points="977.400,573.216 969.030,573.216 "/>
      <polyline fill="none" stroke="#000000" stroke-width="0.5pt" stroke-dasharray="none" points="977.400,486.943 969.030,486.943 "/>
      <polyline fill="none" stroke="#000000" stroke-width="0.5pt" stroke-dasharray="none" points="977.400,400.669 969.030,400.669 "/>
      <polyline fill="none" stroke="#000000" stroke-width="0.5pt" stroke-dasharray="none" points="977.400,314.396 969.030,314.396 "/>
      <polyline fill="none" stroke="#000000" stroke-width="0.5pt" stroke-dasharray="none" points="977.400,228.122 969.030,228.122 "/>
      <polyline fill="none" stroke="#000000" stroke-width="0.5pt" stroke-dasharray="none" points="977.400,141.849 969.030,141.849 "/>
      <polyline fill="none" stroke="#000000" stroke-width="0.5pt" stroke-dasharray="none" points="977.400,659.490 977.400,55.575 "/>
  <g transform="translate(123.660,663.990)">
    <g transform="rotate(-0.0)">
      <text x="0.000" y="0.000" font-family="Helvetica" text-anchor="end" font-size="10pt" fill="#000000" >0.86</text>
    </g>
  </g>
  <g transform="translate(123.660,577.716)">
    <g transform="rotate(-0.0)">
      <text x="0.000" y="0.000" font-family="Helvetica" text-anchor="end" font-size="10pt" fill="#000000" >0.88</text>
    </g>
  </g>
  <g transform="translate(123.660,491.443)">
    <g transform="rotate(-0.0)">
      <text x="0.000" y="0.000" font-family="Helvetica" text-anchor="end" font-size="10pt" fill="#000000" >0.9</text>
    </g>
  </g>
  <g transform="translate(123.660,405.169)">
    <g transform="rotate(-0.0)">
      <text x="0.000" y="0.000" font-family="Helvetica" text-anchor="end" font-size="10pt" fill="#000000" >0.92</text>
    </g>
  </g>
  <g transform="translate(123.660,318.896)">
    <g transform="rotate(-0.0)">
      <text x="0.000" y="0.000" font-family="Helvetica" text-anchor="end" font-size="10pt" fill="#000000" >0.94</text>
    </g>
  </g>
  <g transform="translate(123.660,232.622)">
    <g transform="rotate(-0.0)">
      <text x="0.000" y="0.000" font-family="Helvetica" text-anchor="end" font-size="10pt" fill="#000000" >0.96</text>
    </g>
  </g>
  <g transform="translate(123.660,146.349)">
    <g transform="rotate(-0.0)">
      <text x="0.000" y="0.000" font-family="Helvetica" text-anchor="end" font-size="10pt" fill="#000000" >0.98</text>
    </g>
  </g>
  <g transform="translate(123.660,60.075)">
    <g transform="rotate(-0.0)">
      <text x="0.000" y="0.000" font-family="Helvetica" text-anchor="end" font-size="10pt" fill="#000000" >1</text>
    </g>
  </g>
      <polyline fill="none" stroke="#000000" stroke-width="0.5pt" stroke-dasharray="none" points="140.400,659.490 140.400,653.451 "/>
      <polyline fill="none" stroke="#000000" stroke-width="0.5pt" stroke-dasharray="none" points="140.400,659.490 140.400,659.490 "/>
    </g>
  </g>
  </g>
</svg>
