<?xml version="1.0" encoding="utf-8" standalone="no"?><!DOCTYPE svg PUBLIC "-//W3C//DTD SVG 1.1//EN" "http://www.w3.org/Graphics/SVG/1.1/DTD/svg11.dtd">
<svg preserveAspectRatio="xMinYMin meet" width="100%" height="100%" viewBox="0 0 1080.000 741.000"  version="1.1" xmlns="http://www.w3.org/2000/svg" xmlns:xlink="http://www.w3.org/1999/xlink">
  <desc>Matlab Figure Converted by PLOT2SVG written by Juerg Schwizer</desc>
  <g id="topgroup">
  <rect x="0" y="0" width="1080.000" height="741.000" fill="#ffffff" stroke="none" />
  <g id ="ID000000">
  <clipPath id="ID000001">
    <rect x="140.400" y="55.575" width="357.312" height="603.915"/>
  </clipPath>
      <polygon fill="#ffffff" fill-opacity="1.00" stroke="none" stroke-width="0.5pt" stroke-opacity="1.00" stroke-dasharray="none" points="140.400,659.490 497.712,659.490 497.712,55.575 140.400,55.575 "/>
      <polygon fill="#ffffff" fill-opacity="1.00" stroke="none" stroke-width="0.5pt" stroke-opacity="1.00" stroke-dasharray="none" points="140.400,55.575 497.712,55.575 497.712,55.575 140.400,55.575 "/>
      <polygon fill="#ffffff" fill-opacity="1.00" stroke="none" stroke-width="0.5pt" stroke-opacity="1.00" stroke-dasharray="none" points="140.400,659.490 140.400,659.490 140.400,55.575 140.400,55.575 "/>
    <g>
<g id="ID000002" clip-path="url(#ID000001)" >
      <polyline fill="none" stroke="#0000ff" stroke-width="0.5pt" stroke-dasharray="none" points="168.985,636.902 197.570,634.213 226.155,635.033 254.740,635.068 283.325,630.901 311.910,625.583 340.495,621.621 369.079,619.916 397.664,616.686 426.249,608.292 454.834,605.501 "/>
<g>
      <polyline fill="#0000ff" fill-opacity="1.00" stroke="#0000ff" stroke-width="0.5pt" stroke-opacity="1.00" stroke-dasharray="none" points="166.185,639.702 171.785,634.102 "/>
      <polyline fill="#0000ff" fill-opacity="1.00" stroke="#0000ff" stroke-width="0.5pt" stroke-opacity="1.00" stroke-dasharray="none" points="166.185,634.102 171.785,639.702 "/>
      <polyline fill="#0000ff" fill-opacity="1.00" stroke="#0000ff" stroke-width="0.5pt" stroke-opacity="1.00" stroke-dasharray="none" points="194.770,637.013 200.370,631.413 "/>
      <polyline fill="#0000ff" fill-opacity="1.00" stroke="#0000ff" stroke-width="0.5pt" stroke-opacity="1.00" stroke-dasharray="none" points="194.770,631.413 200.370,637.013 "/>
      <polyline fill="#0000ff" fill-opacity="1.00" stroke="#0000ff" stroke-width="0.5pt" stroke-opacity="1.00" stroke-dasharray="none" points="223.355,637.833 228.955,632.233 "/>
      <polyline fill="#0000ff" fill-opacity="1.00" stroke="#0000ff" stroke-width="0.5pt" stroke-opacity="1.00" stroke-dasharray="none" points="223.355,632.233 228.955,637.833 "/>
      <polyline fill="#0000ff" fill-opacity="1.00" stroke="#0000ff" stroke-width="0.5pt" stroke-opacity="1.00" stroke-dasharray="none" points="251.940,637.868 257.540,632.268 "/>
      <polyline fill="#0000ff" fill-opacity="1.00" stroke="#0000ff" stroke-width="0.5pt" stroke-opacity="1.00" stroke-dasharray="none" points="251.940,632.268 257.540,637.868 "/>
      <polyline fill="#0000ff" fill-opacity="1.00" stroke="#0000ff" stroke-width="0.5pt" stroke-opacity="1.00" stroke-dasharray="none" points="280.525,633.701 286.125,628.101 "/>
      <polyline fill="#0000ff" fill-opacity="1.00" stroke="#0000ff" stroke-width="0.5pt" stroke-opacity="1.00" stroke-dasharray="none" points="280.525,628.101 286.125,633.701 "/>
      <polyline fill="#0000ff" fill-opacity="1.00" stroke="#0000ff" stroke-width="0.5pt" stroke-opacity="1.00" stroke-dasharray="none" points="309.110,628.383 314.710,622.783 "/>
      <polyline fill="#0000ff" fill-opacity="1.00" stroke="#0000ff" stroke-width="0.5pt" stroke-opacity="1.00" stroke-dasharray="none" points="309.110,622.783 314.710,628.383 "/>
      <polyline fill="#0000ff" fill-opacity="1.00" stroke="#0000ff" stroke-width="0.5pt" stroke-opacity="1.00" stroke-dasharray="none" points="337.695,624.421 343.295,618.821 "/>
      <polyline fill="#0000ff" fill-opacity="1.00" stroke="#0000ff" stroke-width="0.5pt" stroke-opacity="1.00" stroke-dasharray="none" points="337.695,618.821 343.295,624.421 "/>
      <polyline fill="#0000ff" fill-opacity="1.00" stroke="#0000ff" stroke-width="0.5pt" stroke-opacity="1.00" stroke-dasharray="none" points="366.279,622.716 371.879,617.116 "/>
      <polyline fill="#0000ff" fill-opacity="1.00" stroke="#0000ff" stroke-width="0.5pt" stroke-opacity="1.00" stroke-dasharray="none" points="366.279,617.116 371.879,622.716 "/>
      <polyline fill="#0000ff" fill-opacity="1.00" stroke="#0000ff" stroke-width="0.5pt" stroke-opacity="1.00" stroke-dasharray="none" points="394.864,619.486 400.464,613.886 "/>
      <polyline fill="#0000ff" fill-opacity="1.00" stroke="#0000ff" stroke-width="0.5pt" stroke-opacity="1.00" stroke-dasharray="none" points="394.864,613.886 400.464,619.486 "/>
      <polyline fill="#0000ff" fill-opacity="1.00" stroke="#0000ff" stroke-width="0.5pt" stroke-opacity="1.00" stroke-dasharray="none" points="423.449,611.092 429.049,605.492 "/>
      <polyline fill="#0000ff" fill-opacity="1.00" stroke="#0000ff" stroke-width="0.5pt" stroke-opacity="1.00" stroke-dasharray="none" points="423.449,605.492 429.049,611.092 "/>
      <polyline fill="#0000ff" fill-opacity="1.00" stroke="#0000ff" stroke-width="0.5pt" stroke-opacity="1.00" stroke-dasharray="none" points="452.034,608.301 457.634,602.701 "/>
      <polyline fill="#0000ff" fill-opacity="1.00" stroke="#0000ff" stroke-width="0.5pt" stroke-opacity="1.00" stroke-dasharray="none" points="452.034,602.701 457.634,608.301 "/>
</g>
</g>
<g id="ID000003" clip-path="url(#ID000001)" >
      <polyline fill="none" stroke="#ff0000" stroke-width="0.5pt" stroke-dasharray="none" points="168.985,650.390 197.570,632.080 226.155,615.274 254.740,558.264 283.325,493.069 311.910,445.662 340.495,357.145 369.079,321.191 397.664,274.266 426.249,201.971 454.834,128.687 "/>
<g>
      <polyline fill="#ff0000" fill-opacity="1.00" stroke="#ff0000" stroke-width="0.5pt" stroke-opacity="1.00" stroke-dasharray="none" points="164.985,650.390 172.985,650.390 "/>
      <polyline fill="#ff0000" fill-opacity="1.00" stroke="#ff0000" stroke-width="0.5pt" stroke-opacity="1.00" stroke-dasharray="none" points="168.985,646.390 168.985,654.390 "/>
      <polyline fill="#ff0000" fill-opacity="1.00" stroke="#ff0000" stroke-width="0.5pt" stroke-opacity="1.00" stroke-dasharray="none" points="193.570,632.080 201.570,632.080 "/>
      <polyline fill="#ff0000" fill-opacity="1.00" stroke="#ff0000" stroke-width="0.5pt" stroke-opacity="1.00" stroke-dasharray="none" points="197.570,628.080 197.570,636.080 "/>
      <polyline fill="#ff0000" fill-opacity="1.00" stroke="#ff0000" stroke-width="0.5pt" stroke-opacity="1.00" stroke-dasharray="none" points="222.155,615.274 230.155,615.274 "/>
      <polyline fill="#ff0000" fill-opacity="1.00" stroke="#ff0000" stroke-width="0.5pt" stroke-opacity="1.00" stroke-dasharray="none" points="226.155,611.274 226.155,619.274 "/>
      <polyline fill="#ff0000" fill-opacity="1.00" stroke="#ff0000" stroke-width="0.5pt" stroke-opacity="1.00" stroke-dasharray="none" points="250.740,558.264 258.740,558.264 "/>
      <polyline fill="#ff0000" fill-opacity="1.00" stroke="#ff0000" stroke-width="0.5pt" stroke-opacity="1.00" stroke-dasharray="none" points="254.740,554.264 254.740,562.264 "/>
      <polyline fill="#ff0000" fill-opacity="1.00" stroke="#ff0000" stroke-width="0.5pt" stroke-opacity="1.00" stroke-dasharray="none" points="279.325,493.069 287.325,493.069 "/>
      <polyline fill="#ff0000" fill-opacity="1.00" stroke="#ff0000" stroke-width="0.5pt" stroke-opacity="1.00" stroke-dasharray="none" points="283.325,489.069 283.325,497.069 "/>
      <polyline fill="#ff0000" fill-opacity="1.00" stroke="#ff0000" stroke-width="0.5pt" stroke-opacity="1.00" stroke-dasharray="none" points="307.910,445.662 315.910,445.662 "/>
      <polyline fill="#ff0000" fill-opacity="1.00" stroke="#ff0000" stroke-width="0.5pt" stroke-opacity="1.00" stroke-dasharray="none" points="311.910,441.662 311.910,449.662 "/>
      <polyline fill="#ff0000" fill-opacity="1.00" stroke="#ff0000" stroke-width="0.5pt" stroke-opacity="1.00" stroke-dasharray="none" points="336.495,357.145 344.495,357.145 "/>
      <polyline fill="#ff0000" fill-opacity="1.00" stroke="#ff0000" stroke-width="0.5pt" stroke-opacity="1.00" stroke-dasharray="none" points="340.495,353.145 340.495,361.145 "/>
      <polyline fill="#ff0000" fill-opacity="1.00" stroke="#ff0000" stroke-width="0.5pt" stroke-opacity="1.00" stroke-dasharray="none" points="365.079,321.191 373.079,321.191 "/>
      <polyline fill="#ff0000" fill-opacity="1.00" stroke="#ff0000" stroke-width="0.5pt" stroke-opacity="1.00" stroke-dasharray="none" points="369.079,317.191 369.079,325.191 "/>
      <polyline fill="#ff0000" fill-opacity="1.00" stroke="#ff0000" stroke-width="0.5pt" stroke-opacity="1.00" stroke-dasharray="none" points="393.664,274.266 401.664,274.266 "/>
      <polyline fill="#ff0000" fill-opacity="1.00" stroke="#ff0000" stroke-width="0.5pt" stroke-opacity="1.00" stroke-dasharray="none" points="397.664,270.266 397.664,278.266 "/>
      <polyline fill="#ff0000" fill-opacity="1.00" stroke="#ff0000" stroke-width="0.5pt" stroke-opacity="1.00" stroke-dasharray="none" points="422.249,201.971 430.249,201.971 "/>
      <polyline fill="#ff0000" fill-opacity="1.00" stroke="#ff0000" stroke-width="0.5pt" stroke-opacity="1.00" stroke-dasharray="none" points="426.249,197.971 426.249,205.971 "/>
      <polyline fill="#ff0000" fill-opacity="1.00" stroke="#ff0000" stroke-width="0.5pt" stroke-opacity="1.00" stroke-dasharray="none" points="450.834,128.687 458.834,128.687 "/>
      <polyline fill="#ff0000" fill-opacity="1.00" stroke="#ff0000" stroke-width="0.5pt" stroke-opacity="1.00" stroke-dasharray="none" points="454.834,124.687 454.834,132.687 "/>
</g>
</g>
<g id="ID000004" clip-path="url(#ID000001)" >
      <polyline fill="none" stroke="#00ff00" stroke-width="0.5pt" stroke-dasharray="none" points="168.985,655.367 197.570,644.505 226.155,620.674 254.740,586.624 283.325,547.416 311.910,484.271 340.495,427.696 369.079,360.744 397.664,253.065 426.249,223.039 454.834,105.424 "/>
<g>
      <polyline fill="#00ff00" fill-opacity="1.00" stroke="#00ff00" stroke-width="0.5pt" stroke-opacity="1.00" stroke-dasharray="none" points="164.985,655.367 172.985,655.367 "/>
      <polyline fill="#00ff00" fill-opacity="1.00" stroke="#00ff00" stroke-width="0.5pt" stroke-opacity="1.00" stroke-dasharray="none" points="168.985,651.367 168.985,659.367 "/>
      <polyline fill="#00ff00" fill-opacity="1.00" stroke="#00ff00" stroke-width="0.5pt" stroke-opacity="1.00" stroke-dasharray="none" points="193.570,644.505 201.570,644.505 "/>
      <polyline fill="#00ff00" fill-opacity="1.00" stroke="#00ff00" stroke-width="0.5pt" stroke-opacity="1.00" stroke-dasharray="none" points="197.570,640.505 197.570,648.505 "/>
      <polyline fill="#00ff00" fill-opacity="1.00" stroke="#00ff00" stroke-width="0.5pt" stroke-opacity="1.00" stroke-dasharray="none" points="222.155,620.674 230.155,620.674 "/>
      <polyline fill="#00ff00" fill-opacity="1.00" stroke="#00ff00" stroke-width="0.5pt" stroke-opacity="1.00" stroke-dasharray="none" points="226.155,616.674 226.155,624.674 "/>
      <polyline fill="#00ff00" fill-opacity="1.00" stroke="#00ff00" stroke-width="0.5pt" stroke-opacity="1.00" stroke-dasharray="none" points="250.740,586.624 258.740,586.624 "/>
      <polyline fill="#00ff00" fill-opacity="1.00" stroke="#00ff00" stroke-width="0.5pt" stroke-opacity="1.00" stroke-dasharray="none" points="254.740,582.624 254.740,590.624 "/>
      <polyline fill="#00ff00" fill-opacity="1.00" stroke="#00ff00" stroke-width="0.5pt" stroke-opacity="1.00" stroke-dasharray="none" points="279.325,547.416 287.325,547.416 "/>
      <polyline fill="#00ff00" fill-opacity="1.00" stroke="#00ff00" stroke-width="0.5pt" stroke-opacity="1.00" stroke-dasharray="none" points="283.325,543.416 283.325,551.416 "/>
      <polyline fill="#00ff00" fill-opacity="1.00" stroke="#00ff00" stroke-width="0.5pt" stroke-opacity="1.00" stroke-dasharray="none" points="307.910,484.271 315.910,484.271 "/>
      <polyline fill="#00ff00" fill-opacity="1.00" stroke="#00ff00" stroke-width="0.5pt" stroke-opacity="1.00" stroke-dasharray="none" points="311.910,480.271 311.910,488.271 "/>
      <polyline fill="#00ff00" fill-opacity="1.00" stroke="#00ff00" stroke-width="0.5pt" stroke-opacity="1.00" stroke-dasharray="none" points="336.495,427.696 344.495,427.696 "/>
      <polyline fill="#00ff00" fill-opacity="1.00" stroke="#00ff00" stroke-width="0.5pt" stroke-opacity="1.00" stroke-dasharray="none" points="340.495,423.696 340.495,431.696 "/>
      <polyline fill="#00ff00" fill-opacity="1.00" stroke="#00ff00" stroke-width="0.5pt" stroke-opacity="1.00" stroke-dasharray="none" points="365.079,360.744 373.079,360.744 "/>
      <polyline fill="#00ff00" fill-opacity="1.00" stroke="#00ff00" stroke-width="0.5pt" stroke-opacity="1.00" stroke-dasharray="none" points="369.079,356.744 369.079,364.744 "/>
      <polyline fill="#00ff00" fill-opacity="1.00" stroke="#00ff00" stroke-width="0.5pt" stroke-opacity="1.00" stroke-dasharray="none" points="393.664,253.065 401.664,253.065 "/>
      <polyline fill="#00ff00" fill-opacity="1.00" stroke="#00ff00" stroke-width="0.5pt" stroke-opacity="1.00" stroke-dasharray="none" points="397.664,249.065 397.664,257.065 "/>
      <polyline fill="#00ff00" fill-opacity="1.00" stroke="#00ff00" stroke-width="0.5pt" stroke-opacity="1.00" stroke-dasharray="none" points="422.249,223.039 430.249,223.039 "/>
      <polyline fill="#00ff00" fill-opacity="1.00" stroke="#00ff00" stroke-width="0.5pt" stroke-opacity="1.00" stroke-dasharray="none" points="426.249,219.039 426.249,227.039 "/>
      <polyline fill="#00ff00" fill-opacity="1.00" stroke="#00ff00" stroke-width="0.5pt" stroke-opacity="1.00" stroke-dasharray="none" points="450.834,105.424 458.834,105.424 "/>
      <polyline fill="#00ff00" fill-opacity="1.00" stroke="#00ff00" stroke-width="0.5pt" stroke-opacity="1.00" stroke-dasharray="none" points="454.834,101.424 454.834,109.424 "/>
</g>
</g>
<g id="ID000005" >
  <g transform="translate(318.557,47.567)">
    <g transform="rotate(-0.0)">
      <text x="0.000" y="0.000" font-family="Helvetica" text-anchor="middle" font-size="10pt" fill="#000000" >Outer tolerance: 0.001   inner tolerance: 0.0001</text>
    </g>
  </g>
</g>
<g id="ID000006" >
  <g transform="translate(112.449,358.534)">
    <g transform="rotate(-90.0)">
      <text x="0.000" y="0.000" font-family="Helvetica" text-anchor="middle" font-size="10pt" fill="#000000" >Average runtime (s)</text>
    </g>
  </g>
</g>
<g id="ID000007" >
  <g transform="translate(318.557,691.524)">
    <g transform="rotate(-0.0)">
      <text x="0.000" y="0.000" font-family="Helvetica" text-anchor="middle" font-size="10pt" fill="#000000" >Number of Users</text>
    </g>
  </g>
</g>
<g id="ID000008" >
</g>
<g id="ID000009" >
</g>
    </g>
    <g>
      <polyline fill="none" stroke="#000000" stroke-width="0.5pt" stroke-dasharray="none" points="211.862,659.490 211.862,653.451 "/>
      <polyline fill="none" stroke="#000000" stroke-width="0.5pt" stroke-dasharray="none" points="283.325,659.490 283.325,653.451 "/>
      <polyline fill="none" stroke="#000000" stroke-width="0.5pt" stroke-dasharray="none" points="354.787,659.490 354.787,653.451 "/>
      <polyline fill="none" stroke="#000000" stroke-width="0.5pt" stroke-dasharray="none" points="426.249,659.490 426.249,653.451 "/>
      <polyline fill="none" stroke="#000000" stroke-width="0.5pt" stroke-dasharray="none" points="140.400,659.490 497.712,659.490 "/>
      <polyline fill="none" stroke="#000000" stroke-width="0.5pt" stroke-dasharray="none" points="211.862,55.575 211.862,61.614 "/>
      <polyline fill="none" stroke="#000000" stroke-width="0.5pt" stroke-dasharray="none" points="283.325,55.575 283.325,61.614 "/>
      <polyline fill="none" stroke="#000000" stroke-width="0.5pt" stroke-dasharray="none" points="354.787,55.575 354.787,61.614 "/>
      <polyline fill="none" stroke="#000000" stroke-width="0.5pt" stroke-dasharray="none" points="426.249,55.575 426.249,61.614 "/>
      <polyline fill="none" stroke="#000000" stroke-width="0.5pt" stroke-dasharray="none" points="140.400,55.575 497.712,55.575 "/>
  <g transform="translate(140.400,683.368)">
    <g transform="rotate(-0.0)">
      <text x="0.000" y="0.000" font-family="Helvetica" text-anchor="middle" font-size="10pt" fill="#000000" >0</text>
    </g>
  </g>
  <g transform="translate(211.862,683.368)">
    <g transform="rotate(-0.0)">
      <text x="0.000" y="0.000" font-family="Helvetica" text-anchor="middle" font-size="10pt" fill="#000000" >50</text>
    </g>
  </g>
  <g transform="translate(283.325,683.368)">
    <g transform="rotate(-0.0)">
      <text x="0.000" y="0.000" font-family="Helvetica" text-anchor="middle" font-size="10pt" fill="#000000" >100</text>
    </g>
  </g>
  <g transform="translate(354.787,683.368)">
    <g transform="rotate(-0.0)">
      <text x="0.000" y="0.000" font-family="Helvetica" text-anchor="middle" font-size="10pt" fill="#000000" >150</text>
    </g>
  </g>
  <g transform="translate(426.249,683.368)">
    <g transform="rotate(-0.0)">
      <text x="0.000" y="0.000" font-family="Helvetica" text-anchor="middle" font-size="10pt" fill="#000000" >200</text>
    </g>
  </g>
  <g transform="translate(497.712,683.368)">
    <g transform="rotate(-0.0)">
      <text x="0.000" y="0.000" font-family="Helvetica" text-anchor="middle" font-size="10pt" fill="#000000" >250</text>
    </g>
  </g>
      <polyline fill="none" stroke="#000000" stroke-width="0.5pt" stroke-dasharray="none" points="140.400,573.216 146.439,573.216 "/>
      <polyline fill="none" stroke="#000000" stroke-width="0.5pt" stroke-dasharray="none" points="140.400,486.943 146.439,486.943 "/>
      <polyline fill="none" stroke="#000000" stroke-width="0.5pt" stroke-dasharray="none" points="140.400,400.669 146.439,400.669 "/>
      <polyline fill="none" stroke="#000000" stroke-width="0.5pt" stroke-dasharray="none" points="140.400,314.396 146.439,314.396 "/>
      <polyline fill="none" stroke="#000000" stroke-width="0.5pt" stroke-dasharray="none" points="140.400,228.122 146.439,228.122 "/>
      <polyline fill="none" stroke="#000000" stroke-width="0.5pt" stroke-dasharray="none" points="140.400,141.849 146.439,141.849 "/>
      <polyline fill="none" stroke="#000000" stroke-width="0.5pt" stroke-dasharray="none" points="140.400,659.490 140.400,55.575 "/>
      <polyline fill="none" stroke="#000000" stroke-width="0.5pt" stroke-dasharray="none" points="497.712,573.216 491.673,573.216 "/>
      <polyline fill="none" stroke="#000000" stroke-width="0.5pt" stroke-dasharray="none" points="497.712,486.943 491.673,486.943 "/>
      <polyline fill="none" stroke="#000000" stroke-width="0.5pt" stroke-dasharray="none" points="497.712,400.669 491.673,400.669 "/>
      <polyline fill="none" stroke="#000000" stroke-width="0.5pt" stroke-dasharray="none" points="497.712,314.396 491.673,314.396 "/>
      <polyline fill="none" stroke="#000000" stroke-width="0.5pt" stroke-dasharray="none" points="497.712,228.122 491.673,228.122 "/>
      <polyline fill="none" stroke="#000000" stroke-width="0.5pt" stroke-dasharray="none" points="497.712,141.849 491.673,141.849 "/>
      <polyline fill="none" stroke="#000000" stroke-width="0.5pt" stroke-dasharray="none" points="497.712,659.490 497.712,55.575 "/>
  <g transform="translate(133.254,663.990)">
    <g transform="rotate(-0.0)">
      <text x="0.000" y="0.000" font-family="Helvetica" text-anchor="end" font-size="10pt" fill="#000000" >0</text>
    </g>
  </g>
  <g transform="translate(133.254,577.716)">
    <g transform="rotate(-0.0)">
      <text x="0.000" y="0.000" font-family="Helvetica" text-anchor="end" font-size="10pt" fill="#000000" >5</text>
    </g>
  </g>
  <g transform="translate(133.254,491.443)">
    <g transform="rotate(-0.0)">
      <text x="0.000" y="0.000" font-family="Helvetica" text-anchor="end" font-size="10pt" fill="#000000" >10</text>
    </g>
  </g>
  <g transform="translate(133.254,405.169)">
    <g transform="rotate(-0.0)">
      <text x="0.000" y="0.000" font-family="Helvetica" text-anchor="end" font-size="10pt" fill="#000000" >15</text>
    </g>
  </g>
  <g transform="translate(133.254,318.896)">
    <g transform="rotate(-0.0)">
      <text x="0.000" y="0.000" font-family="Helvetica" text-anchor="end" font-size="10pt" fill="#000000" >20</text>
    </g>
  </g>
  <g transform="translate(133.254,232.622)">
    <g transform="rotate(-0.0)">
      <text x="0.000" y="0.000" font-family="Helvetica" text-anchor="end" font-size="10pt" fill="#000000" >25</text>
    </g>
  </g>
  <g transform="translate(133.254,146.349)">
    <g transform="rotate(-0.0)">
      <text x="0.000" y="0.000" font-family="Helvetica" text-anchor="end" font-size="10pt" fill="#000000" >30</text>
    </g>
  </g>
  <g transform="translate(133.254,60.075)">
    <g transform="rotate(-0.0)">
      <text x="0.000" y="0.000" font-family="Helvetica" text-anchor="end" font-size="10pt" fill="#000000" >35</text>
    </g>
  </g>
      <polyline fill="none" stroke="#000000" stroke-width="0.5pt" stroke-dasharray="none" points="140.400,659.490 140.400,653.451 "/>
      <polyline fill="none" stroke="#000000" stroke-width="0.5pt" stroke-dasharray="none" points="140.400,659.490 140.400,659.490 "/>
    </g>
  </g>
  <g id ="ID000010">
  <clipPath id="ID000011">
    <rect x="405.750" y="63.750" width="86.500" height="54.250"/>
  </clipPath>
      <polygon fill="#ffffff" fill-opacity="1.00" stroke="none" stroke-width="0.5pt" stroke-opacity="1.00" stroke-dasharray="none" points="405.750,118.000 492.250,118.000 492.250,63.750 405.750,63.750 "/>
      <polygon fill="#ffffff" fill-opacity="1.00" stroke="none" stroke-width="0.5pt" stroke-opacity="1.00" stroke-dasharray="none" points="405.750,63.750 492.250,63.750 492.250,63.750 405.750,63.750 "/>
      <polygon fill="#ffffff" fill-opacity="1.00" stroke="none" stroke-width="0.5pt" stroke-opacity="1.00" stroke-dasharray="none" points="405.750,118.000 405.750,118.000 405.750,63.750 405.750,63.750 "/>
    <g>
<g id="ID000012" >
  <g transform="translate(455.538,79.803)">
    <g transform="rotate(-0.0)">
      <text x="0.000" y="0.000" font-family="Helvetica" text-anchor="start" font-size="10pt" fill="#000000" >GPU</text>
    </g>
  </g>
</g>
<g id="ID000013" clip-path="url(#ID000011)" >
      <polyline fill="none" stroke="#0000ff" stroke-width="0.5pt" stroke-dasharray="none" points="413.250,74.250 450.750,74.250 "/>
<g>
</g>
</g>
<g id="ID000014" clip-path="url(#ID000011)" >
<g>
      <polyline fill="#0000ff" fill-opacity="1.00" stroke="#0000ff" stroke-width="0.5pt" stroke-opacity="1.00" stroke-dasharray="none" points="429.200,77.050 434.800,71.450 "/>
      <polyline fill="#0000ff" fill-opacity="1.00" stroke="#0000ff" stroke-width="0.5pt" stroke-opacity="1.00" stroke-dasharray="none" points="429.200,71.450 434.800,77.050 "/>
</g>
</g>
<g id="ID000015" >
  <g transform="translate(455.538,96.882)">
    <g transform="rotate(-0.0)">
      <text x="0.000" y="0.000" font-family="Helvetica" text-anchor="start" font-size="10pt" fill="#000000" >CPU</text>
    </g>
  </g>
</g>
<g id="ID000016" clip-path="url(#ID000011)" >
      <polyline fill="none" stroke="#ff0000" stroke-width="0.5pt" stroke-dasharray="none" points="413.250,90.875 450.750,90.875 "/>
<g>
</g>
</g>
<g id="ID000017" clip-path="url(#ID000011)" >
<g>
      <polyline fill="#ff0000" fill-opacity="1.00" stroke="#ff0000" stroke-width="0.5pt" stroke-opacity="1.00" stroke-dasharray="none" points="428.000,90.875 436.000,90.875 "/>
      <polyline fill="#ff0000" fill-opacity="1.00" stroke="#ff0000" stroke-width="0.5pt" stroke-opacity="1.00" stroke-dasharray="none" points="432.000,86.875 432.000,94.875 "/>
</g>
</g>
<g id="ID000018" >
  <g transform="translate(455.538,112.956)">
    <g transform="rotate(-0.0)">
      <text x="0.000" y="0.000" font-family="Helvetica" text-anchor="start" font-size="10pt" fill="#000000" >BLAS</text>
    </g>
  </g>
</g>
<g id="ID000019" clip-path="url(#ID000011)" >
      <polyline fill="none" stroke="#00ff00" stroke-width="0.5pt" stroke-dasharray="none" points="413.250,107.500 450.750,107.500 "/>
<g>
</g>
</g>
<g id="ID000020" clip-path="url(#ID000011)" >
<g>
      <polyline fill="#00ff00" fill-opacity="1.00" stroke="#00ff00" stroke-width="0.5pt" stroke-opacity="1.00" stroke-dasharray="none" points="428.000,107.500 436.000,107.500 "/>
      <polyline fill="#00ff00" fill-opacity="1.00" stroke="#00ff00" stroke-width="0.5pt" stroke-opacity="1.00" stroke-dasharray="none" points="432.000,103.500 432.000,111.500 "/>
</g>
</g>
<g id="ID000021" >
</g>
<g id="ID000022" >
</g>
<g id="ID000023" >
</g>
    </g>
    <g>
      <polyline fill="none" stroke="#000000" stroke-width="0.5pt" stroke-dasharray="none" points="405.750,118.000 492.250,118.000 "/>
      <polyline fill="none" stroke="#000000" stroke-width="0.5pt" stroke-dasharray="none" points="405.750,63.750 492.250,63.750 "/>
      <polyline fill="none" stroke="#000000" stroke-width="0.5pt" stroke-dasharray="none" points="405.750,118.000 405.750,63.750 "/>
      <polyline fill="none" stroke="#000000" stroke-width="0.5pt" stroke-dasharray="none" points="492.250,118.000 492.250,63.750 "/>
      <polyline fill="none" stroke="#000000" stroke-width="0.5pt" stroke-dasharray="none" points="405.750,118.000 405.750,117.457 "/>
      <polyline fill="none" stroke="#000000" stroke-width="0.5pt" stroke-dasharray="none" points="405.750,118.000 405.750,118.000 "/>
    </g>
  </g>
  <g id ="ID000024">
  <clipPath id="ID000025">
    <rect x="615.968" y="55.575" width="357.312" height="603.915"/>
  </clipPath>
      <polygon fill="#ffffff" fill-opacity="1.00" stroke="none" stroke-width="0.5pt" stroke-opacity="1.00" stroke-dasharray="none" points="615.968,659.490 973.280,659.490 973.280,55.575 615.968,55.575 "/>
      <polygon fill="#ffffff" fill-opacity="1.00" stroke="none" stroke-width="0.5pt" stroke-opacity="1.00" stroke-dasharray="none" points="615.968,55.575 973.280,55.575 973.280,55.575 615.968,55.575 "/>
      <polygon fill="#ffffff" fill-opacity="1.00" stroke="none" stroke-width="0.5pt" stroke-opacity="1.00" stroke-dasharray="none" points="615.968,659.490 615.968,659.490 615.968,55.575 615.968,55.575 "/>
    <g>
<g id="ID000026" clip-path="url(#ID000025)" >
      <polyline fill="none" stroke="#0000ff" stroke-width="0.5pt" stroke-dasharray="none" points="644.553,556.019 673.138,533.070 701.723,500.459 730.308,491.602 758.893,493.212 787.478,486.368 816.063,454.964 844.648,470.263 873.233,448.120 901.818,415.106 930.402,408.261 "/>
<g>
      <polyline fill="#0000ff" fill-opacity="1.00" stroke="#0000ff" stroke-width="0.5pt" stroke-opacity="1.00" stroke-dasharray="none" points="641.753,558.819 647.353,553.219 "/>
      <polyline fill="#0000ff" fill-opacity="1.00" stroke="#0000ff" stroke-width="0.5pt" stroke-opacity="1.00" stroke-dasharray="none" points="641.753,553.219 647.353,558.819 "/>
      <polyline fill="#0000ff" fill-opacity="1.00" stroke="#0000ff" stroke-width="0.5pt" stroke-opacity="1.00" stroke-dasharray="none" points="670.338,535.870 675.938,530.270 "/>
      <polyline fill="#0000ff" fill-opacity="1.00" stroke="#0000ff" stroke-width="0.5pt" stroke-opacity="1.00" stroke-dasharray="none" points="670.338,530.270 675.938,535.870 "/>
      <polyline fill="#0000ff" fill-opacity="1.00" stroke="#0000ff" stroke-width="0.5pt" stroke-opacity="1.00" stroke-dasharray="none" points="698.923,503.259 704.523,497.659 "/>
      <polyline fill="#0000ff" fill-opacity="1.00" stroke="#0000ff" stroke-width="0.5pt" stroke-opacity="1.00" stroke-dasharray="none" points="698.923,497.659 704.523,503.259 "/>
      <polyline fill="#0000ff" fill-opacity="1.00" stroke="#0000ff" stroke-width="0.5pt" stroke-opacity="1.00" stroke-dasharray="none" points="727.508,494.402 733.108,488.802 "/>
      <polyline fill="#0000ff" fill-opacity="1.00" stroke="#0000ff" stroke-width="0.5pt" stroke-opacity="1.00" stroke-dasharray="none" points="727.508,488.802 733.108,494.402 "/>
      <polyline fill="#0000ff" fill-opacity="1.00" stroke="#0000ff" stroke-width="0.5pt" stroke-opacity="1.00" stroke-dasharray="none" points="756.093,496.012 761.693,490.412 "/>
      <polyline fill="#0000ff" fill-opacity="1.00" stroke="#0000ff" stroke-width="0.5pt" stroke-opacity="1.00" stroke-dasharray="none" points="756.093,490.412 761.693,496.012 "/>
      <polyline fill="#0000ff" fill-opacity="1.00" stroke="#0000ff" stroke-width="0.5pt" stroke-opacity="1.00" stroke-dasharray="none" points="784.678,489.168 790.278,483.568 "/>
      <polyline fill="#0000ff" fill-opacity="1.00" stroke="#0000ff" stroke-width="0.5pt" stroke-opacity="1.00" stroke-dasharray="none" points="784.678,483.568 790.278,489.168 "/>
      <polyline fill="#0000ff" fill-opacity="1.00" stroke="#0000ff" stroke-width="0.5pt" stroke-opacity="1.00" stroke-dasharray="none" points="813.263,457.764 818.863,452.164 "/>
      <polyline fill="#0000ff" fill-opacity="1.00" stroke="#0000ff" stroke-width="0.5pt" stroke-opacity="1.00" stroke-dasharray="none" points="813.263,452.164 818.863,457.764 "/>
      <polyline fill="#0000ff" fill-opacity="1.00" stroke="#0000ff" stroke-width="0.5pt" stroke-opacity="1.00" stroke-dasharray="none" points="841.848,473.063 847.448,467.463 "/>
      <polyline fill="#0000ff" fill-opacity="1.00" stroke="#0000ff" stroke-width="0.5pt" stroke-opacity="1.00" stroke-dasharray="none" points="841.848,467.463 847.448,473.063 "/>
      <polyline fill="#0000ff" fill-opacity="1.00" stroke="#0000ff" stroke-width="0.5pt" stroke-opacity="1.00" stroke-dasharray="none" points="870.433,450.920 876.033,445.320 "/>
      <polyline fill="#0000ff" fill-opacity="1.00" stroke="#0000ff" stroke-width="0.5pt" stroke-opacity="1.00" stroke-dasharray="none" points="870.433,445.320 876.033,450.920 "/>
      <polyline fill="#0000ff" fill-opacity="1.00" stroke="#0000ff" stroke-width="0.5pt" stroke-opacity="1.00" stroke-dasharray="none" points="899.018,417.906 904.618,412.306 "/>
      <polyline fill="#0000ff" fill-opacity="1.00" stroke="#0000ff" stroke-width="0.5pt" stroke-opacity="1.00" stroke-dasharray="none" points="899.018,412.306 904.618,417.906 "/>
      <polyline fill="#0000ff" fill-opacity="1.00" stroke="#0000ff" stroke-width="0.5pt" stroke-opacity="1.00" stroke-dasharray="none" points="927.602,411.061 933.202,405.461 "/>
      <polyline fill="#0000ff" fill-opacity="1.00" stroke="#0000ff" stroke-width="0.5pt" stroke-opacity="1.00" stroke-dasharray="none" points="927.602,405.461 933.202,411.061 "/>
</g>
</g>
<g id="ID000027" clip-path="url(#ID000025)" >
      <polyline fill="none" stroke="#ff0000" stroke-width="0.5pt" stroke-dasharray="none" points="644.553,509.316 673.138,505.693 701.723,488.381 730.308,421.547 758.893,318.882 787.478,299.959 816.063,232.321 844.648,201.320 873.233,191.657 901.818,160.254 930.402,140.123 "/>
<g>
      <polyline fill="#ff0000" fill-opacity="1.00" stroke="#ff0000" stroke-width="0.5pt" stroke-opacity="1.00" stroke-dasharray="none" points="640.553,509.316 648.553,509.316 "/>
      <polyline fill="#ff0000" fill-opacity="1.00" stroke="#ff0000" stroke-width="0.5pt" stroke-opacity="1.00" stroke-dasharray="none" points="644.553,505.316 644.553,513.316 "/>
      <polyline fill="#ff0000" fill-opacity="1.00" stroke="#ff0000" stroke-width="0.5pt" stroke-opacity="1.00" stroke-dasharray="none" points="669.138,505.693 677.138,505.693 "/>
      <polyline fill="#ff0000" fill-opacity="1.00" stroke="#ff0000" stroke-width="0.5pt" stroke-opacity="1.00" stroke-dasharray="none" points="673.138,501.693 673.138,509.693 "/>
      <polyline fill="#ff0000" fill-opacity="1.00" stroke="#ff0000" stroke-width="0.5pt" stroke-opacity="1.00" stroke-dasharray="none" points="697.723,488.381 705.723,488.381 "/>
      <polyline fill="#ff0000" fill-opacity="1.00" stroke="#ff0000" stroke-width="0.5pt" stroke-opacity="1.00" stroke-dasharray="none" points="701.723,484.381 701.723,492.381 "/>
      <polyline fill="#ff0000" fill-opacity="1.00" stroke="#ff0000" stroke-width="0.5pt" stroke-opacity="1.00" stroke-dasharray="none" points="726.308,421.547 734.308,421.547 "/>
      <polyline fill="#ff0000" fill-opacity="1.00" stroke="#ff0000" stroke-width="0.5pt" stroke-opacity="1.00" stroke-dasharray="none" points="730.308,417.547 730.308,425.547 "/>
      <polyline fill="#ff0000" fill-opacity="1.00" stroke="#ff0000" stroke-width="0.5pt" stroke-opacity="1.00" stroke-dasharray="none" points="754.893,318.882 762.893,318.882 "/>
      <polyline fill="#ff0000" fill-opacity="1.00" stroke="#ff0000" stroke-width="0.5pt" stroke-opacity="1.00" stroke-dasharray="none" points="758.893,314.882 758.893,322.882 "/>
      <polyline fill="#ff0000" fill-opacity="1.00" stroke="#ff0000" stroke-width="0.5pt" stroke-opacity="1.00" stroke-dasharray="none" points="783.478,299.959 791.478,299.959 "/>
      <polyline fill="#ff0000" fill-opacity="1.00" stroke="#ff0000" stroke-width="0.5pt" stroke-opacity="1.00" stroke-dasharray="none" points="787.478,295.959 787.478,303.959 "/>
      <polyline fill="#ff0000" fill-opacity="1.00" stroke="#ff0000" stroke-width="0.5pt" stroke-opacity="1.00" stroke-dasharray="none" points="812.063,232.321 820.063,232.321 "/>
      <polyline fill="#ff0000" fill-opacity="1.00" stroke="#ff0000" stroke-width="0.5pt" stroke-opacity="1.00" stroke-dasharray="none" points="816.063,228.321 816.063,236.321 "/>
      <polyline fill="#ff0000" fill-opacity="1.00" stroke="#ff0000" stroke-width="0.5pt" stroke-opacity="1.00" stroke-dasharray="none" points="840.648,201.320 848.648,201.320 "/>
      <polyline fill="#ff0000" fill-opacity="1.00" stroke="#ff0000" stroke-width="0.5pt" stroke-opacity="1.00" stroke-dasharray="none" points="844.648,197.320 844.648,205.320 "/>
      <polyline fill="#ff0000" fill-opacity="1.00" stroke="#ff0000" stroke-width="0.5pt" stroke-opacity="1.00" stroke-dasharray="none" points="869.233,191.657 877.233,191.657 "/>
      <polyline fill="#ff0000" fill-opacity="1.00" stroke="#ff0000" stroke-width="0.5pt" stroke-opacity="1.00" stroke-dasharray="none" points="873.233,187.657 873.233,195.657 "/>
      <polyline fill="#ff0000" fill-opacity="1.00" stroke="#ff0000" stroke-width="0.5pt" stroke-opacity="1.00" stroke-dasharray="none" points="897.818,160.254 905.818,160.254 "/>
      <polyline fill="#ff0000" fill-opacity="1.00" stroke="#ff0000" stroke-width="0.5pt" stroke-opacity="1.00" stroke-dasharray="none" points="901.818,156.254 901.818,164.254 "/>
      <polyline fill="#ff0000" fill-opacity="1.00" stroke="#ff0000" stroke-width="0.5pt" stroke-opacity="1.00" stroke-dasharray="none" points="926.402,140.123 934.402,140.123 "/>
      <polyline fill="#ff0000" fill-opacity="1.00" stroke="#ff0000" stroke-width="0.5pt" stroke-opacity="1.00" stroke-dasharray="none" points="930.402,136.123 930.402,144.123 "/>
</g>
</g>
<g id="ID000028" clip-path="url(#ID000025)" >
      <polyline fill="none" stroke="#00ff00" stroke-width="0.5pt" stroke-dasharray="none" points="644.553,566.084 673.138,535.084 701.723,482.744 730.308,440.470 758.893,359.546 787.478,303.180 816.063,246.412 844.648,220.242 873.233,187.228 901.818,178.371 930.402,130.460 "/>
<g>
      <polyline fill="#00ff00" fill-opacity="1.00" stroke="#00ff00" stroke-width="0.5pt" stroke-opacity="1.00" stroke-dasharray="none" points="640.553,566.084 648.553,566.084 "/>
      <polyline fill="#00ff00" fill-opacity="1.00" stroke="#00ff00" stroke-width="0.5pt" stroke-opacity="1.00" stroke-dasharray="none" points="644.553,562.084 644.553,570.084 "/>
      <polyline fill="#00ff00" fill-opacity="1.00" stroke="#00ff00" stroke-width="0.5pt" stroke-opacity="1.00" stroke-dasharray="none" points="669.138,535.084 677.138,535.084 "/>
      <polyline fill="#00ff00" fill-opacity="1.00" stroke="#00ff00" stroke-width="0.5pt" stroke-opacity="1.00" stroke-dasharray="none" points="673.138,531.084 673.138,539.084 "/>
      <polyline fill="#00ff00" fill-opacity="1.00" stroke="#00ff00" stroke-width="0.5pt" stroke-opacity="1.00" stroke-dasharray="none" points="697.723,482.744 705.723,482.744 "/>
      <polyline fill="#00ff00" fill-opacity="1.00" stroke="#00ff00" stroke-width="0.5pt" stroke-opacity="1.00" stroke-dasharray="none" points="701.723,478.744 701.723,486.744 "/>
      <polyline fill="#00ff00" fill-opacity="1.00" stroke="#00ff00" stroke-width="0.5pt" stroke-opacity="1.00" stroke-dasharray="none" points="726.308,440.470 734.308,440.470 "/>
      <polyline fill="#00ff00" fill-opacity="1.00" stroke="#00ff00" stroke-width="0.5pt" stroke-opacity="1.00" stroke-dasharray="none" points="730.308,436.470 730.308,444.470 "/>
      <polyline fill="#00ff00" fill-opacity="1.00" stroke="#00ff00" stroke-width="0.5pt" stroke-opacity="1.00" stroke-dasharray="none" points="754.893,359.546 762.893,359.546 "/>
      <polyline fill="#00ff00" fill-opacity="1.00" stroke="#00ff00" stroke-width="0.5pt" stroke-opacity="1.00" stroke-dasharray="none" points="758.893,355.546 758.893,363.546 "/>
      <polyline fill="#00ff00" fill-opacity="1.00" stroke="#00ff00" stroke-width="0.5pt" stroke-opacity="1.00" stroke-dasharray="none" points="783.478,303.180 791.478,303.180 "/>
      <polyline fill="#00ff00" fill-opacity="1.00" stroke="#00ff00" stroke-width="0.5pt" stroke-opacity="1.00" stroke-dasharray="none" points="787.478,299.180 787.478,307.180 "/>
      <polyline fill="#00ff00" fill-opacity="1.00" stroke="#00ff00" stroke-width="0.5pt" stroke-opacity="1.00" stroke-dasharray="none" points="812.063,246.412 820.063,246.412 "/>
      <polyline fill="#00ff00" fill-opacity="1.00" stroke="#00ff00" stroke-width="0.5pt" stroke-opacity="1.00" stroke-dasharray="none" points="816.063,242.412 816.063,250.412 "/>
      <polyline fill="#00ff00" fill-opacity="1.00" stroke="#00ff00" stroke-width="0.5pt" stroke-opacity="1.00" stroke-dasharray="none" points="840.648,220.242 848.648,220.242 "/>
      <polyline fill="#00ff00" fill-opacity="1.00" stroke="#00ff00" stroke-width="0.5pt" stroke-opacity="1.00" stroke-dasharray="none" points="844.648,216.242 844.648,224.242 "/>
      <polyline fill="#00ff00" fill-opacity="1.00" stroke="#00ff00" stroke-width="0.5pt" stroke-opacity="1.00" stroke-dasharray="none" points="869.233,187.228 877.233,187.228 "/>
      <polyline fill="#00ff00" fill-opacity="1.00" stroke="#00ff00" stroke-width="0.5pt" stroke-opacity="1.00" stroke-dasharray="none" points="873.233,183.228 873.233,191.228 "/>
      <polyline fill="#00ff00" fill-opacity="1.00" stroke="#00ff00" stroke-width="0.5pt" stroke-opacity="1.00" stroke-dasharray="none" points="897.818,178.371 905.818,178.371 "/>
      <polyline fill="#00ff00" fill-opacity="1.00" stroke="#00ff00" stroke-width="0.5pt" stroke-opacity="1.00" stroke-dasharray="none" points="901.818,174.371 901.818,182.371 "/>
      <polyline fill="#00ff00" fill-opacity="1.00" stroke="#00ff00" stroke-width="0.5pt" stroke-opacity="1.00" stroke-dasharray="none" points="926.402,130.460 934.402,130.460 "/>
      <polyline fill="#00ff00" fill-opacity="1.00" stroke="#00ff00" stroke-width="0.5pt" stroke-opacity="1.00" stroke-dasharray="none" points="930.402,126.460 930.402,134.460 "/>
</g>
</g>
<g id="ID000029" >
  <g transform="translate(794.624,47.567)">
    <g transform="rotate(-0.0)">
      <text x="0.000" y="0.000" font-family="Helvetica" text-anchor="middle" font-size="10pt" fill="#000000" >Outer tolerance: 0.001   inner tolerance: 0.0001</text>
    </g>
  </g>
</g>
<g id="ID000030" >
  <g transform="translate(580.940,358.534)">
    <g transform="rotate(-90.0)">
      <text x="0.000" y="0.000" font-family="Helvetica" text-anchor="middle" font-size="10pt" fill="#000000" >Average iterations</text>
    </g>
  </g>
</g>
<g id="ID000031" >
  <g transform="translate(793.623,691.524)">
    <g transform="rotate(-0.0)">
      <text x="0.000" y="0.000" font-family="Helvetica" text-anchor="middle" font-size="10pt" fill="#000000" >Number of Users</text>
    </g>
  </g>
</g>
    </g>
    <g>
      <polyline fill="none" stroke="#000000" stroke-width="0.5pt" stroke-dasharray="none" points="687.431,659.490 687.431,653.451 "/>
      <polyline fill="none" stroke="#000000" stroke-width="0.5pt" stroke-dasharray="none" points="758.893,659.490 758.893,653.451 "/>
      <polyline fill="none" stroke="#000000" stroke-width="0.5pt" stroke-dasharray="none" points="830.355,659.490 830.355,653.451 "/>
      <polyline fill="none" stroke="#000000" stroke-width="0.5pt" stroke-dasharray="none" points="901.818,659.490 901.818,653.451 "/>
      <polyline fill="none" stroke="#000000" stroke-width="0.5pt" stroke-dasharray="none" points="615.968,659.490 973.280,659.490 "/>
      <polyline fill="none" stroke="#000000" stroke-width="0.5pt" stroke-dasharray="none" points="687.431,55.575 687.431,61.614 "/>
      <polyline fill="none" stroke="#000000" stroke-width="0.5pt" stroke-dasharray="none" points="758.893,55.575 758.893,61.614 "/>
      <polyline fill="none" stroke="#000000" stroke-width="0.5pt" stroke-dasharray="none" points="830.355,55.575 830.355,61.614 "/>
      <polyline fill="none" stroke="#000000" stroke-width="0.5pt" stroke-dasharray="none" points="901.818,55.575 901.818,61.614 "/>
      <polyline fill="none" stroke="#000000" stroke-width="0.5pt" stroke-dasharray="none" points="615.968,55.575 973.280,55.575 "/>
  <g transform="translate(615.968,683.368)">
    <g transform="rotate(-0.0)">
      <text x="0.000" y="0.000" font-family="Helvetica" text-anchor="middle" font-size="10pt" fill="#000000" >0</text>
    </g>
  </g>
  <g transform="translate(687.431,683.368)">
    <g transform="rotate(-0.0)">
      <text x="0.000" y="0.000" font-family="Helvetica" text-anchor="middle" font-size="10pt" fill="#000000" >50</text>
    </g>
  </g>
  <g transform="translate(758.893,683.368)">
    <g transform="rotate(-0.0)">
      <text x="0.000" y="0.000" font-family="Helvetica" text-anchor="middle" font-size="10pt" fill="#000000" >100</text>
    </g>
  </g>
  <g transform="translate(830.355,683.368)">
    <g transform="rotate(-0.0)">
      <text x="0.000" y="0.000" font-family="Helvetica" text-anchor="middle" font-size="10pt" fill="#000000" >150</text>
    </g>
  </g>
  <g transform="translate(901.818,683.368)">
    <g transform="rotate(-0.0)">
      <text x="0.000" y="0.000" font-family="Helvetica" text-anchor="middle" font-size="10pt" fill="#000000" >200</text>
    </g>
  </g>
  <g transform="translate(973.280,683.368)">
    <g transform="rotate(-0.0)">
      <text x="0.000" y="0.000" font-family="Helvetica" text-anchor="middle" font-size="10pt" fill="#000000" >250</text>
    </g>
  </g>
      <polyline fill="none" stroke="#000000" stroke-width="0.5pt" stroke-dasharray="none" points="615.968,558.837 622.007,558.837 "/>
      <polyline fill="none" stroke="#000000" stroke-width="0.5pt" stroke-dasharray="none" points="615.968,458.185 622.007,458.185 "/>
      <polyline fill="none" stroke="#000000" stroke-width="0.5pt" stroke-dasharray="none" points="615.968,357.533 622.007,357.533 "/>
      <polyline fill="none" stroke="#000000" stroke-width="0.5pt" stroke-dasharray="none" points="615.968,256.880 622.007,256.880 "/>
      <polyline fill="none" stroke="#000000" stroke-width="0.5pt" stroke-dasharray="none" points="615.968,156.228 622.007,156.228 "/>
      <polyline fill="none" stroke="#000000" stroke-width="0.5pt" stroke-dasharray="none" points="615.968,659.490 615.968,55.575 "/>
      <polyline fill="none" stroke="#000000" stroke-width="0.5pt" stroke-dasharray="none" points="973.280,558.837 967.241,558.837 "/>
      <polyline fill="none" stroke="#000000" stroke-width="0.5pt" stroke-dasharray="none" points="973.280,458.185 967.241,458.185 "/>
      <polyline fill="none" stroke="#000000" stroke-width="0.5pt" stroke-dasharray="none" points="973.280,357.533 967.241,357.533 "/>
      <polyline fill="none" stroke="#000000" stroke-width="0.5pt" stroke-dasharray="none" points="973.280,256.880 967.241,256.880 "/>
      <polyline fill="none" stroke="#000000" stroke-width="0.5pt" stroke-dasharray="none" points="973.280,156.228 967.241,156.228 "/>
      <polyline fill="none" stroke="#000000" stroke-width="0.5pt" stroke-dasharray="none" points="973.280,659.490 973.280,55.575 "/>
  <g transform="translate(608.822,663.990)">
    <g transform="rotate(-0.0)">
      <text x="0.000" y="0.000" font-family="Helvetica" text-anchor="end" font-size="10pt" fill="#000000" >0</text>
    </g>
  </g>
  <g transform="translate(608.822,563.337)">
    <g transform="rotate(-0.0)">
      <text x="0.000" y="0.000" font-family="Helvetica" text-anchor="end" font-size="10pt" fill="#000000" >50</text>
    </g>
  </g>
  <g transform="translate(608.822,462.685)">
    <g transform="rotate(-0.0)">
      <text x="0.000" y="0.000" font-family="Helvetica" text-anchor="end" font-size="10pt" fill="#000000" >100</text>
    </g>
  </g>
  <g transform="translate(608.822,362.033)">
    <g transform="rotate(-0.0)">
      <text x="0.000" y="0.000" font-family="Helvetica" text-anchor="end" font-size="10pt" fill="#000000" >150</text>
    </g>
  </g>
  <g transform="translate(608.822,261.380)">
    <g transform="rotate(-0.0)">
      <text x="0.000" y="0.000" font-family="Helvetica" text-anchor="end" font-size="10pt" fill="#000000" >200</text>
    </g>
  </g>
  <g transform="translate(608.822,160.728)">
    <g transform="rotate(-0.0)">
      <text x="0.000" y="0.000" font-family="Helvetica" text-anchor="end" font-size="10pt" fill="#000000" >250</text>
    </g>
  </g>
  <g transform="translate(608.822,60.075)">
    <g transform="rotate(-0.0)">
      <text x="0.000" y="0.000" font-family="Helvetica" text-anchor="end" font-size="10pt" fill="#000000" >300</text>
    </g>
  </g>
      <polyline fill="none" stroke="#000000" stroke-width="0.5pt" stroke-dasharray="none" points="615.968,659.490 615.968,653.451 "/>
      <polyline fill="none" stroke="#000000" stroke-width="0.5pt" stroke-dasharray="none" points="615.968,659.490 615.968,659.490 "/>
    </g>
  </g>
  </g>
</svg>
