<?xml version="1.0" encoding="utf-8" standalone="no"?><!DOCTYPE svg PUBLIC "-//W3C//DTD SVG 1.1//EN" "http://www.w3.org/Graphics/SVG/1.1/DTD/svg11.dtd">
<svg preserveAspectRatio="xMinYMin meet" width="100%" height="100%" viewBox="0 0 1080.000 900.000"  version="1.1" xmlns="http://www.w3.org/2000/svg" xmlns:xlink="http://www.w3.org/1999/xlink">
  <desc>Matlab Figure Converted by PLOT2SVG written by Juerg Schwizer</desc>
  <g id="topgroup">
  <rect x="0" y="0" width="1080.000" height="900.000" fill="#ffffff" stroke="none" />
  <g id ="ID000000">
  <clipPath id="ID000001">
    <rect x="140.400" y="67.500" width="361.432" height="733.500"/>
  </clipPath>
      <polygon fill="#ffffff" fill-opacity="1.00" stroke="none" stroke-width="0.5pt" stroke-opacity="1.00" stroke-dasharray="none" points="140.400,801.000 501.832,801.000 501.832,67.500 140.400,67.500 "/>
      <polygon fill="#ffffff" fill-opacity="1.00" stroke="none" stroke-width="0.5pt" stroke-opacity="1.00" stroke-dasharray="none" points="140.400,67.500 501.832,67.500 501.832,67.500 140.400,67.500 "/>
      <polygon fill="#ffffff" fill-opacity="1.00" stroke="none" stroke-width="0.5pt" stroke-opacity="1.00" stroke-dasharray="none" points="140.400,801.000 140.400,801.000 140.400,67.500 140.400,67.500 "/>
    <g>
<g id="ID000002" clip-path="url(#ID000001)" >
      <polyline fill="none" stroke="#0000ff" stroke-width="0.5pt" stroke-dasharray="none" points="169.315,725.979 198.229,710.608 227.144,695.609 256.058,691.843 284.973,681.651 313.887,684.175 342.802,678.405 371.716,680.380 400.631,660.404 429.545,647.319 458.460,631.295 "/>
<g>
      <polyline fill="#0000ff" fill-opacity="1.00" stroke="#0000ff" stroke-width="0.5pt" stroke-opacity="1.00" stroke-dasharray="none" points="166.515,728.779 172.115,723.179 "/>
      <polyline fill="#0000ff" fill-opacity="1.00" stroke="#0000ff" stroke-width="0.5pt" stroke-opacity="1.00" stroke-dasharray="none" points="166.515,723.179 172.115,728.779 "/>
      <polyline fill="#0000ff" fill-opacity="1.00" stroke="#0000ff" stroke-width="0.5pt" stroke-opacity="1.00" stroke-dasharray="none" points="195.429,713.408 201.029,707.808 "/>
      <polyline fill="#0000ff" fill-opacity="1.00" stroke="#0000ff" stroke-width="0.5pt" stroke-opacity="1.00" stroke-dasharray="none" points="195.429,707.808 201.029,713.408 "/>
      <polyline fill="#0000ff" fill-opacity="1.00" stroke="#0000ff" stroke-width="0.5pt" stroke-opacity="1.00" stroke-dasharray="none" points="224.344,698.409 229.944,692.809 "/>
      <polyline fill="#0000ff" fill-opacity="1.00" stroke="#0000ff" stroke-width="0.5pt" stroke-opacity="1.00" stroke-dasharray="none" points="224.344,692.809 229.944,698.409 "/>
      <polyline fill="#0000ff" fill-opacity="1.00" stroke="#0000ff" stroke-width="0.5pt" stroke-opacity="1.00" stroke-dasharray="none" points="253.258,694.643 258.858,689.043 "/>
      <polyline fill="#0000ff" fill-opacity="1.00" stroke="#0000ff" stroke-width="0.5pt" stroke-opacity="1.00" stroke-dasharray="none" points="253.258,689.043 258.858,694.643 "/>
      <polyline fill="#0000ff" fill-opacity="1.00" stroke="#0000ff" stroke-width="0.5pt" stroke-opacity="1.00" stroke-dasharray="none" points="282.173,684.451 287.773,678.851 "/>
      <polyline fill="#0000ff" fill-opacity="1.00" stroke="#0000ff" stroke-width="0.5pt" stroke-opacity="1.00" stroke-dasharray="none" points="282.173,678.851 287.773,684.451 "/>
      <polyline fill="#0000ff" fill-opacity="1.00" stroke="#0000ff" stroke-width="0.5pt" stroke-opacity="1.00" stroke-dasharray="none" points="311.087,686.975 316.687,681.375 "/>
      <polyline fill="#0000ff" fill-opacity="1.00" stroke="#0000ff" stroke-width="0.5pt" stroke-opacity="1.00" stroke-dasharray="none" points="311.087,681.375 316.687,686.975 "/>
      <polyline fill="#0000ff" fill-opacity="1.00" stroke="#0000ff" stroke-width="0.5pt" stroke-opacity="1.00" stroke-dasharray="none" points="340.002,681.205 345.602,675.605 "/>
      <polyline fill="#0000ff" fill-opacity="1.00" stroke="#0000ff" stroke-width="0.5pt" stroke-opacity="1.00" stroke-dasharray="none" points="340.002,675.605 345.602,681.205 "/>
      <polyline fill="#0000ff" fill-opacity="1.00" stroke="#0000ff" stroke-width="0.5pt" stroke-opacity="1.00" stroke-dasharray="none" points="368.916,683.180 374.516,677.580 "/>
      <polyline fill="#0000ff" fill-opacity="1.00" stroke="#0000ff" stroke-width="0.5pt" stroke-opacity="1.00" stroke-dasharray="none" points="368.916,677.580 374.516,683.180 "/>
      <polyline fill="#0000ff" fill-opacity="1.00" stroke="#0000ff" stroke-width="0.5pt" stroke-opacity="1.00" stroke-dasharray="none" points="397.831,663.204 403.431,657.604 "/>
      <polyline fill="#0000ff" fill-opacity="1.00" stroke="#0000ff" stroke-width="0.5pt" stroke-opacity="1.00" stroke-dasharray="none" points="397.831,657.604 403.431,663.204 "/>
      <polyline fill="#0000ff" fill-opacity="1.00" stroke="#0000ff" stroke-width="0.5pt" stroke-opacity="1.00" stroke-dasharray="none" points="426.745,650.119 432.345,644.519 "/>
      <polyline fill="#0000ff" fill-opacity="1.00" stroke="#0000ff" stroke-width="0.5pt" stroke-opacity="1.00" stroke-dasharray="none" points="426.745,644.519 432.345,650.119 "/>
      <polyline fill="#0000ff" fill-opacity="1.00" stroke="#0000ff" stroke-width="0.5pt" stroke-opacity="1.00" stroke-dasharray="none" points="455.660,634.095 461.260,628.495 "/>
      <polyline fill="#0000ff" fill-opacity="1.00" stroke="#0000ff" stroke-width="0.5pt" stroke-opacity="1.00" stroke-dasharray="none" points="455.660,628.495 461.260,634.095 "/>
</g>
</g>
<g id="ID000003" clip-path="url(#ID000001)" >
      <polyline fill="none" stroke="#ff0000" stroke-width="0.5pt" stroke-dasharray="none" points="169.315,787.653 198.229,765.723 227.144,750.024 256.058,705.056 284.973,603.640 313.887,546.307 342.802,439.519 371.716,403.899 400.631,269.392 429.545,186.974 458.460,74.902 "/>
<g>
      <polyline fill="#ff0000" fill-opacity="1.00" stroke="#ff0000" stroke-width="0.5pt" stroke-opacity="1.00" stroke-dasharray="none" points="165.315,787.653 173.315,787.653 "/>
      <polyline fill="#ff0000" fill-opacity="1.00" stroke="#ff0000" stroke-width="0.5pt" stroke-opacity="1.00" stroke-dasharray="none" points="169.315,783.653 169.315,791.653 "/>
      <polyline fill="#ff0000" fill-opacity="1.00" stroke="#ff0000" stroke-width="0.5pt" stroke-opacity="1.00" stroke-dasharray="none" points="194.229,765.723 202.229,765.723 "/>
      <polyline fill="#ff0000" fill-opacity="1.00" stroke="#ff0000" stroke-width="0.5pt" stroke-opacity="1.00" stroke-dasharray="none" points="198.229,761.723 198.229,769.723 "/>
      <polyline fill="#ff0000" fill-opacity="1.00" stroke="#ff0000" stroke-width="0.5pt" stroke-opacity="1.00" stroke-dasharray="none" points="223.144,750.024 231.144,750.024 "/>
      <polyline fill="#ff0000" fill-opacity="1.00" stroke="#ff0000" stroke-width="0.5pt" stroke-opacity="1.00" stroke-dasharray="none" points="227.144,746.024 227.144,754.024 "/>
      <polyline fill="#ff0000" fill-opacity="1.00" stroke="#ff0000" stroke-width="0.5pt" stroke-opacity="1.00" stroke-dasharray="none" points="252.058,705.056 260.058,705.056 "/>
      <polyline fill="#ff0000" fill-opacity="1.00" stroke="#ff0000" stroke-width="0.5pt" stroke-opacity="1.00" stroke-dasharray="none" points="256.058,701.056 256.058,709.056 "/>
      <polyline fill="#ff0000" fill-opacity="1.00" stroke="#ff0000" stroke-width="0.5pt" stroke-opacity="1.00" stroke-dasharray="none" points="280.973,603.640 288.973,603.640 "/>
      <polyline fill="#ff0000" fill-opacity="1.00" stroke="#ff0000" stroke-width="0.5pt" stroke-opacity="1.00" stroke-dasharray="none" points="284.973,599.640 284.973,607.640 "/>
      <polyline fill="#ff0000" fill-opacity="1.00" stroke="#ff0000" stroke-width="0.5pt" stroke-opacity="1.00" stroke-dasharray="none" points="309.887,546.307 317.887,546.307 "/>
      <polyline fill="#ff0000" fill-opacity="1.00" stroke="#ff0000" stroke-width="0.5pt" stroke-opacity="1.00" stroke-dasharray="none" points="313.887,542.307 313.887,550.307 "/>
      <polyline fill="#ff0000" fill-opacity="1.00" stroke="#ff0000" stroke-width="0.5pt" stroke-opacity="1.00" stroke-dasharray="none" points="338.802,439.519 346.802,439.519 "/>
      <polyline fill="#ff0000" fill-opacity="1.00" stroke="#ff0000" stroke-width="0.5pt" stroke-opacity="1.00" stroke-dasharray="none" points="342.802,435.519 342.802,443.519 "/>
      <polyline fill="#ff0000" fill-opacity="1.00" stroke="#ff0000" stroke-width="0.5pt" stroke-opacity="1.00" stroke-dasharray="none" points="367.716,403.899 375.716,403.899 "/>
      <polyline fill="#ff0000" fill-opacity="1.00" stroke="#ff0000" stroke-width="0.5pt" stroke-opacity="1.00" stroke-dasharray="none" points="371.716,399.899 371.716,407.899 "/>
      <polyline fill="#ff0000" fill-opacity="1.00" stroke="#ff0000" stroke-width="0.5pt" stroke-opacity="1.00" stroke-dasharray="none" points="396.631,269.392 404.631,269.392 "/>
      <polyline fill="#ff0000" fill-opacity="1.00" stroke="#ff0000" stroke-width="0.5pt" stroke-opacity="1.00" stroke-dasharray="none" points="400.631,265.392 400.631,273.392 "/>
      <polyline fill="#ff0000" fill-opacity="1.00" stroke="#ff0000" stroke-width="0.5pt" stroke-opacity="1.00" stroke-dasharray="none" points="425.545,186.974 433.545,186.974 "/>
      <polyline fill="#ff0000" fill-opacity="1.00" stroke="#ff0000" stroke-width="0.5pt" stroke-opacity="1.00" stroke-dasharray="none" points="429.545,182.974 429.545,190.974 "/>
      <polyline fill="#ff0000" fill-opacity="1.00" stroke="#ff0000" stroke-width="0.5pt" stroke-opacity="1.00" stroke-dasharray="none" points="454.460,74.902 462.460,74.902 "/>
      <polyline fill="#ff0000" fill-opacity="1.00" stroke="#ff0000" stroke-width="0.5pt" stroke-opacity="1.00" stroke-dasharray="none" points="458.460,70.902 458.460,78.902 "/>
</g>
</g>
<g id="ID000004" clip-path="url(#ID000001)" >
      <polyline fill="none" stroke="#00ff00" stroke-width="0.5pt" stroke-dasharray="none" points="169.315,792.096 198.229,767.581 227.144,742.402 256.058,700.759 284.973,545.246 313.887,539.436 342.802,468.843 371.716,436.032 400.631,334.002 429.545,242.865 458.460,121.713 "/>
<g>
      <polyline fill="#00ff00" fill-opacity="1.00" stroke="#00ff00" stroke-width="0.5pt" stroke-opacity="1.00" stroke-dasharray="none" points="165.315,792.096 173.315,792.096 "/>
      <polyline fill="#00ff00" fill-opacity="1.00" stroke="#00ff00" stroke-width="0.5pt" stroke-opacity="1.00" stroke-dasharray="none" points="169.315,788.096 169.315,796.096 "/>
      <polyline fill="#00ff00" fill-opacity="1.00" stroke="#00ff00" stroke-width="0.5pt" stroke-opacity="1.00" stroke-dasharray="none" points="194.229,767.581 202.229,767.581 "/>
      <polyline fill="#00ff00" fill-opacity="1.00" stroke="#00ff00" stroke-width="0.5pt" stroke-opacity="1.00" stroke-dasharray="none" points="198.229,763.581 198.229,771.581 "/>
      <polyline fill="#00ff00" fill-opacity="1.00" stroke="#00ff00" stroke-width="0.5pt" stroke-opacity="1.00" stroke-dasharray="none" points="223.144,742.402 231.144,742.402 "/>
      <polyline fill="#00ff00" fill-opacity="1.00" stroke="#00ff00" stroke-width="0.5pt" stroke-opacity="1.00" stroke-dasharray="none" points="227.144,738.402 227.144,746.402 "/>
      <polyline fill="#00ff00" fill-opacity="1.00" stroke="#00ff00" stroke-width="0.5pt" stroke-opacity="1.00" stroke-dasharray="none" points="252.058,700.759 260.058,700.759 "/>
      <polyline fill="#00ff00" fill-opacity="1.00" stroke="#00ff00" stroke-width="0.5pt" stroke-opacity="1.00" stroke-dasharray="none" points="256.058,696.759 256.058,704.759 "/>
      <polyline fill="#00ff00" fill-opacity="1.00" stroke="#00ff00" stroke-width="0.5pt" stroke-opacity="1.00" stroke-dasharray="none" points="280.973,545.246 288.973,545.246 "/>
      <polyline fill="#00ff00" fill-opacity="1.00" stroke="#00ff00" stroke-width="0.5pt" stroke-opacity="1.00" stroke-dasharray="none" points="284.973,541.246 284.973,549.246 "/>
      <polyline fill="#00ff00" fill-opacity="1.00" stroke="#00ff00" stroke-width="0.5pt" stroke-opacity="1.00" stroke-dasharray="none" points="309.887,539.436 317.887,539.436 "/>
      <polyline fill="#00ff00" fill-opacity="1.00" stroke="#00ff00" stroke-width="0.5pt" stroke-opacity="1.00" stroke-dasharray="none" points="313.887,535.436 313.887,543.436 "/>
      <polyline fill="#00ff00" fill-opacity="1.00" stroke="#00ff00" stroke-width="0.5pt" stroke-opacity="1.00" stroke-dasharray="none" points="338.802,468.843 346.802,468.843 "/>
      <polyline fill="#00ff00" fill-opacity="1.00" stroke="#00ff00" stroke-width="0.5pt" stroke-opacity="1.00" stroke-dasharray="none" points="342.802,464.843 342.802,472.843 "/>
      <polyline fill="#00ff00" fill-opacity="1.00" stroke="#00ff00" stroke-width="0.5pt" stroke-opacity="1.00" stroke-dasharray="none" points="367.716,436.032 375.716,436.032 "/>
      <polyline fill="#00ff00" fill-opacity="1.00" stroke="#00ff00" stroke-width="0.5pt" stroke-opacity="1.00" stroke-dasharray="none" points="371.716,432.032 371.716,440.032 "/>
      <polyline fill="#00ff00" fill-opacity="1.00" stroke="#00ff00" stroke-width="0.5pt" stroke-opacity="1.00" stroke-dasharray="none" points="396.631,334.002 404.631,334.002 "/>
      <polyline fill="#00ff00" fill-opacity="1.00" stroke="#00ff00" stroke-width="0.5pt" stroke-opacity="1.00" stroke-dasharray="none" points="400.631,330.002 400.631,338.002 "/>
      <polyline fill="#00ff00" fill-opacity="1.00" stroke="#00ff00" stroke-width="0.5pt" stroke-opacity="1.00" stroke-dasharray="none" points="425.545,242.865 433.545,242.865 "/>
      <polyline fill="#00ff00" fill-opacity="1.00" stroke="#00ff00" stroke-width="0.5pt" stroke-opacity="1.00" stroke-dasharray="none" points="429.545,238.865 429.545,246.865 "/>
      <polyline fill="#00ff00" fill-opacity="1.00" stroke="#00ff00" stroke-width="0.5pt" stroke-opacity="1.00" stroke-dasharray="none" points="454.460,121.713 462.460,121.713 "/>
      <polyline fill="#00ff00" fill-opacity="1.00" stroke="#00ff00" stroke-width="0.5pt" stroke-opacity="1.00" stroke-dasharray="none" points="458.460,117.713 458.460,125.713 "/>
</g>
</g>
<g id="ID000005" >
  <g transform="translate(320.617,59.496)">
    <g transform="rotate(-0.0)">
      <text x="0.000" y="0.000" font-family="Helvetica" text-anchor="middle" font-size="10pt" fill="#000000" >Outer tolerance: 1e-05   inner tolerance: 1e-06</text>
    </g>
  </g>
</g>
<g id="ID000006" >
  <g transform="translate(105.451,435.251)">
    <g transform="rotate(-90.0)">
      <text x="0.000" y="0.000" font-family="Helvetica" text-anchor="middle" font-size="10pt" fill="#000000" >Average runtime (s)</text>
    </g>
  </g>
</g>
<g id="ID000007" >
  <g transform="translate(320.617,833.015)">
    <g transform="rotate(-0.0)">
      <text x="0.000" y="0.000" font-family="Helvetica" text-anchor="middle" font-size="10pt" fill="#000000" >Number of Users</text>
    </g>
  </g>
</g>
<g id="ID000008" >
</g>
<g id="ID000009" >
</g>
    </g>
    <g>
      <polyline fill="none" stroke="#000000" stroke-width="0.5pt" stroke-dasharray="none" points="212.686,801.000 212.686,793.665 "/>
      <polyline fill="none" stroke="#000000" stroke-width="0.5pt" stroke-dasharray="none" points="284.973,801.000 284.973,793.665 "/>
      <polyline fill="none" stroke="#000000" stroke-width="0.5pt" stroke-dasharray="none" points="357.259,801.000 357.259,793.665 "/>
      <polyline fill="none" stroke="#000000" stroke-width="0.5pt" stroke-dasharray="none" points="429.545,801.000 429.545,793.665 "/>
      <polyline fill="none" stroke="#000000" stroke-width="0.5pt" stroke-dasharray="none" points="140.400,801.000 501.832,801.000 "/>
      <polyline fill="none" stroke="#000000" stroke-width="0.5pt" stroke-dasharray="none" points="212.686,67.500 212.686,74.835 "/>
      <polyline fill="none" stroke="#000000" stroke-width="0.5pt" stroke-dasharray="none" points="284.973,67.500 284.973,74.835 "/>
      <polyline fill="none" stroke="#000000" stroke-width="0.5pt" stroke-dasharray="none" points="357.259,67.500 357.259,74.835 "/>
      <polyline fill="none" stroke="#000000" stroke-width="0.5pt" stroke-dasharray="none" points="429.545,67.500 429.545,74.835 "/>
      <polyline fill="none" stroke="#000000" stroke-width="0.5pt" stroke-dasharray="none" points="140.400,67.500 501.832,67.500 "/>
  <g transform="translate(140.400,827.470)">
    <g transform="rotate(-0.0)">
      <text x="0.000" y="0.000" font-family="Helvetica" text-anchor="middle" font-size="10pt" fill="#000000" >0</text>
    </g>
  </g>
  <g transform="translate(212.686,827.470)">
    <g transform="rotate(-0.0)">
      <text x="0.000" y="0.000" font-family="Helvetica" text-anchor="middle" font-size="10pt" fill="#000000" >50</text>
    </g>
  </g>
  <g transform="translate(284.973,827.470)">
    <g transform="rotate(-0.0)">
      <text x="0.000" y="0.000" font-family="Helvetica" text-anchor="middle" font-size="10pt" fill="#000000" >100</text>
    </g>
  </g>
  <g transform="translate(357.259,827.470)">
    <g transform="rotate(-0.0)">
      <text x="0.000" y="0.000" font-family="Helvetica" text-anchor="middle" font-size="10pt" fill="#000000" >150</text>
    </g>
  </g>
  <g transform="translate(429.545,827.470)">
    <g transform="rotate(-0.0)">
      <text x="0.000" y="0.000" font-family="Helvetica" text-anchor="middle" font-size="10pt" fill="#000000" >200</text>
    </g>
  </g>
  <g transform="translate(501.832,827.470)">
    <g transform="rotate(-0.0)">
      <text x="0.000" y="0.000" font-family="Helvetica" text-anchor="middle" font-size="10pt" fill="#000000" >250</text>
    </g>
  </g>
      <polyline fill="none" stroke="#000000" stroke-width="0.5pt" stroke-dasharray="none" points="140.400,727.650 147.735,727.650 "/>
      <polyline fill="none" stroke="#000000" stroke-width="0.5pt" stroke-dasharray="none" points="140.400,654.300 147.735,654.300 "/>
      <polyline fill="none" stroke="#000000" stroke-width="0.5pt" stroke-dasharray="none" points="140.400,580.950 147.735,580.950 "/>
      <polyline fill="none" stroke="#000000" stroke-width="0.5pt" stroke-dasharray="none" points="140.400,507.600 147.735,507.600 "/>
      <polyline fill="none" stroke="#000000" stroke-width="0.5pt" stroke-dasharray="none" points="140.400,434.250 147.735,434.250 "/>
      <polyline fill="none" stroke="#000000" stroke-width="0.5pt" stroke-dasharray="none" points="140.400,360.900 147.735,360.900 "/>
      <polyline fill="none" stroke="#000000" stroke-width="0.5pt" stroke-dasharray="none" points="140.400,287.550 147.735,287.550 "/>
      <polyline fill="none" stroke="#000000" stroke-width="0.5pt" stroke-dasharray="none" points="140.400,214.200 147.735,214.200 "/>
      <polyline fill="none" stroke="#000000" stroke-width="0.5pt" stroke-dasharray="none" points="140.400,140.850 147.735,140.850 "/>
      <polyline fill="none" stroke="#000000" stroke-width="0.5pt" stroke-dasharray="none" points="140.400,801.000 140.400,67.500 "/>
      <polyline fill="none" stroke="#000000" stroke-width="0.5pt" stroke-dasharray="none" points="501.832,727.650 494.497,727.650 "/>
      <polyline fill="none" stroke="#000000" stroke-width="0.5pt" stroke-dasharray="none" points="501.832,654.300 494.497,654.300 "/>
      <polyline fill="none" stroke="#000000" stroke-width="0.5pt" stroke-dasharray="none" points="501.832,580.950 494.497,580.950 "/>
      <polyline fill="none" stroke="#000000" stroke-width="0.5pt" stroke-dasharray="none" points="501.832,507.600 494.497,507.600 "/>
      <polyline fill="none" stroke="#000000" stroke-width="0.5pt" stroke-dasharray="none" points="501.832,434.250 494.497,434.250 "/>
      <polyline fill="none" stroke="#000000" stroke-width="0.5pt" stroke-dasharray="none" points="501.832,360.900 494.497,360.900 "/>
      <polyline fill="none" stroke="#000000" stroke-width="0.5pt" stroke-dasharray="none" points="501.832,287.550 494.497,287.550 "/>
      <polyline fill="none" stroke="#000000" stroke-width="0.5pt" stroke-dasharray="none" points="501.832,214.200 494.497,214.200 "/>
      <polyline fill="none" stroke="#000000" stroke-width="0.5pt" stroke-dasharray="none" points="501.832,140.850 494.497,140.850 "/>
      <polyline fill="none" stroke="#000000" stroke-width="0.5pt" stroke-dasharray="none" points="501.832,801.000 501.832,67.500 "/>
  <g transform="translate(133.171,805.500)">
    <g transform="rotate(-0.0)">
      <text x="0.000" y="0.000" font-family="Helvetica" text-anchor="end" font-size="10pt" fill="#000000" >0</text>
    </g>
  </g>
  <g transform="translate(133.171,732.150)">
    <g transform="rotate(-0.0)">
      <text x="0.000" y="0.000" font-family="Helvetica" text-anchor="end" font-size="10pt" fill="#000000" >50</text>
    </g>
  </g>
  <g transform="translate(133.171,658.800)">
    <g transform="rotate(-0.0)">
      <text x="0.000" y="0.000" font-family="Helvetica" text-anchor="end" font-size="10pt" fill="#000000" >100</text>
    </g>
  </g>
  <g transform="translate(133.171,585.450)">
    <g transform="rotate(-0.0)">
      <text x="0.000" y="0.000" font-family="Helvetica" text-anchor="end" font-size="10pt" fill="#000000" >150</text>
    </g>
  </g>
  <g transform="translate(133.171,512.100)">
    <g transform="rotate(-0.0)">
      <text x="0.000" y="0.000" font-family="Helvetica" text-anchor="end" font-size="10pt" fill="#000000" >200</text>
    </g>
  </g>
  <g transform="translate(133.171,438.750)">
    <g transform="rotate(-0.0)">
      <text x="0.000" y="0.000" font-family="Helvetica" text-anchor="end" font-size="10pt" fill="#000000" >250</text>
    </g>
  </g>
  <g transform="translate(133.171,365.400)">
    <g transform="rotate(-0.0)">
      <text x="0.000" y="0.000" font-family="Helvetica" text-anchor="end" font-size="10pt" fill="#000000" >300</text>
    </g>
  </g>
  <g transform="translate(133.171,292.050)">
    <g transform="rotate(-0.0)">
      <text x="0.000" y="0.000" font-family="Helvetica" text-anchor="end" font-size="10pt" fill="#000000" >350</text>
    </g>
  </g>
  <g transform="translate(133.171,218.700)">
    <g transform="rotate(-0.0)">
      <text x="0.000" y="0.000" font-family="Helvetica" text-anchor="end" font-size="10pt" fill="#000000" >400</text>
    </g>
  </g>
  <g transform="translate(133.171,145.350)">
    <g transform="rotate(-0.0)">
      <text x="0.000" y="0.000" font-family="Helvetica" text-anchor="end" font-size="10pt" fill="#000000" >450</text>
    </g>
  </g>
  <g transform="translate(133.171,72.000)">
    <g transform="rotate(-0.0)">
      <text x="0.000" y="0.000" font-family="Helvetica" text-anchor="end" font-size="10pt" fill="#000000" >500</text>
    </g>
  </g>
      <polyline fill="none" stroke="#000000" stroke-width="0.5pt" stroke-dasharray="none" points="140.400,801.000 140.400,793.665 "/>
      <polyline fill="none" stroke="#000000" stroke-width="0.5pt" stroke-dasharray="none" points="140.400,801.000 140.400,801.000 "/>
    </g>
  </g>
  <g id ="ID000010">
  <clipPath id="ID000011">
    <rect x="615.968" y="67.500" width="361.432" height="733.500"/>
  </clipPath>
      <polygon fill="#ffffff" fill-opacity="1.00" stroke="none" stroke-width="0.5pt" stroke-opacity="1.00" stroke-dasharray="none" points="615.968,801.000 977.400,801.000 977.400,67.500 615.968,67.500 "/>
      <polygon fill="#ffffff" fill-opacity="1.00" stroke="none" stroke-width="0.5pt" stroke-opacity="1.00" stroke-dasharray="none" points="615.968,67.500 977.400,67.500 977.400,67.500 615.968,67.500 "/>
      <polygon fill="#ffffff" fill-opacity="1.00" stroke="none" stroke-width="0.5pt" stroke-opacity="1.00" stroke-dasharray="none" points="615.968,801.000 615.968,801.000 615.968,67.500 615.968,67.500 "/>
    <g>
<g id="ID000012" clip-path="url(#ID000011)" >
      <polyline fill="none" stroke="#0000ff" stroke-width="0.5pt" stroke-dasharray="none" points="644.883,428.749 673.797,302.220 702.712,202.281 731.626,222.452 760.541,74.835 789.455,527.771 818.370,613.041 847.285,756.073 876.199,603.872 905.114,625.877 934.028,663.469 "/>
<g>
      <polyline fill="#0000ff" fill-opacity="1.00" stroke="#0000ff" stroke-width="0.5pt" stroke-opacity="1.00" stroke-dasharray="none" points="642.083,431.549 647.683,425.949 "/>
      <polyline fill="#0000ff" fill-opacity="1.00" stroke="#0000ff" stroke-width="0.5pt" stroke-opacity="1.00" stroke-dasharray="none" points="642.083,425.949 647.683,431.549 "/>
      <polyline fill="#0000ff" fill-opacity="1.00" stroke="#0000ff" stroke-width="0.5pt" stroke-opacity="1.00" stroke-dasharray="none" points="670.997,305.020 676.597,299.420 "/>
      <polyline fill="#0000ff" fill-opacity="1.00" stroke="#0000ff" stroke-width="0.5pt" stroke-opacity="1.00" stroke-dasharray="none" points="670.997,299.420 676.597,305.020 "/>
      <polyline fill="#0000ff" fill-opacity="1.00" stroke="#0000ff" stroke-width="0.5pt" stroke-opacity="1.00" stroke-dasharray="none" points="699.912,205.081 705.512,199.481 "/>
      <polyline fill="#0000ff" fill-opacity="1.00" stroke="#0000ff" stroke-width="0.5pt" stroke-opacity="1.00" stroke-dasharray="none" points="699.912,199.481 705.512,205.081 "/>
      <polyline fill="#0000ff" fill-opacity="1.00" stroke="#0000ff" stroke-width="0.5pt" stroke-opacity="1.00" stroke-dasharray="none" points="728.826,225.252 734.426,219.652 "/>
      <polyline fill="#0000ff" fill-opacity="1.00" stroke="#0000ff" stroke-width="0.5pt" stroke-opacity="1.00" stroke-dasharray="none" points="728.826,219.652 734.426,225.252 "/>
      <polyline fill="#0000ff" fill-opacity="1.00" stroke="#0000ff" stroke-width="0.5pt" stroke-opacity="1.00" stroke-dasharray="none" points="757.741,77.635 763.341,72.035 "/>
      <polyline fill="#0000ff" fill-opacity="1.00" stroke="#0000ff" stroke-width="0.5pt" stroke-opacity="1.00" stroke-dasharray="none" points="757.741,72.035 763.341,77.635 "/>
      <polyline fill="#0000ff" fill-opacity="1.00" stroke="#0000ff" stroke-width="0.5pt" stroke-opacity="1.00" stroke-dasharray="none" points="786.655,530.571 792.255,524.971 "/>
      <polyline fill="#0000ff" fill-opacity="1.00" stroke="#0000ff" stroke-width="0.5pt" stroke-opacity="1.00" stroke-dasharray="none" points="786.655,524.971 792.255,530.571 "/>
      <polyline fill="#0000ff" fill-opacity="1.00" stroke="#0000ff" stroke-width="0.5pt" stroke-opacity="1.00" stroke-dasharray="none" points="815.570,615.841 821.170,610.241 "/>
      <polyline fill="#0000ff" fill-opacity="1.00" stroke="#0000ff" stroke-width="0.5pt" stroke-opacity="1.00" stroke-dasharray="none" points="815.570,610.241 821.170,615.841 "/>
      <polyline fill="#0000ff" fill-opacity="1.00" stroke="#0000ff" stroke-width="0.5pt" stroke-opacity="1.00" stroke-dasharray="none" points="844.485,758.873 850.085,753.273 "/>
      <polyline fill="#0000ff" fill-opacity="1.00" stroke="#0000ff" stroke-width="0.5pt" stroke-opacity="1.00" stroke-dasharray="none" points="844.485,753.273 850.085,758.873 "/>
      <polyline fill="#0000ff" fill-opacity="1.00" stroke="#0000ff" stroke-width="0.5pt" stroke-opacity="1.00" stroke-dasharray="none" points="873.399,606.672 878.999,601.072 "/>
      <polyline fill="#0000ff" fill-opacity="1.00" stroke="#0000ff" stroke-width="0.5pt" stroke-opacity="1.00" stroke-dasharray="none" points="873.399,601.072 878.999,606.672 "/>
      <polyline fill="#0000ff" fill-opacity="1.00" stroke="#0000ff" stroke-width="0.5pt" stroke-opacity="1.00" stroke-dasharray="none" points="902.314,628.677 907.914,623.077 "/>
      <polyline fill="#0000ff" fill-opacity="1.00" stroke="#0000ff" stroke-width="0.5pt" stroke-opacity="1.00" stroke-dasharray="none" points="902.314,623.077 907.914,628.677 "/>
      <polyline fill="#0000ff" fill-opacity="1.00" stroke="#0000ff" stroke-width="0.5pt" stroke-opacity="1.00" stroke-dasharray="none" points="931.228,666.269 936.828,660.669 "/>
      <polyline fill="#0000ff" fill-opacity="1.00" stroke="#0000ff" stroke-width="0.5pt" stroke-opacity="1.00" stroke-dasharray="none" points="931.228,660.669 936.828,666.269 "/>
</g>
</g>
<g id="ID000013" clip-path="url(#ID000011)" >
      <polyline fill="none" stroke="#ff0000" stroke-width="0.5pt" stroke-dasharray="none" points="644.883,123.429 673.797,320.557 702.712,426.915 731.626,183.943 760.541,492.013 789.455,621.292 818.370,592.869 847.285,693.726 876.199,515.852 905.114,625.877 934.028,647.882 "/>
<g>
      <polyline fill="#ff0000" fill-opacity="1.00" stroke="#ff0000" stroke-width="0.5pt" stroke-opacity="1.00" stroke-dasharray="none" points="640.883,123.429 648.883,123.429 "/>
      <polyline fill="#ff0000" fill-opacity="1.00" stroke="#ff0000" stroke-width="0.5pt" stroke-opacity="1.00" stroke-dasharray="none" points="644.883,119.429 644.883,127.429 "/>
      <polyline fill="#ff0000" fill-opacity="1.00" stroke="#ff0000" stroke-width="0.5pt" stroke-opacity="1.00" stroke-dasharray="none" points="669.797,320.557 677.797,320.557 "/>
      <polyline fill="#ff0000" fill-opacity="1.00" stroke="#ff0000" stroke-width="0.5pt" stroke-opacity="1.00" stroke-dasharray="none" points="673.797,316.557 673.797,324.557 "/>
      <polyline fill="#ff0000" fill-opacity="1.00" stroke="#ff0000" stroke-width="0.5pt" stroke-opacity="1.00" stroke-dasharray="none" points="698.712,426.915 706.712,426.915 "/>
      <polyline fill="#ff0000" fill-opacity="1.00" stroke="#ff0000" stroke-width="0.5pt" stroke-opacity="1.00" stroke-dasharray="none" points="702.712,422.915 702.712,430.915 "/>
      <polyline fill="#ff0000" fill-opacity="1.00" stroke="#ff0000" stroke-width="0.5pt" stroke-opacity="1.00" stroke-dasharray="none" points="727.626,183.943 735.626,183.943 "/>
      <polyline fill="#ff0000" fill-opacity="1.00" stroke="#ff0000" stroke-width="0.5pt" stroke-opacity="1.00" stroke-dasharray="none" points="731.626,179.943 731.626,187.943 "/>
      <polyline fill="#ff0000" fill-opacity="1.00" stroke="#ff0000" stroke-width="0.5pt" stroke-opacity="1.00" stroke-dasharray="none" points="756.541,492.013 764.541,492.013 "/>
      <polyline fill="#ff0000" fill-opacity="1.00" stroke="#ff0000" stroke-width="0.5pt" stroke-opacity="1.00" stroke-dasharray="none" points="760.541,488.013 760.541,496.013 "/>
      <polyline fill="#ff0000" fill-opacity="1.00" stroke="#ff0000" stroke-width="0.5pt" stroke-opacity="1.00" stroke-dasharray="none" points="785.455,621.292 793.455,621.292 "/>
      <polyline fill="#ff0000" fill-opacity="1.00" stroke="#ff0000" stroke-width="0.5pt" stroke-opacity="1.00" stroke-dasharray="none" points="789.455,617.292 789.455,625.292 "/>
      <polyline fill="#ff0000" fill-opacity="1.00" stroke="#ff0000" stroke-width="0.5pt" stroke-opacity="1.00" stroke-dasharray="none" points="814.370,592.869 822.370,592.869 "/>
      <polyline fill="#ff0000" fill-opacity="1.00" stroke="#ff0000" stroke-width="0.5pt" stroke-opacity="1.00" stroke-dasharray="none" points="818.370,588.869 818.370,596.869 "/>
      <polyline fill="#ff0000" fill-opacity="1.00" stroke="#ff0000" stroke-width="0.5pt" stroke-opacity="1.00" stroke-dasharray="none" points="843.285,693.726 851.285,693.726 "/>
      <polyline fill="#ff0000" fill-opacity="1.00" stroke="#ff0000" stroke-width="0.5pt" stroke-opacity="1.00" stroke-dasharray="none" points="847.285,689.726 847.285,697.726 "/>
      <polyline fill="#ff0000" fill-opacity="1.00" stroke="#ff0000" stroke-width="0.5pt" stroke-opacity="1.00" stroke-dasharray="none" points="872.199,515.852 880.199,515.852 "/>
      <polyline fill="#ff0000" fill-opacity="1.00" stroke="#ff0000" stroke-width="0.5pt" stroke-opacity="1.00" stroke-dasharray="none" points="876.199,511.852 876.199,519.852 "/>
      <polyline fill="#ff0000" fill-opacity="1.00" stroke="#ff0000" stroke-width="0.5pt" stroke-opacity="1.00" stroke-dasharray="none" points="901.114,625.877 909.114,625.877 "/>
      <polyline fill="#ff0000" fill-opacity="1.00" stroke="#ff0000" stroke-width="0.5pt" stroke-opacity="1.00" stroke-dasharray="none" points="905.114,621.877 905.114,629.877 "/>
      <polyline fill="#ff0000" fill-opacity="1.00" stroke="#ff0000" stroke-width="0.5pt" stroke-opacity="1.00" stroke-dasharray="none" points="930.028,647.882 938.028,647.882 "/>
      <polyline fill="#ff0000" fill-opacity="1.00" stroke="#ff0000" stroke-width="0.5pt" stroke-opacity="1.00" stroke-dasharray="none" points="934.028,643.882 934.028,651.882 "/>
</g>
</g>
<g id="ID000014" clip-path="url(#ID000011)" >
      <polyline fill="none" stroke="#00ff00" stroke-width="0.5pt" stroke-dasharray="none" points="644.883,280.215 673.797,302.220 702.712,139.933 731.626,338.895 760.541,227.953 789.455,528.688 818.370,662.552 847.285,747.821 876.199,585.534 905.114,631.378 934.028,516.769 "/>
<g>
      <polyline fill="#00ff00" fill-opacity="1.00" stroke="#00ff00" stroke-width="0.5pt" stroke-opacity="1.00" stroke-dasharray="none" points="640.883,280.215 648.883,280.215 "/>
      <polyline fill="#00ff00" fill-opacity="1.00" stroke="#00ff00" stroke-width="0.5pt" stroke-opacity="1.00" stroke-dasharray="none" points="644.883,276.215 644.883,284.215 "/>
      <polyline fill="#00ff00" fill-opacity="1.00" stroke="#00ff00" stroke-width="0.5pt" stroke-opacity="1.00" stroke-dasharray="none" points="669.797,302.220 677.797,302.220 "/>
      <polyline fill="#00ff00" fill-opacity="1.00" stroke="#00ff00" stroke-width="0.5pt" stroke-opacity="1.00" stroke-dasharray="none" points="673.797,298.220 673.797,306.220 "/>
      <polyline fill="#00ff00" fill-opacity="1.00" stroke="#00ff00" stroke-width="0.5pt" stroke-opacity="1.00" stroke-dasharray="none" points="698.712,139.933 706.712,139.933 "/>
      <polyline fill="#00ff00" fill-opacity="1.00" stroke="#00ff00" stroke-width="0.5pt" stroke-opacity="1.00" stroke-dasharray="none" points="702.712,135.933 702.712,143.933 "/>
      <polyline fill="#00ff00" fill-opacity="1.00" stroke="#00ff00" stroke-width="0.5pt" stroke-opacity="1.00" stroke-dasharray="none" points="727.626,338.895 735.626,338.895 "/>
      <polyline fill="#00ff00" fill-opacity="1.00" stroke="#00ff00" stroke-width="0.5pt" stroke-opacity="1.00" stroke-dasharray="none" points="731.626,334.895 731.626,342.895 "/>
      <polyline fill="#00ff00" fill-opacity="1.00" stroke="#00ff00" stroke-width="0.5pt" stroke-opacity="1.00" stroke-dasharray="none" points="756.541,227.953 764.541,227.953 "/>
      <polyline fill="#00ff00" fill-opacity="1.00" stroke="#00ff00" stroke-width="0.5pt" stroke-opacity="1.00" stroke-dasharray="none" points="760.541,223.953 760.541,231.953 "/>
      <polyline fill="#00ff00" fill-opacity="1.00" stroke="#00ff00" stroke-width="0.5pt" stroke-opacity="1.00" stroke-dasharray="none" points="785.455,528.688 793.455,528.688 "/>
      <polyline fill="#00ff00" fill-opacity="1.00" stroke="#00ff00" stroke-width="0.5pt" stroke-opacity="1.00" stroke-dasharray="none" points="789.455,524.688 789.455,532.688 "/>
      <polyline fill="#00ff00" fill-opacity="1.00" stroke="#00ff00" stroke-width="0.5pt" stroke-opacity="1.00" stroke-dasharray="none" points="814.370,662.552 822.370,662.552 "/>
      <polyline fill="#00ff00" fill-opacity="1.00" stroke="#00ff00" stroke-width="0.5pt" stroke-opacity="1.00" stroke-dasharray="none" points="818.370,658.552 818.370,666.552 "/>
      <polyline fill="#00ff00" fill-opacity="1.00" stroke="#00ff00" stroke-width="0.5pt" stroke-opacity="1.00" stroke-dasharray="none" points="843.285,747.821 851.285,747.821 "/>
      <polyline fill="#00ff00" fill-opacity="1.00" stroke="#00ff00" stroke-width="0.5pt" stroke-opacity="1.00" stroke-dasharray="none" points="847.285,743.821 847.285,751.821 "/>
      <polyline fill="#00ff00" fill-opacity="1.00" stroke="#00ff00" stroke-width="0.5pt" stroke-opacity="1.00" stroke-dasharray="none" points="872.199,585.534 880.199,585.534 "/>
      <polyline fill="#00ff00" fill-opacity="1.00" stroke="#00ff00" stroke-width="0.5pt" stroke-opacity="1.00" stroke-dasharray="none" points="876.199,581.534 876.199,589.534 "/>
      <polyline fill="#00ff00" fill-opacity="1.00" stroke="#00ff00" stroke-width="0.5pt" stroke-opacity="1.00" stroke-dasharray="none" points="901.114,631.378 909.114,631.378 "/>
      <polyline fill="#00ff00" fill-opacity="1.00" stroke="#00ff00" stroke-width="0.5pt" stroke-opacity="1.00" stroke-dasharray="none" points="905.114,627.378 905.114,635.378 "/>
      <polyline fill="#00ff00" fill-opacity="1.00" stroke="#00ff00" stroke-width="0.5pt" stroke-opacity="1.00" stroke-dasharray="none" points="930.028,516.769 938.028,516.769 "/>
      <polyline fill="#00ff00" fill-opacity="1.00" stroke="#00ff00" stroke-width="0.5pt" stroke-opacity="1.00" stroke-dasharray="none" points="934.028,512.769 934.028,520.769 "/>
</g>
</g>
<g id="ID000015" >
  <g transform="translate(796.684,59.496)">
    <g transform="rotate(-0.0)">
      <text x="0.000" y="0.000" font-family="Helvetica" text-anchor="middle" font-size="10pt" fill="#000000" >Outer tolerance: 1e-05   inner tolerance: 1e-06</text>
    </g>
  </g>
</g>
<g id="ID000016" >
  <g transform="translate(580.929,435.251)">
    <g transform="rotate(-90.0)">
      <text x="0.000" y="0.000" font-family="Helvetica" text-anchor="middle" font-size="10pt" fill="#000000" >Average iterations</text>
    </g>
  </g>
</g>
<g id="ID000017" >
  <g transform="translate(795.683,833.015)">
    <g transform="rotate(-0.0)">
      <text x="0.000" y="0.000" font-family="Helvetica" text-anchor="middle" font-size="10pt" fill="#000000" >Number of Users</text>
    </g>
  </g>
</g>
    </g>
    <g>
      <polyline fill="none" stroke="#000000" stroke-width="0.5pt" stroke-dasharray="none" points="688.255,801.000 688.255,793.665 "/>
      <polyline fill="none" stroke="#000000" stroke-width="0.5pt" stroke-dasharray="none" points="760.541,801.000 760.541,793.665 "/>
      <polyline fill="none" stroke="#000000" stroke-width="0.5pt" stroke-dasharray="none" points="832.827,801.000 832.827,793.665 "/>
      <polyline fill="none" stroke="#000000" stroke-width="0.5pt" stroke-dasharray="none" points="905.114,801.000 905.114,793.665 "/>
      <polyline fill="none" stroke="#000000" stroke-width="0.5pt" stroke-dasharray="none" points="615.968,801.000 977.400,801.000 "/>
      <polyline fill="none" stroke="#000000" stroke-width="0.5pt" stroke-dasharray="none" points="688.255,67.500 688.255,74.835 "/>
      <polyline fill="none" stroke="#000000" stroke-width="0.5pt" stroke-dasharray="none" points="760.541,67.500 760.541,74.835 "/>
      <polyline fill="none" stroke="#000000" stroke-width="0.5pt" stroke-dasharray="none" points="832.827,67.500 832.827,74.835 "/>
      <polyline fill="none" stroke="#000000" stroke-width="0.5pt" stroke-dasharray="none" points="905.114,67.500 905.114,74.835 "/>
      <polyline fill="none" stroke="#000000" stroke-width="0.5pt" stroke-dasharray="none" points="615.968,67.500 977.400,67.500 "/>
  <g transform="translate(615.968,827.470)">
    <g transform="rotate(-0.0)">
      <text x="0.000" y="0.000" font-family="Helvetica" text-anchor="middle" font-size="10pt" fill="#000000" >0</text>
    </g>
  </g>
  <g transform="translate(688.255,827.470)">
    <g transform="rotate(-0.0)">
      <text x="0.000" y="0.000" font-family="Helvetica" text-anchor="middle" font-size="10pt" fill="#000000" >50</text>
    </g>
  </g>
  <g transform="translate(760.541,827.470)">
    <g transform="rotate(-0.0)">
      <text x="0.000" y="0.000" font-family="Helvetica" text-anchor="middle" font-size="10pt" fill="#000000" >100</text>
    </g>
  </g>
  <g transform="translate(832.827,827.470)">
    <g transform="rotate(-0.0)">
      <text x="0.000" y="0.000" font-family="Helvetica" text-anchor="middle" font-size="10pt" fill="#000000" >150</text>
    </g>
  </g>
  <g transform="translate(905.114,827.470)">
    <g transform="rotate(-0.0)">
      <text x="0.000" y="0.000" font-family="Helvetica" text-anchor="middle" font-size="10pt" fill="#000000" >200</text>
    </g>
  </g>
  <g transform="translate(977.400,827.470)">
    <g transform="rotate(-0.0)">
      <text x="0.000" y="0.000" font-family="Helvetica" text-anchor="middle" font-size="10pt" fill="#000000" >250</text>
    </g>
  </g>
      <polyline fill="none" stroke="#000000" stroke-width="0.5pt" stroke-dasharray="none" points="615.968,709.312 623.303,709.312 "/>
      <polyline fill="none" stroke="#000000" stroke-width="0.5pt" stroke-dasharray="none" points="615.968,617.625 623.303,617.625 "/>
      <polyline fill="none" stroke="#000000" stroke-width="0.5pt" stroke-dasharray="none" points="615.968,525.938 623.303,525.938 "/>
      <polyline fill="none" stroke="#000000" stroke-width="0.5pt" stroke-dasharray="none" points="615.968,434.250 623.303,434.250 "/>
      <polyline fill="none" stroke="#000000" stroke-width="0.5pt" stroke-dasharray="none" points="615.968,342.562 623.303,342.562 "/>
      <polyline fill="none" stroke="#000000" stroke-width="0.5pt" stroke-dasharray="none" points="615.968,250.875 623.303,250.875 "/>
      <polyline fill="none" stroke="#000000" stroke-width="0.5pt" stroke-dasharray="none" points="615.968,159.188 623.303,159.188 "/>
      <polyline fill="none" stroke="#000000" stroke-width="0.5pt" stroke-dasharray="none" points="615.968,801.000 615.968,67.500 "/>
      <polyline fill="none" stroke="#000000" stroke-width="0.5pt" stroke-dasharray="none" points="977.400,709.312 970.065,709.312 "/>
      <polyline fill="none" stroke="#000000" stroke-width="0.5pt" stroke-dasharray="none" points="977.400,617.625 970.065,617.625 "/>
      <polyline fill="none" stroke="#000000" stroke-width="0.5pt" stroke-dasharray="none" points="977.400,525.938 970.065,525.938 "/>
      <polyline fill="none" stroke="#000000" stroke-width="0.5pt" stroke-dasharray="none" points="977.400,434.250 970.065,434.250 "/>
      <polyline fill="none" stroke="#000000" stroke-width="0.5pt" stroke-dasharray="none" points="977.400,342.562 970.065,342.562 "/>
      <polyline fill="none" stroke="#000000" stroke-width="0.5pt" stroke-dasharray="none" points="977.400,250.875 970.065,250.875 "/>
      <polyline fill="none" stroke="#000000" stroke-width="0.5pt" stroke-dasharray="none" points="977.400,159.188 970.065,159.188 "/>
      <polyline fill="none" stroke="#000000" stroke-width="0.5pt" stroke-dasharray="none" points="977.400,801.000 977.400,67.500 "/>
  <g transform="translate(608.740,805.500)">
    <g transform="rotate(-0.0)">
      <text x="0.000" y="0.000" font-family="Helvetica" text-anchor="end" font-size="10pt" fill="#000000" >380</text>
    </g>
  </g>
  <g transform="translate(608.740,713.812)">
    <g transform="rotate(-0.0)">
      <text x="0.000" y="0.000" font-family="Helvetica" text-anchor="end" font-size="10pt" fill="#000000" >400</text>
    </g>
  </g>
  <g transform="translate(608.740,622.125)">
    <g transform="rotate(-0.0)">
      <text x="0.000" y="0.000" font-family="Helvetica" text-anchor="end" font-size="10pt" fill="#000000" >420</text>
    </g>
  </g>
  <g transform="translate(608.740,530.438)">
    <g transform="rotate(-0.0)">
      <text x="0.000" y="0.000" font-family="Helvetica" text-anchor="end" font-size="10pt" fill="#000000" >440</text>
    </g>
  </g>
  <g transform="translate(608.740,438.750)">
    <g transform="rotate(-0.0)">
      <text x="0.000" y="0.000" font-family="Helvetica" text-anchor="end" font-size="10pt" fill="#000000" >460</text>
    </g>
  </g>
  <g transform="translate(608.740,347.062)">
    <g transform="rotate(-0.0)">
      <text x="0.000" y="0.000" font-family="Helvetica" text-anchor="end" font-size="10pt" fill="#000000" >480</text>
    </g>
  </g>
  <g transform="translate(608.740,255.375)">
    <g transform="rotate(-0.0)">
      <text x="0.000" y="0.000" font-family="Helvetica" text-anchor="end" font-size="10pt" fill="#000000" >500</text>
    </g>
  </g>
  <g transform="translate(608.740,163.688)">
    <g transform="rotate(-0.0)">
      <text x="0.000" y="0.000" font-family="Helvetica" text-anchor="end" font-size="10pt" fill="#000000" >520</text>
    </g>
  </g>
  <g transform="translate(608.740,72.000)">
    <g transform="rotate(-0.0)">
      <text x="0.000" y="0.000" font-family="Helvetica" text-anchor="end" font-size="10pt" fill="#000000" >540</text>
    </g>
  </g>
      <polyline fill="none" stroke="#000000" stroke-width="0.5pt" stroke-dasharray="none" points="615.968,801.000 615.968,793.665 "/>
      <polyline fill="none" stroke="#000000" stroke-width="0.5pt" stroke-dasharray="none" points="615.968,801.000 615.968,801.000 "/>
    </g>
  </g>
  <g id ="ID000018">
  <clipPath id="ID000019">
    <rect x="410.750" y="74.750" width="86.500" height="54.250"/>
  </clipPath>
      <polygon fill="#ffffff" fill-opacity="1.00" stroke="none" stroke-width="0.5pt" stroke-opacity="1.00" stroke-dasharray="none" points="410.750,129.000 497.250,129.000 497.250,74.750 410.750,74.750 "/>
      <polygon fill="#ffffff" fill-opacity="1.00" stroke="none" stroke-width="0.5pt" stroke-opacity="1.00" stroke-dasharray="none" points="410.750,74.750 497.250,74.750 497.250,74.750 410.750,74.750 "/>
      <polygon fill="#ffffff" fill-opacity="1.00" stroke="none" stroke-width="0.5pt" stroke-opacity="1.00" stroke-dasharray="none" points="410.750,129.000 410.750,129.000 410.750,74.750 410.750,74.750 "/>
    <g>
<g id="ID000020" >
  <g transform="translate(460.538,90.803)">
    <g transform="rotate(-0.0)">
      <text x="0.000" y="0.000" font-family="Helvetica" text-anchor="start" font-size="10pt" fill="#000000" >GPU</text>
    </g>
  </g>
</g>
<g id="ID000021" clip-path="url(#ID000019)" >
      <polyline fill="none" stroke="#0000ff" stroke-width="0.5pt" stroke-dasharray="none" points="418.250,85.250 455.750,85.250 "/>
<g>
</g>
</g>
<g id="ID000022" clip-path="url(#ID000019)" >
<g>
      <polyline fill="#0000ff" fill-opacity="1.00" stroke="#0000ff" stroke-width="0.5pt" stroke-opacity="1.00" stroke-dasharray="none" points="434.200,88.050 439.800,82.450 "/>
      <polyline fill="#0000ff" fill-opacity="1.00" stroke="#0000ff" stroke-width="0.5pt" stroke-opacity="1.00" stroke-dasharray="none" points="434.200,82.450 439.800,88.050 "/>
</g>
</g>
<g id="ID000023" >
  <g transform="translate(460.538,107.882)">
    <g transform="rotate(-0.0)">
      <text x="0.000" y="0.000" font-family="Helvetica" text-anchor="start" font-size="10pt" fill="#000000" >CPU</text>
    </g>
  </g>
</g>
<g id="ID000024" clip-path="url(#ID000019)" >
      <polyline fill="none" stroke="#ff0000" stroke-width="0.5pt" stroke-dasharray="none" points="418.250,101.875 455.750,101.875 "/>
<g>
</g>
</g>
<g id="ID000025" clip-path="url(#ID000019)" >
<g>
      <polyline fill="#ff0000" fill-opacity="1.00" stroke="#ff0000" stroke-width="0.5pt" stroke-opacity="1.00" stroke-dasharray="none" points="433.000,101.875 441.000,101.875 "/>
      <polyline fill="#ff0000" fill-opacity="1.00" stroke="#ff0000" stroke-width="0.5pt" stroke-opacity="1.00" stroke-dasharray="none" points="437.000,97.875 437.000,105.875 "/>
</g>
</g>
<g id="ID000026" >
  <g transform="translate(460.538,123.956)">
    <g transform="rotate(-0.0)">
      <text x="0.000" y="0.000" font-family="Helvetica" text-anchor="start" font-size="10pt" fill="#000000" >BLAS</text>
    </g>
  </g>
</g>
<g id="ID000027" clip-path="url(#ID000019)" >
      <polyline fill="none" stroke="#00ff00" stroke-width="0.5pt" stroke-dasharray="none" points="418.250,118.500 455.750,118.500 "/>
<g>
</g>
</g>
<g id="ID000028" clip-path="url(#ID000019)" >
<g>
      <polyline fill="#00ff00" fill-opacity="1.00" stroke="#00ff00" stroke-width="0.5pt" stroke-opacity="1.00" stroke-dasharray="none" points="433.000,118.500 441.000,118.500 "/>
      <polyline fill="#00ff00" fill-opacity="1.00" stroke="#00ff00" stroke-width="0.5pt" stroke-opacity="1.00" stroke-dasharray="none" points="437.000,114.500 437.000,122.500 "/>
</g>
</g>
<g id="ID000029" >
</g>
<g id="ID000030" >
</g>
<g id="ID000031" >
</g>
    </g>
    <g>
      <polyline fill="none" stroke="#000000" stroke-width="0.5pt" stroke-dasharray="none" points="410.750,129.000 497.250,129.000 "/>
      <polyline fill="none" stroke="#000000" stroke-width="0.5pt" stroke-dasharray="none" points="410.750,74.750 497.250,74.750 "/>
      <polyline fill="none" stroke="#000000" stroke-width="0.5pt" stroke-dasharray="none" points="410.750,129.000 410.750,74.750 "/>
      <polyline fill="none" stroke="#000000" stroke-width="0.5pt" stroke-dasharray="none" points="497.250,129.000 497.250,74.750 "/>
      <polyline fill="none" stroke="#000000" stroke-width="0.5pt" stroke-dasharray="none" points="410.750,129.000 410.750,128.457 "/>
      <polyline fill="none" stroke="#000000" stroke-width="0.5pt" stroke-dasharray="none" points="410.750,129.000 410.750,129.000 "/>
    </g>
  </g>
  </g>
</svg>
