<?xml version="1.0" encoding="utf-8" standalone="no"?><!DOCTYPE svg PUBLIC "-//W3C//DTD SVG 1.1//EN" "http://www.w3.org/Graphics/SVG/1.1/DTD/svg11.dtd">
<svg preserveAspectRatio="xMinYMin meet" width="100%" height="100%" viewBox="0 0 1080.000 900.000"  version="1.1" xmlns="http://www.w3.org/2000/svg" xmlns:xlink="http://www.w3.org/1999/xlink">
  <desc>Matlab Figure Converted by PLOT2SVG written by Juerg Schwizer</desc>
  <g id="topgroup">
  <rect x="0" y="0" width="1080.000" height="900.000" fill="#ffffff" stroke="none" />
  <g id ="ID000000">
  <clipPath id="ID000001">
    <rect x="140.400" y="67.500" width="361.432" height="733.500"/>
  </clipPath>
      <polygon fill="#ffffff" fill-opacity="1.00" stroke="none" stroke-width="0.5pt" stroke-opacity="1.00" stroke-dasharray="none" points="140.400,801.000 501.832,801.000 501.832,67.500 140.400,67.500 "/>
      <polygon fill="#ffffff" fill-opacity="1.00" stroke="none" stroke-width="0.5pt" stroke-opacity="1.00" stroke-dasharray="none" points="140.400,67.500 501.832,67.500 501.832,67.500 140.400,67.500 "/>
      <polygon fill="#ffffff" fill-opacity="1.00" stroke="none" stroke-width="0.5pt" stroke-opacity="1.00" stroke-dasharray="none" points="140.400,801.000 140.400,801.000 140.400,67.500 140.400,67.500 "/>
    <g>
<g id="ID000002" clip-path="url(#ID000001)" >
      <polyline fill="none" stroke="#0000ff" stroke-width="0.5pt" stroke-dasharray="none" points="169.315,740.211 198.229,737.517 227.144,731.996 256.058,730.958 284.973,719.980 313.887,707.328 342.802,706.786 371.716,700.902 400.631,696.650 429.545,681.686 458.460,682.671 "/>
<g>
      <polyline fill="#0000ff" fill-opacity="1.00" stroke="#0000ff" stroke-width="0.5pt" stroke-opacity="1.00" stroke-dasharray="none" points="166.515,743.011 172.115,737.411 "/>
      <polyline fill="#0000ff" fill-opacity="1.00" stroke="#0000ff" stroke-width="0.5pt" stroke-opacity="1.00" stroke-dasharray="none" points="166.515,737.411 172.115,743.011 "/>
      <polyline fill="#0000ff" fill-opacity="1.00" stroke="#0000ff" stroke-width="0.5pt" stroke-opacity="1.00" stroke-dasharray="none" points="195.429,740.317 201.029,734.717 "/>
      <polyline fill="#0000ff" fill-opacity="1.00" stroke="#0000ff" stroke-width="0.5pt" stroke-opacity="1.00" stroke-dasharray="none" points="195.429,734.717 201.029,740.317 "/>
      <polyline fill="#0000ff" fill-opacity="1.00" stroke="#0000ff" stroke-width="0.5pt" stroke-opacity="1.00" stroke-dasharray="none" points="224.344,734.796 229.944,729.196 "/>
      <polyline fill="#0000ff" fill-opacity="1.00" stroke="#0000ff" stroke-width="0.5pt" stroke-opacity="1.00" stroke-dasharray="none" points="224.344,729.196 229.944,734.796 "/>
      <polyline fill="#0000ff" fill-opacity="1.00" stroke="#0000ff" stroke-width="0.5pt" stroke-opacity="1.00" stroke-dasharray="none" points="253.258,733.758 258.858,728.158 "/>
      <polyline fill="#0000ff" fill-opacity="1.00" stroke="#0000ff" stroke-width="0.5pt" stroke-opacity="1.00" stroke-dasharray="none" points="253.258,728.158 258.858,733.758 "/>
      <polyline fill="#0000ff" fill-opacity="1.00" stroke="#0000ff" stroke-width="0.5pt" stroke-opacity="1.00" stroke-dasharray="none" points="282.173,722.780 287.773,717.180 "/>
      <polyline fill="#0000ff" fill-opacity="1.00" stroke="#0000ff" stroke-width="0.5pt" stroke-opacity="1.00" stroke-dasharray="none" points="282.173,717.180 287.773,722.780 "/>
      <polyline fill="#0000ff" fill-opacity="1.00" stroke="#0000ff" stroke-width="0.5pt" stroke-opacity="1.00" stroke-dasharray="none" points="311.087,710.128 316.687,704.528 "/>
      <polyline fill="#0000ff" fill-opacity="1.00" stroke="#0000ff" stroke-width="0.5pt" stroke-opacity="1.00" stroke-dasharray="none" points="311.087,704.528 316.687,710.128 "/>
      <polyline fill="#0000ff" fill-opacity="1.00" stroke="#0000ff" stroke-width="0.5pt" stroke-opacity="1.00" stroke-dasharray="none" points="340.002,709.586 345.602,703.986 "/>
      <polyline fill="#0000ff" fill-opacity="1.00" stroke="#0000ff" stroke-width="0.5pt" stroke-opacity="1.00" stroke-dasharray="none" points="340.002,703.986 345.602,709.586 "/>
      <polyline fill="#0000ff" fill-opacity="1.00" stroke="#0000ff" stroke-width="0.5pt" stroke-opacity="1.00" stroke-dasharray="none" points="368.916,703.702 374.516,698.102 "/>
      <polyline fill="#0000ff" fill-opacity="1.00" stroke="#0000ff" stroke-width="0.5pt" stroke-opacity="1.00" stroke-dasharray="none" points="368.916,698.102 374.516,703.702 "/>
      <polyline fill="#0000ff" fill-opacity="1.00" stroke="#0000ff" stroke-width="0.5pt" stroke-opacity="1.00" stroke-dasharray="none" points="397.831,699.450 403.431,693.850 "/>
      <polyline fill="#0000ff" fill-opacity="1.00" stroke="#0000ff" stroke-width="0.5pt" stroke-opacity="1.00" stroke-dasharray="none" points="397.831,693.850 403.431,699.450 "/>
      <polyline fill="#0000ff" fill-opacity="1.00" stroke="#0000ff" stroke-width="0.5pt" stroke-opacity="1.00" stroke-dasharray="none" points="426.745,684.486 432.345,678.886 "/>
      <polyline fill="#0000ff" fill-opacity="1.00" stroke="#0000ff" stroke-width="0.5pt" stroke-opacity="1.00" stroke-dasharray="none" points="426.745,678.886 432.345,684.486 "/>
      <polyline fill="#0000ff" fill-opacity="1.00" stroke="#0000ff" stroke-width="0.5pt" stroke-opacity="1.00" stroke-dasharray="none" points="455.660,685.471 461.260,679.871 "/>
      <polyline fill="#0000ff" fill-opacity="1.00" stroke="#0000ff" stroke-width="0.5pt" stroke-opacity="1.00" stroke-dasharray="none" points="455.660,679.871 461.260,685.471 "/>
</g>
</g>
<g id="ID000003" clip-path="url(#ID000001)" >
      <polyline fill="none" stroke="#ff0000" stroke-width="0.5pt" stroke-dasharray="none" points="169.315,759.883 198.229,723.515 227.144,687.248 256.058,616.464 284.973,594.095 313.887,505.356 342.802,438.208 371.716,391.561 400.631,308.770 429.545,272.879 458.460,150.499 "/>
<g>
      <polyline fill="#ff0000" fill-opacity="1.00" stroke="#ff0000" stroke-width="0.5pt" stroke-opacity="1.00" stroke-dasharray="none" points="165.315,759.883 173.315,759.883 "/>
      <polyline fill="#ff0000" fill-opacity="1.00" stroke="#ff0000" stroke-width="0.5pt" stroke-opacity="1.00" stroke-dasharray="none" points="169.315,755.883 169.315,763.883 "/>
      <polyline fill="#ff0000" fill-opacity="1.00" stroke="#ff0000" stroke-width="0.5pt" stroke-opacity="1.00" stroke-dasharray="none" points="194.229,723.515 202.229,723.515 "/>
      <polyline fill="#ff0000" fill-opacity="1.00" stroke="#ff0000" stroke-width="0.5pt" stroke-opacity="1.00" stroke-dasharray="none" points="198.229,719.515 198.229,727.515 "/>
      <polyline fill="#ff0000" fill-opacity="1.00" stroke="#ff0000" stroke-width="0.5pt" stroke-opacity="1.00" stroke-dasharray="none" points="223.144,687.248 231.144,687.248 "/>
      <polyline fill="#ff0000" fill-opacity="1.00" stroke="#ff0000" stroke-width="0.5pt" stroke-opacity="1.00" stroke-dasharray="none" points="227.144,683.248 227.144,691.248 "/>
      <polyline fill="#ff0000" fill-opacity="1.00" stroke="#ff0000" stroke-width="0.5pt" stroke-opacity="1.00" stroke-dasharray="none" points="252.058,616.464 260.058,616.464 "/>
      <polyline fill="#ff0000" fill-opacity="1.00" stroke="#ff0000" stroke-width="0.5pt" stroke-opacity="1.00" stroke-dasharray="none" points="256.058,612.464 256.058,620.464 "/>
      <polyline fill="#ff0000" fill-opacity="1.00" stroke="#ff0000" stroke-width="0.5pt" stroke-opacity="1.00" stroke-dasharray="none" points="280.973,594.095 288.973,594.095 "/>
      <polyline fill="#ff0000" fill-opacity="1.00" stroke="#ff0000" stroke-width="0.5pt" stroke-opacity="1.00" stroke-dasharray="none" points="284.973,590.095 284.973,598.095 "/>
      <polyline fill="#ff0000" fill-opacity="1.00" stroke="#ff0000" stroke-width="0.5pt" stroke-opacity="1.00" stroke-dasharray="none" points="309.887,505.356 317.887,505.356 "/>
      <polyline fill="#ff0000" fill-opacity="1.00" stroke="#ff0000" stroke-width="0.5pt" stroke-opacity="1.00" stroke-dasharray="none" points="313.887,501.356 313.887,509.356 "/>
      <polyline fill="#ff0000" fill-opacity="1.00" stroke="#ff0000" stroke-width="0.5pt" stroke-opacity="1.00" stroke-dasharray="none" points="338.802,438.208 346.802,438.208 "/>
      <polyline fill="#ff0000" fill-opacity="1.00" stroke="#ff0000" stroke-width="0.5pt" stroke-opacity="1.00" stroke-dasharray="none" points="342.802,434.208 342.802,442.208 "/>
      <polyline fill="#ff0000" fill-opacity="1.00" stroke="#ff0000" stroke-width="0.5pt" stroke-opacity="1.00" stroke-dasharray="none" points="367.716,391.561 375.716,391.561 "/>
      <polyline fill="#ff0000" fill-opacity="1.00" stroke="#ff0000" stroke-width="0.5pt" stroke-opacity="1.00" stroke-dasharray="none" points="371.716,387.561 371.716,395.561 "/>
      <polyline fill="#ff0000" fill-opacity="1.00" stroke="#ff0000" stroke-width="0.5pt" stroke-opacity="1.00" stroke-dasharray="none" points="396.631,308.770 404.631,308.770 "/>
      <polyline fill="#ff0000" fill-opacity="1.00" stroke="#ff0000" stroke-width="0.5pt" stroke-opacity="1.00" stroke-dasharray="none" points="400.631,304.770 400.631,312.770 "/>
      <polyline fill="#ff0000" fill-opacity="1.00" stroke="#ff0000" stroke-width="0.5pt" stroke-opacity="1.00" stroke-dasharray="none" points="425.545,272.879 433.545,272.879 "/>
      <polyline fill="#ff0000" fill-opacity="1.00" stroke="#ff0000" stroke-width="0.5pt" stroke-opacity="1.00" stroke-dasharray="none" points="429.545,268.879 429.545,276.879 "/>
      <polyline fill="#ff0000" fill-opacity="1.00" stroke="#ff0000" stroke-width="0.5pt" stroke-opacity="1.00" stroke-dasharray="none" points="454.460,150.499 462.460,150.499 "/>
      <polyline fill="#ff0000" fill-opacity="1.00" stroke="#ff0000" stroke-width="0.5pt" stroke-opacity="1.00" stroke-dasharray="none" points="458.460,146.499 458.460,154.499 "/>
</g>
</g>
<g id="ID000004" clip-path="url(#ID000001)" >
      <polyline fill="none" stroke="#00ff00" stroke-width="0.5pt" stroke-dasharray="none" points="169.315,784.441 198.229,766.787 227.144,748.869 256.058,720.559 284.973,641.452 313.887,574.863 342.802,547.199 371.716,467.825 400.631,442.805 429.545,370.749 458.460,371.220 "/>
<g>
      <polyline fill="#00ff00" fill-opacity="1.00" stroke="#00ff00" stroke-width="0.5pt" stroke-opacity="1.00" stroke-dasharray="none" points="165.315,784.441 173.315,784.441 "/>
      <polyline fill="#00ff00" fill-opacity="1.00" stroke="#00ff00" stroke-width="0.5pt" stroke-opacity="1.00" stroke-dasharray="none" points="169.315,780.441 169.315,788.441 "/>
      <polyline fill="#00ff00" fill-opacity="1.00" stroke="#00ff00" stroke-width="0.5pt" stroke-opacity="1.00" stroke-dasharray="none" points="194.229,766.787 202.229,766.787 "/>
      <polyline fill="#00ff00" fill-opacity="1.00" stroke="#00ff00" stroke-width="0.5pt" stroke-opacity="1.00" stroke-dasharray="none" points="198.229,762.787 198.229,770.787 "/>
      <polyline fill="#00ff00" fill-opacity="1.00" stroke="#00ff00" stroke-width="0.5pt" stroke-opacity="1.00" stroke-dasharray="none" points="223.144,748.869 231.144,748.869 "/>
      <polyline fill="#00ff00" fill-opacity="1.00" stroke="#00ff00" stroke-width="0.5pt" stroke-opacity="1.00" stroke-dasharray="none" points="227.144,744.869 227.144,752.869 "/>
      <polyline fill="#00ff00" fill-opacity="1.00" stroke="#00ff00" stroke-width="0.5pt" stroke-opacity="1.00" stroke-dasharray="none" points="252.058,720.559 260.058,720.559 "/>
      <polyline fill="#00ff00" fill-opacity="1.00" stroke="#00ff00" stroke-width="0.5pt" stroke-opacity="1.00" stroke-dasharray="none" points="256.058,716.559 256.058,724.559 "/>
      <polyline fill="#00ff00" fill-opacity="1.00" stroke="#00ff00" stroke-width="0.5pt" stroke-opacity="1.00" stroke-dasharray="none" points="280.973,641.452 288.973,641.452 "/>
      <polyline fill="#00ff00" fill-opacity="1.00" stroke="#00ff00" stroke-width="0.5pt" stroke-opacity="1.00" stroke-dasharray="none" points="284.973,637.452 284.973,645.452 "/>
      <polyline fill="#00ff00" fill-opacity="1.00" stroke="#00ff00" stroke-width="0.5pt" stroke-opacity="1.00" stroke-dasharray="none" points="309.887,574.863 317.887,574.863 "/>
      <polyline fill="#00ff00" fill-opacity="1.00" stroke="#00ff00" stroke-width="0.5pt" stroke-opacity="1.00" stroke-dasharray="none" points="313.887,570.863 313.887,578.863 "/>
      <polyline fill="#00ff00" fill-opacity="1.00" stroke="#00ff00" stroke-width="0.5pt" stroke-opacity="1.00" stroke-dasharray="none" points="338.802,547.199 346.802,547.199 "/>
      <polyline fill="#00ff00" fill-opacity="1.00" stroke="#00ff00" stroke-width="0.5pt" stroke-opacity="1.00" stroke-dasharray="none" points="342.802,543.199 342.802,551.199 "/>
      <polyline fill="#00ff00" fill-opacity="1.00" stroke="#00ff00" stroke-width="0.5pt" stroke-opacity="1.00" stroke-dasharray="none" points="367.716,467.825 375.716,467.825 "/>
      <polyline fill="#00ff00" fill-opacity="1.00" stroke="#00ff00" stroke-width="0.5pt" stroke-opacity="1.00" stroke-dasharray="none" points="371.716,463.825 371.716,471.825 "/>
      <polyline fill="#00ff00" fill-opacity="1.00" stroke="#00ff00" stroke-width="0.5pt" stroke-opacity="1.00" stroke-dasharray="none" points="396.631,442.805 404.631,442.805 "/>
      <polyline fill="#00ff00" fill-opacity="1.00" stroke="#00ff00" stroke-width="0.5pt" stroke-opacity="1.00" stroke-dasharray="none" points="400.631,438.805 400.631,446.805 "/>
      <polyline fill="#00ff00" fill-opacity="1.00" stroke="#00ff00" stroke-width="0.5pt" stroke-opacity="1.00" stroke-dasharray="none" points="425.545,370.749 433.545,370.749 "/>
      <polyline fill="#00ff00" fill-opacity="1.00" stroke="#00ff00" stroke-width="0.5pt" stroke-opacity="1.00" stroke-dasharray="none" points="429.545,366.749 429.545,374.749 "/>
      <polyline fill="#00ff00" fill-opacity="1.00" stroke="#00ff00" stroke-width="0.5pt" stroke-opacity="1.00" stroke-dasharray="none" points="454.460,371.220 462.460,371.220 "/>
      <polyline fill="#00ff00" fill-opacity="1.00" stroke="#00ff00" stroke-width="0.5pt" stroke-opacity="1.00" stroke-dasharray="none" points="458.460,367.220 458.460,375.220 "/>
</g>
</g>
<g id="ID000005" >
  <g transform="translate(320.617,59.496)">
    <g transform="rotate(-0.0)">
      <text x="0.000" y="0.000" font-family="Helvetica" text-anchor="middle" font-size="10pt" fill="#000000" >Outer tolerance: 0.0001   inner tolerance: 1e-05</text>
    </g>
  </g>
</g>
<g id="ID000006" >
  <g transform="translate(105.451,435.251)">
    <g transform="rotate(-90.0)">
      <text x="0.000" y="0.000" font-family="Helvetica" text-anchor="middle" font-size="10pt" fill="#000000" >Average runtime (s)</text>
    </g>
  </g>
</g>
<g id="ID000007" >
  <g transform="translate(320.617,833.015)">
    <g transform="rotate(-0.0)">
      <text x="0.000" y="0.000" font-family="Helvetica" text-anchor="middle" font-size="10pt" fill="#000000" >Number of Users</text>
    </g>
  </g>
</g>
<g id="ID000008" >
</g>
<g id="ID000009" >
</g>
    </g>
    <g>
      <polyline fill="none" stroke="#000000" stroke-width="0.5pt" stroke-dasharray="none" points="212.686,801.000 212.686,793.665 "/>
      <polyline fill="none" stroke="#000000" stroke-width="0.5pt" stroke-dasharray="none" points="284.973,801.000 284.973,793.665 "/>
      <polyline fill="none" stroke="#000000" stroke-width="0.5pt" stroke-dasharray="none" points="357.259,801.000 357.259,793.665 "/>
      <polyline fill="none" stroke="#000000" stroke-width="0.5pt" stroke-dasharray="none" points="429.545,801.000 429.545,793.665 "/>
      <polyline fill="none" stroke="#000000" stroke-width="0.5pt" stroke-dasharray="none" points="140.400,801.000 501.832,801.000 "/>
      <polyline fill="none" stroke="#000000" stroke-width="0.5pt" stroke-dasharray="none" points="212.686,67.500 212.686,74.835 "/>
      <polyline fill="none" stroke="#000000" stroke-width="0.5pt" stroke-dasharray="none" points="284.973,67.500 284.973,74.835 "/>
      <polyline fill="none" stroke="#000000" stroke-width="0.5pt" stroke-dasharray="none" points="357.259,67.500 357.259,74.835 "/>
      <polyline fill="none" stroke="#000000" stroke-width="0.5pt" stroke-dasharray="none" points="429.545,67.500 429.545,74.835 "/>
      <polyline fill="none" stroke="#000000" stroke-width="0.5pt" stroke-dasharray="none" points="140.400,67.500 501.832,67.500 "/>
  <g transform="translate(140.400,827.470)">
    <g transform="rotate(-0.0)">
      <text x="0.000" y="0.000" font-family="Helvetica" text-anchor="middle" font-size="10pt" fill="#000000" >0</text>
    </g>
  </g>
  <g transform="translate(212.686,827.470)">
    <g transform="rotate(-0.0)">
      <text x="0.000" y="0.000" font-family="Helvetica" text-anchor="middle" font-size="10pt" fill="#000000" >50</text>
    </g>
  </g>
  <g transform="translate(284.973,827.470)">
    <g transform="rotate(-0.0)">
      <text x="0.000" y="0.000" font-family="Helvetica" text-anchor="middle" font-size="10pt" fill="#000000" >100</text>
    </g>
  </g>
  <g transform="translate(357.259,827.470)">
    <g transform="rotate(-0.0)">
      <text x="0.000" y="0.000" font-family="Helvetica" text-anchor="middle" font-size="10pt" fill="#000000" >150</text>
    </g>
  </g>
  <g transform="translate(429.545,827.470)">
    <g transform="rotate(-0.0)">
      <text x="0.000" y="0.000" font-family="Helvetica" text-anchor="middle" font-size="10pt" fill="#000000" >200</text>
    </g>
  </g>
  <g transform="translate(501.832,827.470)">
    <g transform="rotate(-0.0)">
      <text x="0.000" y="0.000" font-family="Helvetica" text-anchor="middle" font-size="10pt" fill="#000000" >250</text>
    </g>
  </g>
      <polyline fill="none" stroke="#000000" stroke-width="0.5pt" stroke-dasharray="none" points="140.400,696.214 147.735,696.214 "/>
      <polyline fill="none" stroke="#000000" stroke-width="0.5pt" stroke-dasharray="none" points="140.400,591.429 147.735,591.429 "/>
      <polyline fill="none" stroke="#000000" stroke-width="0.5pt" stroke-dasharray="none" points="140.400,486.643 147.735,486.643 "/>
      <polyline fill="none" stroke="#000000" stroke-width="0.5pt" stroke-dasharray="none" points="140.400,381.857 147.735,381.857 "/>
      <polyline fill="none" stroke="#000000" stroke-width="0.5pt" stroke-dasharray="none" points="140.400,277.071 147.735,277.071 "/>
      <polyline fill="none" stroke="#000000" stroke-width="0.5pt" stroke-dasharray="none" points="140.400,172.286 147.735,172.286 "/>
      <polyline fill="none" stroke="#000000" stroke-width="0.5pt" stroke-dasharray="none" points="140.400,801.000 140.400,67.500 "/>
      <polyline fill="none" stroke="#000000" stroke-width="0.5pt" stroke-dasharray="none" points="501.832,696.214 494.497,696.214 "/>
      <polyline fill="none" stroke="#000000" stroke-width="0.5pt" stroke-dasharray="none" points="501.832,591.429 494.497,591.429 "/>
      <polyline fill="none" stroke="#000000" stroke-width="0.5pt" stroke-dasharray="none" points="501.832,486.643 494.497,486.643 "/>
      <polyline fill="none" stroke="#000000" stroke-width="0.5pt" stroke-dasharray="none" points="501.832,381.857 494.497,381.857 "/>
      <polyline fill="none" stroke="#000000" stroke-width="0.5pt" stroke-dasharray="none" points="501.832,277.071 494.497,277.071 "/>
      <polyline fill="none" stroke="#000000" stroke-width="0.5pt" stroke-dasharray="none" points="501.832,172.286 494.497,172.286 "/>
      <polyline fill="none" stroke="#000000" stroke-width="0.5pt" stroke-dasharray="none" points="501.832,801.000 501.832,67.500 "/>
  <g transform="translate(133.171,805.500)">
    <g transform="rotate(-0.0)">
      <text x="0.000" y="0.000" font-family="Helvetica" text-anchor="end" font-size="10pt" fill="#000000" >0</text>
    </g>
  </g>
  <g transform="translate(133.171,700.714)">
    <g transform="rotate(-0.0)">
      <text x="0.000" y="0.000" font-family="Helvetica" text-anchor="end" font-size="10pt" fill="#000000" >20</text>
    </g>
  </g>
  <g transform="translate(133.171,595.929)">
    <g transform="rotate(-0.0)">
      <text x="0.000" y="0.000" font-family="Helvetica" text-anchor="end" font-size="10pt" fill="#000000" >40</text>
    </g>
  </g>
  <g transform="translate(133.171,491.143)">
    <g transform="rotate(-0.0)">
      <text x="0.000" y="0.000" font-family="Helvetica" text-anchor="end" font-size="10pt" fill="#000000" >60</text>
    </g>
  </g>
  <g transform="translate(133.171,386.357)">
    <g transform="rotate(-0.0)">
      <text x="0.000" y="0.000" font-family="Helvetica" text-anchor="end" font-size="10pt" fill="#000000" >80</text>
    </g>
  </g>
  <g transform="translate(133.171,281.571)">
    <g transform="rotate(-0.0)">
      <text x="0.000" y="0.000" font-family="Helvetica" text-anchor="end" font-size="10pt" fill="#000000" >100</text>
    </g>
  </g>
  <g transform="translate(133.171,176.786)">
    <g transform="rotate(-0.0)">
      <text x="0.000" y="0.000" font-family="Helvetica" text-anchor="end" font-size="10pt" fill="#000000" >120</text>
    </g>
  </g>
  <g transform="translate(133.171,72.000)">
    <g transform="rotate(-0.0)">
      <text x="0.000" y="0.000" font-family="Helvetica" text-anchor="end" font-size="10pt" fill="#000000" >140</text>
    </g>
  </g>
      <polyline fill="none" stroke="#000000" stroke-width="0.5pt" stroke-dasharray="none" points="140.400,801.000 140.400,793.665 "/>
      <polyline fill="none" stroke="#000000" stroke-width="0.5pt" stroke-dasharray="none" points="140.400,801.000 140.400,801.000 "/>
    </g>
  </g>
  <g id ="ID000010">
  <clipPath id="ID000011">
    <rect x="615.968" y="67.500" width="361.432" height="733.500"/>
  </clipPath>
      <polygon fill="#ffffff" fill-opacity="1.00" stroke="none" stroke-width="0.5pt" stroke-opacity="1.00" stroke-dasharray="none" points="615.968,801.000 977.400,801.000 977.400,67.500 615.968,67.500 "/>
      <polygon fill="#ffffff" fill-opacity="1.00" stroke="none" stroke-width="0.5pt" stroke-opacity="1.00" stroke-dasharray="none" points="615.968,67.500 977.400,67.500 977.400,67.500 615.968,67.500 "/>
      <polygon fill="#ffffff" fill-opacity="1.00" stroke="none" stroke-width="0.5pt" stroke-opacity="1.00" stroke-dasharray="none" points="615.968,801.000 615.968,801.000 615.968,67.500 615.968,67.500 "/>
    <g>
<g id="ID000012" clip-path="url(#ID000011)" >
      <polyline fill="none" stroke="#0000ff" stroke-width="0.5pt" stroke-dasharray="none" points="644.883,503.199 673.797,453.321 702.712,433.517 731.626,434.250 760.541,427.648 789.455,371.902 818.370,364.567 847.285,389.506 876.199,368.235 905.114,310.288 934.028,369.702 "/>
<g>
      <polyline fill="#0000ff" fill-opacity="1.00" stroke="#0000ff" stroke-width="0.5pt" stroke-opacity="1.00" stroke-dasharray="none" points="642.083,505.999 647.683,500.399 "/>
      <polyline fill="#0000ff" fill-opacity="1.00" stroke="#0000ff" stroke-width="0.5pt" stroke-opacity="1.00" stroke-dasharray="none" points="642.083,500.399 647.683,505.999 "/>
      <polyline fill="#0000ff" fill-opacity="1.00" stroke="#0000ff" stroke-width="0.5pt" stroke-opacity="1.00" stroke-dasharray="none" points="670.997,456.121 676.597,450.521 "/>
      <polyline fill="#0000ff" fill-opacity="1.00" stroke="#0000ff" stroke-width="0.5pt" stroke-opacity="1.00" stroke-dasharray="none" points="670.997,450.521 676.597,456.121 "/>
      <polyline fill="#0000ff" fill-opacity="1.00" stroke="#0000ff" stroke-width="0.5pt" stroke-opacity="1.00" stroke-dasharray="none" points="699.912,436.317 705.512,430.716 "/>
      <polyline fill="#0000ff" fill-opacity="1.00" stroke="#0000ff" stroke-width="0.5pt" stroke-opacity="1.00" stroke-dasharray="none" points="699.912,430.716 705.512,436.317 "/>
      <polyline fill="#0000ff" fill-opacity="1.00" stroke="#0000ff" stroke-width="0.5pt" stroke-opacity="1.00" stroke-dasharray="none" points="728.826,437.050 734.426,431.450 "/>
      <polyline fill="#0000ff" fill-opacity="1.00" stroke="#0000ff" stroke-width="0.5pt" stroke-opacity="1.00" stroke-dasharray="none" points="728.826,431.450 734.426,437.050 "/>
      <polyline fill="#0000ff" fill-opacity="1.00" stroke="#0000ff" stroke-width="0.5pt" stroke-opacity="1.00" stroke-dasharray="none" points="757.741,430.448 763.341,424.848 "/>
      <polyline fill="#0000ff" fill-opacity="1.00" stroke="#0000ff" stroke-width="0.5pt" stroke-opacity="1.00" stroke-dasharray="none" points="757.741,424.848 763.341,430.448 "/>
      <polyline fill="#0000ff" fill-opacity="1.00" stroke="#0000ff" stroke-width="0.5pt" stroke-opacity="1.00" stroke-dasharray="none" points="786.655,374.702 792.255,369.102 "/>
      <polyline fill="#0000ff" fill-opacity="1.00" stroke="#0000ff" stroke-width="0.5pt" stroke-opacity="1.00" stroke-dasharray="none" points="786.655,369.102 792.255,374.702 "/>
      <polyline fill="#0000ff" fill-opacity="1.00" stroke="#0000ff" stroke-width="0.5pt" stroke-opacity="1.00" stroke-dasharray="none" points="815.570,367.367 821.170,361.767 "/>
      <polyline fill="#0000ff" fill-opacity="1.00" stroke="#0000ff" stroke-width="0.5pt" stroke-opacity="1.00" stroke-dasharray="none" points="815.570,361.767 821.170,367.367 "/>
      <polyline fill="#0000ff" fill-opacity="1.00" stroke="#0000ff" stroke-width="0.5pt" stroke-opacity="1.00" stroke-dasharray="none" points="844.485,392.306 850.085,386.706 "/>
      <polyline fill="#0000ff" fill-opacity="1.00" stroke="#0000ff" stroke-width="0.5pt" stroke-opacity="1.00" stroke-dasharray="none" points="844.485,386.706 850.085,392.306 "/>
      <polyline fill="#0000ff" fill-opacity="1.00" stroke="#0000ff" stroke-width="0.5pt" stroke-opacity="1.00" stroke-dasharray="none" points="873.399,371.035 878.999,365.435 "/>
      <polyline fill="#0000ff" fill-opacity="1.00" stroke="#0000ff" stroke-width="0.5pt" stroke-opacity="1.00" stroke-dasharray="none" points="873.399,365.435 878.999,371.035 "/>
      <polyline fill="#0000ff" fill-opacity="1.00" stroke="#0000ff" stroke-width="0.5pt" stroke-opacity="1.00" stroke-dasharray="none" points="902.314,313.089 907.914,307.488 "/>
      <polyline fill="#0000ff" fill-opacity="1.00" stroke="#0000ff" stroke-width="0.5pt" stroke-opacity="1.00" stroke-dasharray="none" points="902.314,307.488 907.914,313.089 "/>
      <polyline fill="#0000ff" fill-opacity="1.00" stroke="#0000ff" stroke-width="0.5pt" stroke-opacity="1.00" stroke-dasharray="none" points="931.228,372.502 936.828,366.902 "/>
      <polyline fill="#0000ff" fill-opacity="1.00" stroke="#0000ff" stroke-width="0.5pt" stroke-opacity="1.00" stroke-dasharray="none" points="931.228,366.902 936.828,372.502 "/>
</g>
</g>
<g id="ID000013" clip-path="url(#ID000011)" >
      <polyline fill="none" stroke="#ff0000" stroke-width="0.5pt" stroke-dasharray="none" points="644.883,330.827 673.797,263.344 702.712,234.738 731.626,235.471 760.541,285.349 789.455,186.327 818.370,236.205 847.285,214.933 876.199,212.733 905.114,253.075 934.028,138.649 "/>
<g>
      <polyline fill="#ff0000" fill-opacity="1.00" stroke="#ff0000" stroke-width="0.5pt" stroke-opacity="1.00" stroke-dasharray="none" points="640.883,330.827 648.883,330.827 "/>
      <polyline fill="#ff0000" fill-opacity="1.00" stroke="#ff0000" stroke-width="0.5pt" stroke-opacity="1.00" stroke-dasharray="none" points="644.883,326.827 644.883,334.827 "/>
      <polyline fill="#ff0000" fill-opacity="1.00" stroke="#ff0000" stroke-width="0.5pt" stroke-opacity="1.00" stroke-dasharray="none" points="669.797,263.344 677.797,263.344 "/>
      <polyline fill="#ff0000" fill-opacity="1.00" stroke="#ff0000" stroke-width="0.5pt" stroke-opacity="1.00" stroke-dasharray="none" points="673.797,259.344 673.797,267.344 "/>
      <polyline fill="#ff0000" fill-opacity="1.00" stroke="#ff0000" stroke-width="0.5pt" stroke-opacity="1.00" stroke-dasharray="none" points="698.712,234.738 706.712,234.738 "/>
      <polyline fill="#ff0000" fill-opacity="1.00" stroke="#ff0000" stroke-width="0.5pt" stroke-opacity="1.00" stroke-dasharray="none" points="702.712,230.738 702.712,238.738 "/>
      <polyline fill="#ff0000" fill-opacity="1.00" stroke="#ff0000" stroke-width="0.5pt" stroke-opacity="1.00" stroke-dasharray="none" points="727.626,235.471 735.626,235.471 "/>
      <polyline fill="#ff0000" fill-opacity="1.00" stroke="#ff0000" stroke-width="0.5pt" stroke-opacity="1.00" stroke-dasharray="none" points="731.626,231.471 731.626,239.471 "/>
      <polyline fill="#ff0000" fill-opacity="1.00" stroke="#ff0000" stroke-width="0.5pt" stroke-opacity="1.00" stroke-dasharray="none" points="756.541,285.349 764.541,285.349 "/>
      <polyline fill="#ff0000" fill-opacity="1.00" stroke="#ff0000" stroke-width="0.5pt" stroke-opacity="1.00" stroke-dasharray="none" points="760.541,281.349 760.541,289.349 "/>
      <polyline fill="#ff0000" fill-opacity="1.00" stroke="#ff0000" stroke-width="0.5pt" stroke-opacity="1.00" stroke-dasharray="none" points="785.455,186.327 793.455,186.327 "/>
      <polyline fill="#ff0000" fill-opacity="1.00" stroke="#ff0000" stroke-width="0.5pt" stroke-opacity="1.00" stroke-dasharray="none" points="789.455,182.327 789.455,190.327 "/>
      <polyline fill="#ff0000" fill-opacity="1.00" stroke="#ff0000" stroke-width="0.5pt" stroke-opacity="1.00" stroke-dasharray="none" points="814.370,236.205 822.370,236.205 "/>
      <polyline fill="#ff0000" fill-opacity="1.00" stroke="#ff0000" stroke-width="0.5pt" stroke-opacity="1.00" stroke-dasharray="none" points="818.370,232.205 818.370,240.205 "/>
      <polyline fill="#ff0000" fill-opacity="1.00" stroke="#ff0000" stroke-width="0.5pt" stroke-opacity="1.00" stroke-dasharray="none" points="843.285,214.933 851.285,214.933 "/>
      <polyline fill="#ff0000" fill-opacity="1.00" stroke="#ff0000" stroke-width="0.5pt" stroke-opacity="1.00" stroke-dasharray="none" points="847.285,210.933 847.285,218.933 "/>
      <polyline fill="#ff0000" fill-opacity="1.00" stroke="#ff0000" stroke-width="0.5pt" stroke-opacity="1.00" stroke-dasharray="none" points="872.199,212.733 880.199,212.733 "/>
      <polyline fill="#ff0000" fill-opacity="1.00" stroke="#ff0000" stroke-width="0.5pt" stroke-opacity="1.00" stroke-dasharray="none" points="876.199,208.733 876.199,216.733 "/>
      <polyline fill="#ff0000" fill-opacity="1.00" stroke="#ff0000" stroke-width="0.5pt" stroke-opacity="1.00" stroke-dasharray="none" points="901.114,253.075 909.114,253.075 "/>
      <polyline fill="#ff0000" fill-opacity="1.00" stroke="#ff0000" stroke-width="0.5pt" stroke-opacity="1.00" stroke-dasharray="none" points="905.114,249.075 905.114,257.075 "/>
      <polyline fill="#ff0000" fill-opacity="1.00" stroke="#ff0000" stroke-width="0.5pt" stroke-opacity="1.00" stroke-dasharray="none" points="930.028,138.649 938.028,138.649 "/>
      <polyline fill="#ff0000" fill-opacity="1.00" stroke="#ff0000" stroke-width="0.5pt" stroke-opacity="1.00" stroke-dasharray="none" points="934.028,134.649 934.028,142.649 "/>
</g>
</g>
<g id="ID000014" clip-path="url(#ID000011)" >
      <polyline fill="none" stroke="#00ff00" stroke-width="0.5pt" stroke-dasharray="none" points="644.883,749.655 673.797,723.249 702.712,714.447 731.626,641.830 760.541,664.569 789.455,536.940 818.370,594.153 847.285,429.849 876.199,481.927 905.114,452.587 934.028,542.074 "/>
<g>
      <polyline fill="#00ff00" fill-opacity="1.00" stroke="#00ff00" stroke-width="0.5pt" stroke-opacity="1.00" stroke-dasharray="none" points="640.883,749.655 648.883,749.655 "/>
      <polyline fill="#00ff00" fill-opacity="1.00" stroke="#00ff00" stroke-width="0.5pt" stroke-opacity="1.00" stroke-dasharray="none" points="644.883,745.655 644.883,753.655 "/>
      <polyline fill="#00ff00" fill-opacity="1.00" stroke="#00ff00" stroke-width="0.5pt" stroke-opacity="1.00" stroke-dasharray="none" points="669.797,723.249 677.797,723.249 "/>
      <polyline fill="#00ff00" fill-opacity="1.00" stroke="#00ff00" stroke-width="0.5pt" stroke-opacity="1.00" stroke-dasharray="none" points="673.797,719.249 673.797,727.249 "/>
      <polyline fill="#00ff00" fill-opacity="1.00" stroke="#00ff00" stroke-width="0.5pt" stroke-opacity="1.00" stroke-dasharray="none" points="698.712,714.447 706.712,714.447 "/>
      <polyline fill="#00ff00" fill-opacity="1.00" stroke="#00ff00" stroke-width="0.5pt" stroke-opacity="1.00" stroke-dasharray="none" points="702.712,710.447 702.712,718.447 "/>
      <polyline fill="#00ff00" fill-opacity="1.00" stroke="#00ff00" stroke-width="0.5pt" stroke-opacity="1.00" stroke-dasharray="none" points="727.626,641.830 735.626,641.830 "/>
      <polyline fill="#00ff00" fill-opacity="1.00" stroke="#00ff00" stroke-width="0.5pt" stroke-opacity="1.00" stroke-dasharray="none" points="731.626,637.830 731.626,645.830 "/>
      <polyline fill="#00ff00" fill-opacity="1.00" stroke="#00ff00" stroke-width="0.5pt" stroke-opacity="1.00" stroke-dasharray="none" points="756.541,664.569 764.541,664.569 "/>
      <polyline fill="#00ff00" fill-opacity="1.00" stroke="#00ff00" stroke-width="0.5pt" stroke-opacity="1.00" stroke-dasharray="none" points="760.541,660.569 760.541,668.569 "/>
      <polyline fill="#00ff00" fill-opacity="1.00" stroke="#00ff00" stroke-width="0.5pt" stroke-opacity="1.00" stroke-dasharray="none" points="785.455,536.940 793.455,536.940 "/>
      <polyline fill="#00ff00" fill-opacity="1.00" stroke="#00ff00" stroke-width="0.5pt" stroke-opacity="1.00" stroke-dasharray="none" points="789.455,532.940 789.455,540.940 "/>
      <polyline fill="#00ff00" fill-opacity="1.00" stroke="#00ff00" stroke-width="0.5pt" stroke-opacity="1.00" stroke-dasharray="none" points="814.370,594.153 822.370,594.153 "/>
      <polyline fill="#00ff00" fill-opacity="1.00" stroke="#00ff00" stroke-width="0.5pt" stroke-opacity="1.00" stroke-dasharray="none" points="818.370,590.153 818.370,598.153 "/>
      <polyline fill="#00ff00" fill-opacity="1.00" stroke="#00ff00" stroke-width="0.5pt" stroke-opacity="1.00" stroke-dasharray="none" points="843.285,429.849 851.285,429.849 "/>
      <polyline fill="#00ff00" fill-opacity="1.00" stroke="#00ff00" stroke-width="0.5pt" stroke-opacity="1.00" stroke-dasharray="none" points="847.285,425.849 847.285,433.849 "/>
      <polyline fill="#00ff00" fill-opacity="1.00" stroke="#00ff00" stroke-width="0.5pt" stroke-opacity="1.00" stroke-dasharray="none" points="872.199,481.927 880.199,481.927 "/>
      <polyline fill="#00ff00" fill-opacity="1.00" stroke="#00ff00" stroke-width="0.5pt" stroke-opacity="1.00" stroke-dasharray="none" points="876.199,477.927 876.199,485.927 "/>
      <polyline fill="#00ff00" fill-opacity="1.00" stroke="#00ff00" stroke-width="0.5pt" stroke-opacity="1.00" stroke-dasharray="none" points="901.114,452.587 909.114,452.587 "/>
      <polyline fill="#00ff00" fill-opacity="1.00" stroke="#00ff00" stroke-width="0.5pt" stroke-opacity="1.00" stroke-dasharray="none" points="905.114,448.587 905.114,456.587 "/>
      <polyline fill="#00ff00" fill-opacity="1.00" stroke="#00ff00" stroke-width="0.5pt" stroke-opacity="1.00" stroke-dasharray="none" points="930.028,542.074 938.028,542.074 "/>
      <polyline fill="#00ff00" fill-opacity="1.00" stroke="#00ff00" stroke-width="0.5pt" stroke-opacity="1.00" stroke-dasharray="none" points="934.028,538.074 934.028,546.074 "/>
</g>
</g>
<g id="ID000015" >
  <g transform="translate(796.684,59.496)">
    <g transform="rotate(-0.0)">
      <text x="0.000" y="0.000" font-family="Helvetica" text-anchor="middle" font-size="10pt" fill="#000000" >Outer tolerance: 0.0001   inner tolerance: 1e-05</text>
    </g>
  </g>
</g>
<g id="ID000016" >
  <g transform="translate(580.929,435.251)">
    <g transform="rotate(-90.0)">
      <text x="0.000" y="0.000" font-family="Helvetica" text-anchor="middle" font-size="10pt" fill="#000000" >Average iterations</text>
    </g>
  </g>
</g>
<g id="ID000017" >
  <g transform="translate(795.683,833.015)">
    <g transform="rotate(-0.0)">
      <text x="0.000" y="0.000" font-family="Helvetica" text-anchor="middle" font-size="10pt" fill="#000000" >Number of Users</text>
    </g>
  </g>
</g>
    </g>
    <g>
      <polyline fill="none" stroke="#000000" stroke-width="0.5pt" stroke-dasharray="none" points="688.255,801.000 688.255,793.665 "/>
      <polyline fill="none" stroke="#000000" stroke-width="0.5pt" stroke-dasharray="none" points="760.541,801.000 760.541,793.665 "/>
      <polyline fill="none" stroke="#000000" stroke-width="0.5pt" stroke-dasharray="none" points="832.827,801.000 832.827,793.665 "/>
      <polyline fill="none" stroke="#000000" stroke-width="0.5pt" stroke-dasharray="none" points="905.114,801.000 905.114,793.665 "/>
      <polyline fill="none" stroke="#000000" stroke-width="0.5pt" stroke-dasharray="none" points="615.968,801.000 977.400,801.000 "/>
      <polyline fill="none" stroke="#000000" stroke-width="0.5pt" stroke-dasharray="none" points="688.255,67.500 688.255,74.835 "/>
      <polyline fill="none" stroke="#000000" stroke-width="0.5pt" stroke-dasharray="none" points="760.541,67.500 760.541,74.835 "/>
      <polyline fill="none" stroke="#000000" stroke-width="0.5pt" stroke-dasharray="none" points="832.827,67.500 832.827,74.835 "/>
      <polyline fill="none" stroke="#000000" stroke-width="0.5pt" stroke-dasharray="none" points="905.114,67.500 905.114,74.835 "/>
      <polyline fill="none" stroke="#000000" stroke-width="0.5pt" stroke-dasharray="none" points="615.968,67.500 977.400,67.500 "/>
  <g transform="translate(615.968,827.470)">
    <g transform="rotate(-0.0)">
      <text x="0.000" y="0.000" font-family="Helvetica" text-anchor="middle" font-size="10pt" fill="#000000" >0</text>
    </g>
  </g>
  <g transform="translate(688.255,827.470)">
    <g transform="rotate(-0.0)">
      <text x="0.000" y="0.000" font-family="Helvetica" text-anchor="middle" font-size="10pt" fill="#000000" >50</text>
    </g>
  </g>
  <g transform="translate(760.541,827.470)">
    <g transform="rotate(-0.0)">
      <text x="0.000" y="0.000" font-family="Helvetica" text-anchor="middle" font-size="10pt" fill="#000000" >100</text>
    </g>
  </g>
  <g transform="translate(832.827,827.470)">
    <g transform="rotate(-0.0)">
      <text x="0.000" y="0.000" font-family="Helvetica" text-anchor="middle" font-size="10pt" fill="#000000" >150</text>
    </g>
  </g>
  <g transform="translate(905.114,827.470)">
    <g transform="rotate(-0.0)">
      <text x="0.000" y="0.000" font-family="Helvetica" text-anchor="middle" font-size="10pt" fill="#000000" >200</text>
    </g>
  </g>
  <g transform="translate(977.400,827.470)">
    <g transform="rotate(-0.0)">
      <text x="0.000" y="0.000" font-family="Helvetica" text-anchor="middle" font-size="10pt" fill="#000000" >250</text>
    </g>
  </g>
      <polyline fill="none" stroke="#000000" stroke-width="0.5pt" stroke-dasharray="none" points="615.968,727.650 623.303,727.650 "/>
      <polyline fill="none" stroke="#000000" stroke-width="0.5pt" stroke-dasharray="none" points="615.968,654.300 623.303,654.300 "/>
      <polyline fill="none" stroke="#000000" stroke-width="0.5pt" stroke-dasharray="none" points="615.968,580.950 623.303,580.950 "/>
      <polyline fill="none" stroke="#000000" stroke-width="0.5pt" stroke-dasharray="none" points="615.968,507.600 623.303,507.600 "/>
      <polyline fill="none" stroke="#000000" stroke-width="0.5pt" stroke-dasharray="none" points="615.968,434.250 623.303,434.250 "/>
      <polyline fill="none" stroke="#000000" stroke-width="0.5pt" stroke-dasharray="none" points="615.968,360.900 623.303,360.900 "/>
      <polyline fill="none" stroke="#000000" stroke-width="0.5pt" stroke-dasharray="none" points="615.968,287.550 623.303,287.550 "/>
      <polyline fill="none" stroke="#000000" stroke-width="0.5pt" stroke-dasharray="none" points="615.968,214.200 623.303,214.200 "/>
      <polyline fill="none" stroke="#000000" stroke-width="0.5pt" stroke-dasharray="none" points="615.968,140.850 623.303,140.850 "/>
      <polyline fill="none" stroke="#000000" stroke-width="0.5pt" stroke-dasharray="none" points="615.968,801.000 615.968,67.500 "/>
      <polyline fill="none" stroke="#000000" stroke-width="0.5pt" stroke-dasharray="none" points="977.400,727.650 970.065,727.650 "/>
      <polyline fill="none" stroke="#000000" stroke-width="0.5pt" stroke-dasharray="none" points="977.400,654.300 970.065,654.300 "/>
      <polyline fill="none" stroke="#000000" stroke-width="0.5pt" stroke-dasharray="none" points="977.400,580.950 970.065,580.950 "/>
      <polyline fill="none" stroke="#000000" stroke-width="0.5pt" stroke-dasharray="none" points="977.400,507.600 970.065,507.600 "/>
      <polyline fill="none" stroke="#000000" stroke-width="0.5pt" stroke-dasharray="none" points="977.400,434.250 970.065,434.250 "/>
      <polyline fill="none" stroke="#000000" stroke-width="0.5pt" stroke-dasharray="none" points="977.400,360.900 970.065,360.900 "/>
      <polyline fill="none" stroke="#000000" stroke-width="0.5pt" stroke-dasharray="none" points="977.400,287.550 970.065,287.550 "/>
      <polyline fill="none" stroke="#000000" stroke-width="0.5pt" stroke-dasharray="none" points="977.400,214.200 970.065,214.200 "/>
      <polyline fill="none" stroke="#000000" stroke-width="0.5pt" stroke-dasharray="none" points="977.400,140.850 970.065,140.850 "/>
      <polyline fill="none" stroke="#000000" stroke-width="0.5pt" stroke-dasharray="none" points="977.400,801.000 977.400,67.500 "/>
  <g transform="translate(608.740,805.500)">
    <g transform="rotate(-0.0)">
      <text x="0.000" y="0.000" font-family="Helvetica" text-anchor="end" font-size="10pt" fill="#000000" >80</text>
    </g>
  </g>
  <g transform="translate(608.740,732.150)">
    <g transform="rotate(-0.0)">
      <text x="0.000" y="0.000" font-family="Helvetica" text-anchor="end" font-size="10pt" fill="#000000" >100</text>
    </g>
  </g>
  <g transform="translate(608.740,658.800)">
    <g transform="rotate(-0.0)">
      <text x="0.000" y="0.000" font-family="Helvetica" text-anchor="end" font-size="10pt" fill="#000000" >120</text>
    </g>
  </g>
  <g transform="translate(608.740,585.450)">
    <g transform="rotate(-0.0)">
      <text x="0.000" y="0.000" font-family="Helvetica" text-anchor="end" font-size="10pt" fill="#000000" >140</text>
    </g>
  </g>
  <g transform="translate(608.740,512.100)">
    <g transform="rotate(-0.0)">
      <text x="0.000" y="0.000" font-family="Helvetica" text-anchor="end" font-size="10pt" fill="#000000" >160</text>
    </g>
  </g>
  <g transform="translate(608.740,438.750)">
    <g transform="rotate(-0.0)">
      <text x="0.000" y="0.000" font-family="Helvetica" text-anchor="end" font-size="10pt" fill="#000000" >180</text>
    </g>
  </g>
  <g transform="translate(608.740,365.400)">
    <g transform="rotate(-0.0)">
      <text x="0.000" y="0.000" font-family="Helvetica" text-anchor="end" font-size="10pt" fill="#000000" >200</text>
    </g>
  </g>
  <g transform="translate(608.740,292.050)">
    <g transform="rotate(-0.0)">
      <text x="0.000" y="0.000" font-family="Helvetica" text-anchor="end" font-size="10pt" fill="#000000" >220</text>
    </g>
  </g>
  <g transform="translate(608.740,218.700)">
    <g transform="rotate(-0.0)">
      <text x="0.000" y="0.000" font-family="Helvetica" text-anchor="end" font-size="10pt" fill="#000000" >240</text>
    </g>
  </g>
  <g transform="translate(608.740,145.350)">
    <g transform="rotate(-0.0)">
      <text x="0.000" y="0.000" font-family="Helvetica" text-anchor="end" font-size="10pt" fill="#000000" >260</text>
    </g>
  </g>
  <g transform="translate(608.740,72.000)">
    <g transform="rotate(-0.0)">
      <text x="0.000" y="0.000" font-family="Helvetica" text-anchor="end" font-size="10pt" fill="#000000" >280</text>
    </g>
  </g>
      <polyline fill="none" stroke="#000000" stroke-width="0.5pt" stroke-dasharray="none" points="615.968,801.000 615.968,793.665 "/>
      <polyline fill="none" stroke="#000000" stroke-width="0.5pt" stroke-dasharray="none" points="615.968,801.000 615.968,801.000 "/>
    </g>
  </g>
  <g id ="ID000018">
  <clipPath id="ID000019">
    <rect x="410.750" y="74.750" width="86.500" height="54.250"/>
  </clipPath>
      <polygon fill="#ffffff" fill-opacity="1.00" stroke="none" stroke-width="0.5pt" stroke-opacity="1.00" stroke-dasharray="none" points="410.750,129.000 497.250,129.000 497.250,74.750 410.750,74.750 "/>
      <polygon fill="#ffffff" fill-opacity="1.00" stroke="none" stroke-width="0.5pt" stroke-opacity="1.00" stroke-dasharray="none" points="410.750,74.750 497.250,74.750 497.250,74.750 410.750,74.750 "/>
      <polygon fill="#ffffff" fill-opacity="1.00" stroke="none" stroke-width="0.5pt" stroke-opacity="1.00" stroke-dasharray="none" points="410.750,129.000 410.750,129.000 410.750,74.750 410.750,74.750 "/>
    <g>
<g id="ID000020" >
  <g transform="translate(460.538,90.803)">
    <g transform="rotate(-0.0)">
      <text x="0.000" y="0.000" font-family="Helvetica" text-anchor="start" font-size="10pt" fill="#000000" >GPU</text>
    </g>
  </g>
</g>
<g id="ID000021" clip-path="url(#ID000019)" >
      <polyline fill="none" stroke="#0000ff" stroke-width="0.5pt" stroke-dasharray="none" points="418.250,85.250 455.750,85.250 "/>
<g>
</g>
</g>
<g id="ID000022" clip-path="url(#ID000019)" >
<g>
      <polyline fill="#0000ff" fill-opacity="1.00" stroke="#0000ff" stroke-width="0.5pt" stroke-opacity="1.00" stroke-dasharray="none" points="434.200,88.050 439.800,82.450 "/>
      <polyline fill="#0000ff" fill-opacity="1.00" stroke="#0000ff" stroke-width="0.5pt" stroke-opacity="1.00" stroke-dasharray="none" points="434.200,82.450 439.800,88.050 "/>
</g>
</g>
<g id="ID000023" >
  <g transform="translate(460.538,107.882)">
    <g transform="rotate(-0.0)">
      <text x="0.000" y="0.000" font-family="Helvetica" text-anchor="start" font-size="10pt" fill="#000000" >CPU</text>
    </g>
  </g>
</g>
<g id="ID000024" clip-path="url(#ID000019)" >
      <polyline fill="none" stroke="#ff0000" stroke-width="0.5pt" stroke-dasharray="none" points="418.250,101.875 455.750,101.875 "/>
<g>
</g>
</g>
<g id="ID000025" clip-path="url(#ID000019)" >
<g>
      <polyline fill="#ff0000" fill-opacity="1.00" stroke="#ff0000" stroke-width="0.5pt" stroke-opacity="1.00" stroke-dasharray="none" points="433.000,101.875 441.000,101.875 "/>
      <polyline fill="#ff0000" fill-opacity="1.00" stroke="#ff0000" stroke-width="0.5pt" stroke-opacity="1.00" stroke-dasharray="none" points="437.000,97.875 437.000,105.875 "/>
</g>
</g>
<g id="ID000026" >
  <g transform="translate(460.538,123.956)">
    <g transform="rotate(-0.0)">
      <text x="0.000" y="0.000" font-family="Helvetica" text-anchor="start" font-size="10pt" fill="#000000" >BLAS</text>
    </g>
  </g>
</g>
<g id="ID000027" clip-path="url(#ID000019)" >
      <polyline fill="none" stroke="#00ff00" stroke-width="0.5pt" stroke-dasharray="none" points="418.250,118.500 455.750,118.500 "/>
<g>
</g>
</g>
<g id="ID000028" clip-path="url(#ID000019)" >
<g>
      <polyline fill="#00ff00" fill-opacity="1.00" stroke="#00ff00" stroke-width="0.5pt" stroke-opacity="1.00" stroke-dasharray="none" points="433.000,118.500 441.000,118.500 "/>
      <polyline fill="#00ff00" fill-opacity="1.00" stroke="#00ff00" stroke-width="0.5pt" stroke-opacity="1.00" stroke-dasharray="none" points="437.000,114.500 437.000,122.500 "/>
</g>
</g>
<g id="ID000029" >
</g>
<g id="ID000030" >
</g>
<g id="ID000031" >
</g>
    </g>
    <g>
      <polyline fill="none" stroke="#000000" stroke-width="0.5pt" stroke-dasharray="none" points="410.750,129.000 497.250,129.000 "/>
      <polyline fill="none" stroke="#000000" stroke-width="0.5pt" stroke-dasharray="none" points="410.750,74.750 497.250,74.750 "/>
      <polyline fill="none" stroke="#000000" stroke-width="0.5pt" stroke-dasharray="none" points="410.750,129.000 410.750,74.750 "/>
      <polyline fill="none" stroke="#000000" stroke-width="0.5pt" stroke-dasharray="none" points="497.250,129.000 497.250,74.750 "/>
      <polyline fill="none" stroke="#000000" stroke-width="0.5pt" stroke-dasharray="none" points="410.750,129.000 410.750,128.457 "/>
      <polyline fill="none" stroke="#000000" stroke-width="0.5pt" stroke-dasharray="none" points="410.750,129.000 410.750,129.000 "/>
    </g>
  </g>
  </g>
</svg>
